STARTFONT 2.1
FONT -FontForge-Liberation Sans-Book-R-Normal-Sans--240-2300-75-75-P-1334-ISO10646-1
SIZE 230 75 75
FONTBOUNDINGBOX 300 310 -50 -70
COMMENT "Generated by fontforge, http://fontforge.sourceforge.net"
COMMENT "Digitized data `2007 Ascender Corporation. All rights reserved."
STARTPROPERTIES 32
FOUNDRY "FontForge"
FAMILY_NAME "Liberation Sans"
WEIGHT_NAME "Book"
SLANT "R"
SETWIDTH_NAME "Normal"
ADD_STYLE_NAME "Sans"
PIXEL_SIZE 240
POINT_SIZE 2300
RESOLUTION_X 75
RESOLUTION_Y 75
SPACING "P"
AVERAGE_WIDTH 1334
CHARSET_REGISTRY "ISO10646"
CHARSET_ENCODING "1"
FONTNAME_REGISTRY ""
CHARSET_COLLECTIONS "ASCII ISOLatin1Encoding ISO8859-2 ISO8859-5 ISO8859-7 ISO8859-9 ISO8859-4 Symbol ISO10646-1"
FONT_NAME "LiberationSans-Regular"
FACE_NAME "Liberation Sans Regular"
COPYRIGHT "Digitized data `2007 Ascender Corporation. All rights reserved."
FONT_VERSION "001.000"
FONT_ASCENT 190
FONT_DESCENT 50
UNDERLINE_POSITION 0
UNDERLINE_THICKNESS 12
X_HEIGHT 129
CAP_HEIGHT 169
RAW_ASCENT 791
RAW_DESCENT 208
NORM_SPACE 60
FIGURE_WIDTH 130
AVG_LOWERCASE_WIDTH 1189
AVG_UPPERCASE_WIDTH 1573
ENDPROPERTIES
CHARS 682
STARTCHAR .null
ENCODING 0
SWIDTH 0 0
DWIDTH 0 0
BBX 1 1 9 0
BITMAP
00
ENDCHAR
STARTCHAR nonmarkingreturn
ENCODING 13
SWIDTH 250 0
DWIDTH 60 0
BBX 1 1 9 0
BITMAP
00
ENDCHAR
STARTCHAR space
ENCODING 32
SWIDTH 250 0
DWIDTH 60 0
BBX 1 1 9 0
BITMAP
00
ENDCHAR
STARTCHAR exclam
ENCODING 33
SWIDTH 250 0
DWIDTH 60 0
BBX 20 170 30 0
BITMAP
FFFFF0
FFFFF0
FFFFF0
FFFFF0
FFFFF0
FFFFF0
FFFFF0
FFFFF0
FFFFF0
FFFFF0
FFFFF0
FFFFF0
FFFFF0
FFFFF0
FFFFF0
FFFFF0
FFFFF0
FFFFF0
FFFFF0
FFFFF0
FFFFF0
FFFFF0
FFFFF0
FFFFF0
FFFFF0
FFFFF0
FFFFF0
FFFFF0
FFFFF0
FFFFF0
FFFFF0
FFFFF0
FFFFF0
FFFFF0
FFFFF0
FFFFF0
FFFFF0
FFFFF0
FFFFF0
FFFFF0
FFFFF0
FFFFF0
FFFFF0
FFFFF0
FFFFF0
FFFFF0
FFFFF0
FFFFF0
FFFFF0
FFFFF0
FFFFF0
FFFFF0
FFFFF0
FFFFF0
FFFFF0
FFFFF0
FFFFF0
FFFFF0
FFFFF0
FFFFF0
FFFFF0
FFFFF0
FFFFF0
FFFFF0
FFFFF0
FFFFF0
FFFFF0
FFFFF0
FFFFF0
FFFFF0
FFFFF0
FFFFF0
FFFFF0
FFFFF0
FFFFF0
FFFFF0
FFFFF0
FFFFF0
FFFFF0
FFFFF0
FFFFF0
FFFFF0
FFFFF0
FFFFF0
FFFFF0
FFFFF0
FFFFF0
FFFFF0
FFFFF0
FFFFF0
FFFFF0
FFFFF0
FFFFF0
FFFFF0
FFFFF0
FFFFF0
FFFFF0
FFFFF0
FFFFF0
FFFFF0
FFFFF0
FFFFF0
FFFFF0
FFFFF0
FFFFF0
FFFFF0
FFFFF0
FFFFF0
FFFFF0
FFFFF0
FFFFF0
FFFFF0
FFFFF0
FFFFF0
FFFFF0
FFFFF0
FFFFF0
FFFFF0
FFFFF0
FFFFF0
000000
000000
000000
000000
000000
000000
000000
000000
000000
000000
000000
000000
000000
000000
000000
000000
000000
000000
000000
000000
FFFFF0
FFFFF0
FFFFF0
FFFFF0
FFFFF0
FFFFF0
FFFFF0
FFFFF0
FFFFF0
FFFFF0
FFFFF0
FFFFF0
FFFFF0
FFFFF0
FFFFF0
FFFFF0
FFFFF0
FFFFF0
FFFFF0
FFFFF0
FFFFF0
FFFFF0
FFFFF0
FFFFF0
FFFFF0
FFFFF0
FFFFF0
FFFFF0
FFFFF0
FFFFF0
ENDCHAR
STARTCHAR quotedbl
ENCODING 34
SWIDTH 333 0
DWIDTH 80 0
BBX 60 50 10 120
BITMAP
FFFFF00000FFFFF0
FFFFF00000FFFFF0
FFFFF00000FFFFF0
FFFFF00000FFFFF0
FFFFF00000FFFFF0
FFFFF00000FFFFF0
FFFFF00000FFFFF0
FFFFF00000FFFFF0
FFFFF00000FFFFF0
FFFFF00000FFFFF0
FFFFF00000FFFFF0
FFFFF00000FFFFF0
FFFFF00000FFFFF0
FFFFF00000FFFFF0
FFFFF00000FFFFF0
FFFFF00000FFFFF0
FFFFF00000FFFFF0
FFFFF00000FFFFF0
FFFFF00000FFFFF0
FFFFF00000FFFFF0
FFFFF00000FFFFF0
FFFFF00000FFFFF0
FFFFF00000FFFFF0
FFFFF00000FFFFF0
FFFFF00000FFFFF0
FFFFF00000FFFFF0
FFFFF00000FFFFF0
FFFFF00000FFFFF0
FFFFF00000FFFFF0
FFFFF00000FFFFF0
FFFFF00000FFFFF0
FFFFF00000FFFFF0
FFFFF00000FFFFF0
FFFFF00000FFFFF0
FFFFF00000FFFFF0
FFFFF00000FFFFF0
FFFFF00000FFFFF0
FFFFF00000FFFFF0
FFFFF00000FFFFF0
FFFFF00000FFFFF0
FFFFF00000FFFFF0
FFFFF00000FFFFF0
FFFFF00000FFFFF0
FFFFF00000FFFFF0
FFFFF00000FFFFF0
FFFFF00000FFFFF0
FFFFF00000FFFFF0
FFFFF00000FFFFF0
FFFFF00000FFFFF0
FFFFF00000FFFFF0
ENDCHAR
STARTCHAR numbersign
ENCODING 35
SWIDTH 541 0
DWIDTH 130 0
BBX 130 170 0 0
BITMAP
0000000000FFFFF0000000000FFFFF0000
0000000000FFFFF0000000000FFFFF0000
0000000000FFFFF0000000000FFFFF0000
0000000000FFFFF0000000000FFFFF0000
0000000000FFFFF0000000000FFFFF0000
0000000000FFFFF0000000000FFFFF0000
0000000000FFFFF0000000000FFFFF0000
0000000000FFFFF0000000000FFFFF0000
0000000000FFFFF0000000000FFFFF0000
0000000000FFFFF0000000000FFFFF0000
0000000000FFC000000000000FFC000000
0000000000FFC000000000000FFC000000
0000000000FFC000000000000FFC000000
0000000000FFC000000000000FFC000000
0000000000FFC000000000000FFC000000
0000000000FFC000000000000FFC000000
0000000000FFC000000000000FFC000000
0000000000FFC000000000000FFC000000
0000000000FFC000000000000FFC000000
0000000000FFC000000000000FFC000000
0000000000FFC000000000000FFC000000
0000000000FFC000000000000FFC000000
0000000000FFC000000000000FFC000000
0000000000FFC000000000000FFC000000
0000000000FFC000000000000FFC000000
0000000000FFC000000000000FFC000000
0000000000FFC000000000000FFC000000
0000000000FFC000000000000FFC000000
0000000000FFC000000000000FFC000000
0000000000FFC000000000000FFC000000
0000000000FFC000000000000FFC000000
0000000000FFC000000000000FFC000000
0000000000FFC000000000000FFC000000
0000000000FFC000000000000FFC000000
0000000000FFC000000000000FFC000000
0000000000FFC000000000000FFC000000
0000000000FFC000000000000FFC000000
0000000000FFC000000000000FFC000000
0000000000FFC000000000000FFC000000
0000000000FFC000000000000FFC000000
00000003FFFFC000000000000FFC000000
00000003FFFFC000000000000FFC000000
00000003FFFFC000000000000FFC000000
00000003FFFFC000000000000FFC000000
00000003FFFFC000000000000FFC000000
00000003FFFFC000000000000FFC000000
00000003FFFFC000000000000FFC000000
00000003FFFFC000000000000FFC000000
00000003FFFFC000000000000FFC000000
00000003FFFFC000000000000FFC000000
FFFFFFFFFFFFFFFFFFFFFFFFFFFFFFFFC0
FFFFFFFFFFFFFFFFFFFFFFFFFFFFFFFFC0
FFFFFFFFFFFFFFFFFFFFFFFFFFFFFFFFC0
FFFFFFFFFFFFFFFFFFFFFFFFFFFFFFFFC0
FFFFFFFFFFFFFFFFFFFFFFFFFFFFFFFFC0
FFFFFFFFFFFFFFFFFFFFFFFFFFFFFFFFC0
FFFFFFFFFFFFFFFFFFFFFFFFFFFFFFFFC0
FFFFFFFFFFFFFFFFFFFFFFFFFFFFFFFFC0
FFFFFFFFFFFFFFFFFFFFFFFFFFFFFFFFC0
FFFFFFFFFFFFFFFFFFFFFFFFFFFFFFFFC0
00000003FF0000000000003FF000000000
00000003FF0000000000003FF000000000
00000003FF0000000000003FF000000000
00000003FF0000000000003FF000000000
00000003FF0000000000003FF000000000
00000003FF0000000000003FF000000000
00000003FF0000000000003FF000000000
00000003FF0000000000003FF000000000
00000003FF0000000000003FF000000000
00000003FF0000000000003FF000000000
00000003FF0000000000003FF000000000
00000003FF0000000000003FF000000000
00000003FF0000000000003FF000000000
00000003FF0000000000003FF000000000
00000003FF0000000000003FF000000000
00000003FF0000000000003FF000000000
00000003FF0000000000003FF000000000
00000003FF0000000000003FF000000000
00000003FF0000000000003FF000000000
00000003FF0000000000003FF000000000
00000003FF0000000000003FF000000000
00000003FF0000000000003FF000000000
00000003FF0000000000003FF000000000
00000003FF0000000000003FF000000000
00000003FF0000000000003FF000000000
00000003FF0000000000003FF000000000
00000003FF0000000000003FF000000000
00000003FF0000000000003FF000000000
00000003FF0000000000003FF000000000
00000003FF0000000000003FF000000000
00000FFFFF0000000000003FF000000000
00000FFFFF0000000000003FF000000000
00000FFFFF0000000000003FF000000000
00000FFFFF0000000000003FF000000000
00000FFFFF0000000000003FF000000000
00000FFFFF0000000000003FF000000000
00000FFFFF0000000000003FF000000000
00000FFFFF0000000000003FF000000000
00000FFFFF0000000000003FF000000000
00000FFFFF0000000000003FF000000000
00000FFFFF0000000000FFFFF000000000
00000FFFFF0000000000FFFFF000000000
00000FFFFF0000000000FFFFF000000000
00000FFFFF0000000000FFFFF000000000
00000FFFFF0000000000FFFFF000000000
00000FFFFF0000000000FFFFF000000000
00000FFFFF0000000000FFFFF000000000
00000FFFFF0000000000FFFFF000000000
00000FFFFF0000000000FFFFF000000000
00000FFFFF0000000000FFFFF000000000
FFFFFFFFFFFFFFFFFFFFFFFFFFFFFFFFC0
FFFFFFFFFFFFFFFFFFFFFFFFFFFFFFFFC0
FFFFFFFFFFFFFFFFFFFFFFFFFFFFFFFFC0
FFFFFFFFFFFFFFFFFFFFFFFFFFFFFFFFC0
FFFFFFFFFFFFFFFFFFFFFFFFFFFFFFFFC0
FFFFFFFFFFFFFFFFFFFFFFFFFFFFFFFFC0
FFFFFFFFFFFFFFFFFFFFFFFFFFFFFFFFC0
FFFFFFFFFFFFFFFFFFFFFFFFFFFFFFFFC0
FFFFFFFFFFFFFFFFFFFFFFFFFFFFFFFFC0
FFFFFFFFFFFFFFFFFFFFFFFFFFFFFFFFC0
00000FFC000000000000FFC00000000000
00000FFC000000000000FFC00000000000
00000FFC000000000000FFC00000000000
00000FFC000000000000FFC00000000000
00000FFC000000000000FFC00000000000
00000FFC000000000000FFC00000000000
00000FFC000000000000FFC00000000000
00000FFC000000000000FFC00000000000
00000FFC000000000000FFC00000000000
00000FFC000000000000FFC00000000000
00000FFC000000000000FFC00000000000
00000FFC000000000000FFC00000000000
00000FFC000000000000FFC00000000000
00000FFC000000000000FFC00000000000
00000FFC000000000000FFC00000000000
00000FFC000000000000FFC00000000000
00000FFC000000000000FFC00000000000
00000FFC000000000000FFC00000000000
00000FFC000000000000FFC00000000000
00000FFC000000000000FFC00000000000
003FFFFC0000000003FFFFC00000000000
003FFFFC0000000003FFFFC00000000000
003FFFFC0000000003FFFFC00000000000
003FFFFC0000000003FFFFC00000000000
003FFFFC0000000003FFFFC00000000000
003FFFFC0000000003FFFFC00000000000
003FFFFC0000000003FFFFC00000000000
003FFFFC0000000003FFFFC00000000000
003FFFFC0000000003FFFFC00000000000
003FFFFC0000000003FFFFC00000000000
003FFFFC0000000003FFFFC00000000000
003FFFFC0000000003FFFFC00000000000
003FFFFC0000000003FFFFC00000000000
003FFFFC0000000003FFFFC00000000000
003FFFFC0000000003FFFFC00000000000
003FFFFC0000000003FFFFC00000000000
003FFFFC0000000003FFFFC00000000000
003FFFFC0000000003FFFFC00000000000
003FFFFC0000000003FFFFC00000000000
003FFFFC0000000003FFFFC00000000000
003FF0000000000003FF00000000000000
003FF0000000000003FF00000000000000
003FF0000000000003FF00000000000000
003FF0000000000003FF00000000000000
003FF0000000000003FF00000000000000
003FF0000000000003FF00000000000000
003FF0000000000003FF00000000000000
003FF0000000000003FF00000000000000
003FF0000000000003FF00000000000000
003FF0000000000003FF00000000000000
ENDCHAR
STARTCHAR dollar
ENCODING 36
SWIDTH 541 0
DWIDTH 130 0
BBX 110 200 10 -20
BITMAP
0000000000003FF0000000000000
0000000000003FF0000000000000
0000000000003FF0000000000000
0000000000003FF0000000000000
0000000000003FF0000000000000
0000000000003FF0000000000000
0000000000003FF0000000000000
0000000000003FF0000000000000
0000000000003FF0000000000000
0000000000003FF0000000000000
0000000000003FF0000000000000
0000000000003FF0000000000000
0000000000003FF0000000000000
0000000000003FF0000000000000
0000000000003FF0000000000000
0000000000003FF0000000000000
0000000000003FF0000000000000
0000000000003FF0000000000000
0000000000003FF0000000000000
0000000000003FF0000000000000
00000FFFFFFFFFFFFFFF00000000
00000FFFFFFFFFFFFFFF00000000
00000FFFFFFFFFFFFFFF00000000
00000FFFFFFFFFFFFFFF00000000
00000FFFFFFFFFFFFFFF00000000
00000FFFFFFFFFFFFFFF00000000
00000FFFFFFFFFFFFFFF00000000
00000FFFFFFFFFFFFFFF00000000
00000FFFFFFFFFFFFFFF00000000
00000FFFFFFFFFFFFFFF00000000
003FFFFFFFFFFFFFFFFFFFFFF000
003FFFFFFFFFFFFFFFFFFFFFF000
003FFFFFFFFFFFFFFFFFFFFFF000
003FFFFFFFFFFFFFFFFFFFFFF000
003FFFFFFFFFFFFFFFFFFFFFF000
003FFFFFFFFFFFFFFFFFFFFFF000
003FFFFFFFFFFFFFFFFFFFFFF000
003FFFFFFFFFFFFFFFFFFFFFF000
003FFFFFFFFFFFFFFFFFFFFFF000
003FFFFFFFFFFFFFFFFFFFFFF000
FFFFFFFC00003FF00000FFFFFFFC
FFFFFFFC00003FF00000FFFFFFFC
FFFFFFFC00003FF00000FFFFFFFC
FFFFFFFC00003FF00000FFFFFFFC
FFFFFFFC00003FF00000FFFFFFFC
FFFFFFFC00003FF00000FFFFFFFC
FFFFFFFC00003FF00000FFFFFFFC
FFFFFFFC00003FF00000FFFFFFFC
FFFFFFFC00003FF00000FFFFFFFC
FFFFFFFC00003FF00000FFFFFFFC
FFFFF00000003FF00000003FFFFC
FFFFF00000003FF00000003FFFFC
FFFFF00000003FF00000003FFFFC
FFFFF00000003FF00000003FFFFC
FFFFF00000003FF00000003FFFFC
FFFFF00000003FF00000003FFFFC
FFFFF00000003FF00000003FFFFC
FFFFF00000003FF00000003FFFFC
FFFFF00000003FF00000003FFFFC
FFFFF00000003FF00000003FFFFC
FFFFF00000003FF0000000000000
FFFFF00000003FF0000000000000
FFFFF00000003FF0000000000000
FFFFF00000003FF0000000000000
FFFFF00000003FF0000000000000
FFFFF00000003FF0000000000000
FFFFF00000003FF0000000000000
FFFFF00000003FF0000000000000
FFFFF00000003FF0000000000000
FFFFF00000003FF0000000000000
FFFFFFFC00003FF0000000000000
FFFFFFFC00003FF0000000000000
FFFFFFFC00003FF0000000000000
FFFFFFFC00003FF0000000000000
FFFFFFFC00003FF0000000000000
FFFFFFFC00003FF0000000000000
FFFFFFFC00003FF0000000000000
FFFFFFFC00003FF0000000000000
FFFFFFFC00003FF0000000000000
FFFFFFFC00003FF0000000000000
003FFFFFFFFFFFF0000000000000
003FFFFFFFFFFFF0000000000000
003FFFFFFFFFFFF0000000000000
003FFFFFFFFFFFF0000000000000
003FFFFFFFFFFFF0000000000000
003FFFFFFFFFFFF0000000000000
003FFFFFFFFFFFF0000000000000
003FFFFFFFFFFFF0000000000000
003FFFFFFFFFFFF0000000000000
003FFFFFFFFFFFF0000000000000
00000FFFFFFFFFFFFFFF00000000
00000FFFFFFFFFFFFFFF00000000
00000FFFFFFFFFFFFFFF00000000
00000FFFFFFFFFFFFFFF00000000
00000FFFFFFFFFFFFFFF00000000
00000FFFFFFFFFFFFFFF00000000
00000FFFFFFFFFFFFFFF00000000
00000FFFFFFFFFFFFFFF00000000
00000FFFFFFFFFFFFFFF00000000
00000FFFFFFFFFFFFFFF00000000
0000000000003FFFFFFFFFFFF000
0000000000003FFFFFFFFFFFF000
0000000000003FFFFFFFFFFFF000
0000000000003FFFFFFFFFFFF000
0000000000003FFFFFFFFFFFF000
0000000000003FFFFFFFFFFFF000
0000000000003FFFFFFFFFFFF000
0000000000003FFFFFFFFFFFF000
0000000000003FFFFFFFFFFFF000
0000000000003FFFFFFFFFFFF000
0000000000003FF00000FFFFFFFC
0000000000003FF00000FFFFFFFC
0000000000003FF00000FFFFFFFC
0000000000003FF00000FFFFFFFC
0000000000003FF00000FFFFFFFC
0000000000003FF00000FFFFFFFC
0000000000003FF00000FFFFFFFC
0000000000003FF00000FFFFFFFC
0000000000003FF00000FFFFFFFC
0000000000003FF00000FFFFFFFC
0000000000003FF00000003FFFFC
0000000000003FF00000003FFFFC
0000000000003FF00000003FFFFC
0000000000003FF00000003FFFFC
0000000000003FF00000003FFFFC
0000000000003FF00000003FFFFC
0000000000003FF00000003FFFFC
0000000000003FF00000003FFFFC
0000000000003FF00000003FFFFC
0000000000003FF00000003FFFFC
003FF00000003FF00000003FFFFC
003FF00000003FF00000003FFFFC
003FF00000003FF00000003FFFFC
003FF00000003FF00000003FFFFC
003FF00000003FF00000003FFFFC
003FF00000003FF00000003FFFFC
003FF00000003FF00000003FFFFC
003FF00000003FF00000003FFFFC
003FF00000003FF00000003FFFFC
003FF00000003FF00000003FFFFC
FFFFF00000003FF00000003FFFFC
FFFFF00000003FF00000003FFFFC
FFFFF00000003FF00000003FFFFC
FFFFF00000003FF00000003FFFFC
FFFFF00000003FF00000003FFFFC
FFFFF00000003FF00000003FFFFC
FFFFF00000003FF00000003FFFFC
FFFFF00000003FF00000003FFFFC
FFFFF00000003FF00000003FFFFC
FFFFF00000003FF00000003FFFFC
003FFFFC00003FF00000FFFFFFFC
003FFFFC00003FF00000FFFFFFFC
003FFFFC00003FF00000FFFFFFFC
003FFFFC00003FF00000FFFFFFFC
003FFFFC00003FF00000FFFFFFFC
003FFFFC00003FF00000FFFFFFFC
003FFFFC00003FF00000FFFFFFFC
003FFFFC00003FF00000FFFFFFFC
003FFFFC00003FF00000FFFFFFFC
003FFFFC00003FF00000FFFFFFFC
003FFFFFFFFFFFFFFFFFFFFFF000
003FFFFFFFFFFFFFFFFFFFFFF000
003FFFFFFFFFFFFFFFFFFFFFF000
003FFFFFFFFFFFFFFFFFFFFFF000
003FFFFFFFFFFFFFFFFFFFFFF000
003FFFFFFFFFFFFFFFFFFFFFF000
003FFFFFFFFFFFFFFFFFFFFFF000
003FFFFFFFFFFFFFFFFFFFFFF000
003FFFFFFFFFFFFFFFFFFFFFF000
003FFFFFFFFFFFFFFFFFFFFFF000
00000003FFFFFFFFFFFF00000000
00000003FFFFFFFFFFFF00000000
00000003FFFFFFFFFFFF00000000
00000003FFFFFFFFFFFF00000000
00000003FFFFFFFFFFFF00000000
00000003FFFFFFFFFFFF00000000
00000003FFFFFFFFFFFF00000000
00000003FFFFFFFFFFFF00000000
00000003FFFFFFFFFFFF00000000
00000003FFFFFFFFFFFF00000000
0000000000003FF0000000000000
0000000000003FF0000000000000
0000000000003FF0000000000000
0000000000003FF0000000000000
0000000000003FF0000000000000
0000000000003FF0000000000000
0000000000003FF0000000000000
0000000000003FF0000000000000
0000000000003FF0000000000000
0000000000003FF0000000000000
0000000000003FF0000000000000
0000000000003FF0000000000000
0000000000003FF0000000000000
0000000000003FF0000000000000
0000000000003FF0000000000000
0000000000003FF0000000000000
0000000000003FF0000000000000
0000000000003FF0000000000000
0000000000003FF0000000000000
0000000000003FF0000000000000
ENDCHAR
STARTCHAR percent
ENCODING 37
SWIDTH 875 0
DWIDTH 210 0
BBX 190 170 10 0
BITMAP
00000FFFFFFFC0000000000000000000000FFFFF00000000
00000FFFFFFFC0000000000000000000000FFFFF00000000
00000FFFFFFFC0000000000000000000000FFFFF00000000
00000FFFFFFFC0000000000000000000000FFFFF00000000
00000FFFFFFFC0000000000000000000000FFFFF00000000
00000FFFFFFFC0000000000000000000000FFFFF00000000
00000FFFFFFFC0000000000000000000000FFFFF00000000
00000FFFFFFFC0000000000000000000000FFFFF00000000
00000FFFFFFFC0000000000000000000000FFFFF00000000
00000FFFFFFFC0000000000000000000000FFFFF00000000
003FFFFC00FFFFF000000000000000003FFFFC0000000000
003FFFFC00FFFFF000000000000000003FFFFC0000000000
003FFFFC00FFFFF000000000000000003FFFFC0000000000
003FFFFC00FFFFF000000000000000003FFFFC0000000000
003FFFFC00FFFFF000000000000000003FFFFC0000000000
003FFFFC00FFFFF000000000000000003FFFFC0000000000
003FFFFC00FFFFF000000000000000003FFFFC0000000000
003FFFFC00FFFFF000000000000000003FFFFC0000000000
003FFFFC00FFFFF000000000000000003FFFFC0000000000
003FFFFC00FFFFF000000000000000003FFFFC0000000000
FFFFF00000003FFFFC000000000000003FFFFC0000000000
FFFFF00000003FFFFC000000000000003FFFFC0000000000
FFFFF00000003FFFFC000000000000003FFFFC0000000000
FFFFF00000003FFFFC000000000000003FFFFC0000000000
FFFFF00000003FFFFC000000000000003FFFFC0000000000
FFFFF00000003FFFFC000000000000003FFFFC0000000000
FFFFF00000003FFFFC000000000000003FFFFC0000000000
FFFFF00000003FFFFC000000000000003FFFFC0000000000
FFFFF00000003FFFFC000000000000003FFFFC0000000000
FFFFF00000003FFFFC000000000000003FFFFC0000000000
FFFFF00000003FFFFC000000000000FFFFF0000000000000
FFFFF00000003FFFFC000000000000FFFFF0000000000000
FFFFF00000003FFFFC000000000000FFFFF0000000000000
FFFFF00000003FFFFC000000000000FFFFF0000000000000
FFFFF00000003FFFFC000000000000FFFFF0000000000000
FFFFF00000003FFFFC000000000000FFFFF0000000000000
FFFFF00000003FFFFC000000000000FFFFF0000000000000
FFFFF00000003FFFFC000000000000FFFFF0000000000000
FFFFF00000003FFFFC000000000000FFFFF0000000000000
FFFFF00000003FFFFC000000000000FFFFF0000000000000
FFFFF00000003FFFFC0000000003FFFFC000000000000000
FFFFF00000003FFFFC0000000003FFFFC000000000000000
FFFFF00000003FFFFC0000000003FFFFC000000000000000
FFFFF00000003FFFFC0000000003FFFFC000000000000000
FFFFF00000003FFFFC0000000003FFFFC000000000000000
FFFFF00000003FFFFC0000000003FFFFC000000000000000
FFFFF00000003FFFFC0000000003FFFFC000000000000000
FFFFF00000003FFFFC0000000003FFFFC000000000000000
FFFFF00000003FFFFC0000000003FFFFC000000000000000
FFFFF00000003FFFFC0000000003FFFFC000000000000000
FFFFF00000003FFFFC0000000003FF000000000000000000
FFFFF00000003FFFFC0000000003FF000000000000000000
FFFFF00000003FFFFC0000000003FF000000000000000000
FFFFF00000003FFFFC0000000003FF000000000000000000
FFFFF00000003FFFFC0000000003FF000000000000000000
FFFFF00000003FFFFC0000000003FF000000000000000000
FFFFF00000003FFFFC0000000003FF000000000000000000
FFFFF00000003FFFFC0000000003FF000000000000000000
FFFFF00000003FFFFC0000000003FF000000000000000000
FFFFF00000003FFFFC0000000003FF000000000000000000
FFFFF00000003FFFFC0000000FFFFF000000000000000000
FFFFF00000003FFFFC0000000FFFFF000000000000000000
FFFFF00000003FFFFC0000000FFFFF000000000000000000
FFFFF00000003FFFFC0000000FFFFF000000000000000000
FFFFF00000003FFFFC0000000FFFFF000000000000000000
FFFFF00000003FFFFC0000000FFFFF000000000000000000
FFFFF00000003FFFFC0000000FFFFF000000000000000000
FFFFF00000003FFFFC0000000FFFFF000000000000000000
FFFFF00000003FFFFC0000000FFFFF000000000000000000
FFFFF00000003FFFFC0000000FFFFF000000000000000000
FFFFF00000003FFFFC00003FFFFC0000000FFFFFFFC00000
FFFFF00000003FFFFC00003FFFFC0000000FFFFFFFC00000
FFFFF00000003FFFFC00003FFFFC0000000FFFFFFFC00000
FFFFF00000003FFFFC00003FFFFC0000000FFFFFFFC00000
FFFFF00000003FFFFC00003FFFFC0000000FFFFFFFC00000
FFFFF00000003FFFFC00003FFFFC0000000FFFFFFFC00000
FFFFF00000003FFFFC00003FFFFC0000000FFFFFFFC00000
FFFFF00000003FFFFC00003FFFFC0000000FFFFFFFC00000
FFFFF00000003FFFFC00003FFFFC0000000FFFFFFFC00000
FFFFF00000003FFFFC00003FFFFC0000000FFFFFFFC00000
003FFFFC00FFFFF00000003FF00000003FFFFC00FFFFF000
003FFFFC00FFFFF00000003FF00000003FFFFC00FFFFF000
003FFFFC00FFFFF00000003FF00000003FFFFC00FFFFF000
003FFFFC00FFFFF00000003FF00000003FFFFC00FFFFF000
003FFFFC00FFFFF00000003FF00000003FFFFC00FFFFF000
003FFFFC00FFFFF00000003FF00000003FFFFC00FFFFF000
003FFFFC00FFFFF00000003FF00000003FFFFC00FFFFF000
003FFFFC00FFFFF00000003FF00000003FFFFC00FFFFF000
003FFFFC00FFFFF00000003FF00000003FFFFC00FFFFF000
003FFFFC00FFFFF00000003FF00000003FFFFC00FFFFF000
00000FFFFFFFC0000000FFFFF00000FFFFF00000003FFFFC
00000FFFFFFFC0000000FFFFF00000FFFFF00000003FFFFC
00000FFFFFFFC0000000FFFFF00000FFFFF00000003FFFFC
00000FFFFFFFC0000000FFFFF00000FFFFF00000003FFFFC
00000FFFFFFFC0000000FFFFF00000FFFFF00000003FFFFC
00000FFFFFFFC0000000FFFFF00000FFFFF00000003FFFFC
00000FFFFFFFC0000000FFFFF00000FFFFF00000003FFFFC
00000FFFFFFFC0000000FFFFF00000FFFFF00000003FFFFC
00000FFFFFFFC0000000FFFFF00000FFFFF00000003FFFFC
00000FFFFFFFC0000000FFFFF00000FFFFF00000003FFFFC
000000000000000003FFFFC0000000FFFFF00000003FFFFC
000000000000000003FFFFC0000000FFFFF00000003FFFFC
000000000000000003FFFFC0000000FFFFF00000003FFFFC
000000000000000003FFFFC0000000FFFFF00000003FFFFC
000000000000000003FFFFC0000000FFFFF00000003FFFFC
000000000000000003FFFFC0000000FFFFF00000003FFFFC
000000000000000003FFFFC0000000FFFFF00000003FFFFC
000000000000000003FFFFC0000000FFFFF00000003FFFFC
000000000000000003FFFFC0000000FFFFF00000003FFFFC
000000000000000003FFFFC0000000FFFFF00000003FFFFC
000000000000000003FF0000000000FFFFF00000003FFFFC
000000000000000003FF0000000000FFFFF00000003FFFFC
000000000000000003FF0000000000FFFFF00000003FFFFC
000000000000000003FF0000000000FFFFF00000003FFFFC
000000000000000003FF0000000000FFFFF00000003FFFFC
000000000000000003FF0000000000FFFFF00000003FFFFC
000000000000000003FF0000000000FFFFF00000003FFFFC
000000000000000003FF0000000000FFFFF00000003FFFFC
000000000000000003FF0000000000FFFFF00000003FFFFC
000000000000000003FF0000000000FFFFF00000003FFFFC
000000000000000FFFFF0000000000FFFFF00000003FFFFC
000000000000000FFFFF0000000000FFFFF00000003FFFFC
000000000000000FFFFF0000000000FFFFF00000003FFFFC
000000000000000FFFFF0000000000FFFFF00000003FFFFC
000000000000000FFFFF0000000000FFFFF00000003FFFFC
000000000000000FFFFF0000000000FFFFF00000003FFFFC
000000000000000FFFFF0000000000FFFFF00000003FFFFC
000000000000000FFFFF0000000000FFFFF00000003FFFFC
000000000000000FFFFF0000000000FFFFF00000003FFFFC
000000000000000FFFFF0000000000FFFFF00000003FFFFC
0000000000003FFFFC000000000000FFFFF00000003FFFFC
0000000000003FFFFC000000000000FFFFF00000003FFFFC
0000000000003FFFFC000000000000FFFFF00000003FFFFC
0000000000003FFFFC000000000000FFFFF00000003FFFFC
0000000000003FFFFC000000000000FFFFF00000003FFFFC
0000000000003FFFFC000000000000FFFFF00000003FFFFC
0000000000003FFFFC000000000000FFFFF00000003FFFFC
0000000000003FFFFC000000000000FFFFF00000003FFFFC
0000000000003FFFFC000000000000FFFFF00000003FFFFC
0000000000003FFFFC000000000000FFFFF00000003FFFFC
0000000000FFFFF000000000000000FFFFF00000003FFFFC
0000000000FFFFF000000000000000FFFFF00000003FFFFC
0000000000FFFFF000000000000000FFFFF00000003FFFFC
0000000000FFFFF000000000000000FFFFF00000003FFFFC
0000000000FFFFF000000000000000FFFFF00000003FFFFC
0000000000FFFFF000000000000000FFFFF00000003FFFFC
0000000000FFFFF000000000000000FFFFF00000003FFFFC
0000000000FFFFF000000000000000FFFFF00000003FFFFC
0000000000FFFFF000000000000000FFFFF00000003FFFFC
0000000000FFFFF000000000000000FFFFF00000003FFFFC
0000000000FFFFF000000000000000003FFFFC00FFFFF000
0000000000FFFFF000000000000000003FFFFC00FFFFF000
0000000000FFFFF000000000000000003FFFFC00FFFFF000
0000000000FFFFF000000000000000003FFFFC00FFFFF000
0000000000FFFFF000000000000000003FFFFC00FFFFF000
0000000000FFFFF000000000000000003FFFFC00FFFFF000
0000000000FFFFF000000000000000003FFFFC00FFFFF000
0000000000FFFFF000000000000000003FFFFC00FFFFF000
0000000000FFFFF000000000000000003FFFFC00FFFFF000
0000000000FFFFF000000000000000003FFFFC00FFFFF000
00000003FFFFC0000000000000000000000FFFFFFFC00000
00000003FFFFC0000000000000000000000FFFFFFFC00000
00000003FFFFC0000000000000000000000FFFFFFFC00000
00000003FFFFC0000000000000000000000FFFFFFFC00000
00000003FFFFC0000000000000000000000FFFFFFFC00000
00000003FFFFC0000000000000000000000FFFFFFFC00000
00000003FFFFC0000000000000000000000FFFFFFFC00000
00000003FFFFC0000000000000000000000FFFFFFFC00000
00000003FFFFC0000000000000000000000FFFFFFFC00000
00000003FFFFC0000000000000000000000FFFFFFFC00000
ENDCHAR
STARTCHAR ampersand
ENCODING 38
SWIDTH 625 0
DWIDTH 150 0
BBX 150 170 10 0
BITMAP
0000000000003FFFFFFFFFC000000000000000
0000000000003FFFFFFFFFC000000000000000
0000000000003FFFFFFFFFC000000000000000
0000000000003FFFFFFFFFC000000000000000
0000000000003FFFFFFFFFC000000000000000
0000000000003FFFFFFFFFC000000000000000
0000000000003FFFFFFFFFC000000000000000
0000000000003FFFFFFFFFC000000000000000
0000000000003FFFFFFFFFC000000000000000
0000000000003FFFFFFFFFC000000000000000
0000000000FFFFFFFFFFFFFFF0000000000000
0000000000FFFFFFFFFFFFFFF0000000000000
0000000000FFFFFFFFFFFFFFF0000000000000
0000000000FFFFFFFFFFFFFFF0000000000000
0000000000FFFFFFFFFFFFFFF0000000000000
0000000000FFFFFFFFFFFFFFF0000000000000
0000000000FFFFFFFFFFFFFFF0000000000000
0000000000FFFFFFFFFFFFFFF0000000000000
0000000000FFFFFFFFFFFFFFF0000000000000
0000000000FFFFFFFFFFFFFFF0000000000000
00000003FFFFFFF00000FFFFFFFC0000000000
00000003FFFFFFF00000FFFFFFFC0000000000
00000003FFFFFFF00000FFFFFFFC0000000000
00000003FFFFFFF00000FFFFFFFC0000000000
00000003FFFFFFF00000FFFFFFFC0000000000
00000003FFFFFFF00000FFFFFFFC0000000000
00000003FFFFFFF00000FFFFFFFC0000000000
00000003FFFFFFF00000FFFFFFFC0000000000
00000003FFFFFFF00000FFFFFFFC0000000000
00000003FFFFFFF00000FFFFFFFC0000000000
00000003FFFFC0000000003FFFFC0000000000
00000003FFFFC0000000003FFFFC0000000000
00000003FFFFC0000000003FFFFC0000000000
00000003FFFFC0000000003FFFFC0000000000
00000003FFFFC0000000003FFFFC0000000000
00000003FFFFC0000000003FFFFC0000000000
00000003FFFFC0000000003FFFFC0000000000
00000003FFFFC0000000003FFFFC0000000000
00000003FFFFC0000000003FFFFC0000000000
00000003FFFFC0000000003FFFFC0000000000
00000003FFFFC0000000003FFFFC0000000000
00000003FFFFC0000000003FFFFC0000000000
00000003FFFFC0000000003FFFFC0000000000
00000003FFFFC0000000003FFFFC0000000000
00000003FFFFC0000000003FFFFC0000000000
00000003FFFFC0000000003FFFFC0000000000
00000003FFFFC0000000003FFFFC0000000000
00000003FFFFC0000000003FFFFC0000000000
00000003FFFFC0000000003FFFFC0000000000
00000003FFFFC0000000003FFFFC0000000000
00000003FFFFC0000000FFFFF0000000000000
00000003FFFFC0000000FFFFF0000000000000
00000003FFFFC0000000FFFFF0000000000000
00000003FFFFC0000000FFFFF0000000000000
00000003FFFFC0000000FFFFF0000000000000
00000003FFFFC0000000FFFFF0000000000000
00000003FFFFC0000000FFFFF0000000000000
00000003FFFFC0000000FFFFF0000000000000
00000003FFFFC0000000FFFFF0000000000000
00000003FFFFC0000000FFFFF0000000000000
0000000000FFFFFFFFFFFFC000000000000000
0000000000FFFFFFFFFFFFC000000000000000
0000000000FFFFFFFFFFFFC000000000000000
0000000000FFFFFFFFFFFFC000000000000000
0000000000FFFFFFFFFFFFC000000000000000
0000000000FFFFFFFFFFFFC000000000000000
0000000000FFFFFFFFFFFFC000000000000000
0000000000FFFFFFFFFFFFC000000000000000
0000000000FFFFFFFFFFFFC000000000000000
0000000000FFFFFFFFFFFFC000000000000000
00000003FFFFFFFFFFFF000000000000000000
00000003FFFFFFFFFFFF000000000000000000
00000003FFFFFFFFFFFF000000000000000000
00000003FFFFFFFFFFFF000000000000000000
00000003FFFFFFFFFFFF000000000000000000
00000003FFFFFFFFFFFF000000000000000000
00000003FFFFFFFFFFFF000000000000000000
00000003FFFFFFFFFFFF000000000000000000
00000003FFFFFFFFFFFF000000000000000000
00000003FFFFFFFFFFFF000000000000000000
00000FFFFFFFFFFFFC000000000000FFFFF000
00000FFFFFFFFFFFFC000000000000FFFFF000
00000FFFFFFFFFFFFC000000000000FFFFF000
00000FFFFFFFFFFFFC000000000000FFFFF000
00000FFFFFFFFFFFFC000000000000FFFFF000
00000FFFFFFFFFFFFC000000000000FFFFF000
00000FFFFFFFFFFFFC000000000000FFFFF000
00000FFFFFFFFFFFFC000000000000FFFFF000
00000FFFFFFFFFFFFC000000000000FFFFF000
00000FFFFFFFFFFFFC000000000000FFFFF000
003FFFFC00003FFFFC000000000000FFFFF000
003FFFFC00003FFFFC000000000000FFFFF000
003FFFFC00003FFFFC000000000000FFFFF000
003FFFFC00003FFFFC000000000000FFFFF000
003FFFFC00003FFFFC000000000000FFFFF000
003FFFFC00003FFFFC000000000000FFFFF000
003FFFFC00003FFFFC000000000000FFFFF000
003FFFFC00003FFFFC000000000000FFFFF000
003FFFFC00003FFFFC000000000000FFFFF000
003FFFFC00003FFFFC000000000000FFFFF000
FFFFF0000000000FFFFF00000003FFFFC00000
FFFFF0000000000FFFFF00000003FFFFC00000
FFFFF0000000000FFFFF00000003FFFFC00000
FFFFF0000000000FFFFF00000003FFFFC00000
FFFFF0000000000FFFFF00000003FFFFC00000
FFFFF0000000000FFFFF00000003FFFFC00000
FFFFF0000000000FFFFF00000003FFFFC00000
FFFFF0000000000FFFFF00000003FFFFC00000
FFFFF0000000000FFFFF00000003FFFFC00000
FFFFF0000000000FFFFF00000003FFFFC00000
FFFFF0000000000FFFFFFFC00003FFFFC00000
FFFFF0000000000FFFFFFFC00003FFFFC00000
FFFFF0000000000FFFFFFFC00003FFFFC00000
FFFFF0000000000FFFFFFFC00003FFFFC00000
FFFFF0000000000FFFFFFFC00003FFFFC00000
FFFFF0000000000FFFFFFFC00003FFFFC00000
FFFFF0000000000FFFFFFFC00003FFFFC00000
FFFFF0000000000FFFFFFFC00003FFFFC00000
FFFFF0000000000FFFFFFFC00003FFFFC00000
FFFFF0000000000FFFFFFFC00003FFFFC00000
FFFFF0000000000003FFFFFFFFFFFF00000000
FFFFF0000000000003FFFFFFFFFFFF00000000
FFFFF0000000000003FFFFFFFFFFFF00000000
FFFFF0000000000003FFFFFFFFFFFF00000000
FFFFF0000000000003FFFFFFFFFFFF00000000
FFFFF0000000000003FFFFFFFFFFFF00000000
FFFFF0000000000003FFFFFFFFFFFF00000000
FFFFF0000000000003FFFFFFFFFFFF00000000
FFFFF0000000000003FFFFFFFFFFFF00000000
FFFFF0000000000003FFFFFFFFFFFF00000000
FFFFF000000000000000FFFFFFFFFF00000000
FFFFF000000000000000FFFFFFFFFF00000000
FFFFF000000000000000FFFFFFFFFF00000000
FFFFF000000000000000FFFFFFFFFF00000000
FFFFF000000000000000FFFFFFFFFF00000000
FFFFF000000000000000FFFFFFFFFF00000000
FFFFF000000000000000FFFFFFFFFF00000000
FFFFF000000000000000FFFFFFFFFF00000000
FFFFF000000000000000FFFFFFFFFF00000000
FFFFF000000000000000FFFFFFFFFF00000000
FFFFFFFC000000000000FFFFFFFFFF00000000
FFFFFFFC000000000000FFFFFFFFFF00000000
FFFFFFFC000000000000FFFFFFFFFF00000000
FFFFFFFC000000000000FFFFFFFFFF00000000
FFFFFFFC000000000000FFFFFFFFFF00000000
FFFFFFFC000000000000FFFFFFFFFF00000000
FFFFFFFC000000000000FFFFFFFFFF00000000
FFFFFFFC000000000000FFFFFFFFFF00000000
FFFFFFFC000000000000FFFFFFFFFF00000000
FFFFFFFC000000000000FFFFFFFFFF00000000
003FFFFFFFFFFFFFFFFFFFFFFFFFFFFFFFFFFC
003FFFFFFFFFFFFFFFFFFFFFFFFFFFFFFFFFFC
003FFFFFFFFFFFFFFFFFFFFFFFFFFFFFFFFFFC
003FFFFFFFFFFFFFFFFFFFFFFFFFFFFFFFFFFC
003FFFFFFFFFFFFFFFFFFFFFFFFFFFFFFFFFFC
003FFFFFFFFFFFFFFFFFFFFFFFFFFFFFFFFFFC
003FFFFFFFFFFFFFFFFFFFFFFFFFFFFFFFFFFC
003FFFFFFFFFFFFFFFFFFFFFFFFFFFFFFFFFFC
003FFFFFFFFFFFFFFFFFFFFFFFFFFFFFFFFFFC
003FFFFFFFFFFFFFFFFFFFFFFFFFFFFFFFFFFC
00000FFFFFFFFFFFFFFF00000003FFFFFFFFFC
00000FFFFFFFFFFFFFFF00000003FFFFFFFFFC
00000FFFFFFFFFFFFFFF00000003FFFFFFFFFC
00000FFFFFFFFFFFFFFF00000003FFFFFFFFFC
00000FFFFFFFFFFFFFFF00000003FFFFFFFFFC
00000FFFFFFFFFFFFFFF00000003FFFFFFFFFC
00000FFFFFFFFFFFFFFF00000003FFFFFFFFFC
00000FFFFFFFFFFFFFFF00000003FFFFFFFFFC
00000FFFFFFFFFFFFFFF00000003FFFFFFFFFC
00000FFFFFFFFFFFFFFF00000003FFFFFFFFFC
ENDCHAR
STARTCHAR quotesingle
ENCODING 39
SWIDTH 166 0
DWIDTH 40 0
BBX 20 50 10 120
BITMAP
FFFFF0
FFFFF0
FFFFF0
FFFFF0
FFFFF0
FFFFF0
FFFFF0
FFFFF0
FFFFF0
FFFFF0
FFFFF0
FFFFF0
FFFFF0
FFFFF0
FFFFF0
FFFFF0
FFFFF0
FFFFF0
FFFFF0
FFFFF0
FFFFF0
FFFFF0
FFFFF0
FFFFF0
FFFFF0
FFFFF0
FFFFF0
FFFFF0
FFFFF0
FFFFF0
FFFFF0
FFFFF0
FFFFF0
FFFFF0
FFFFF0
FFFFF0
FFFFF0
FFFFF0
FFFFF0
FFFFF0
FFFFF0
FFFFF0
FFFFF0
FFFFF0
FFFFF0
FFFFF0
FFFFF0
FFFFF0
FFFFF0
FFFFF0
ENDCHAR
STARTCHAR parenleft
ENCODING 40
SWIDTH 291 0
DWIDTH 70 0
BBX 60 220 10 -50
BITMAP
0000000000FFFFF0
0000000000FFFFF0
0000000000FFFFF0
0000000000FFFFF0
0000000000FFFFF0
0000000000FFFFF0
0000000000FFFFF0
0000000000FFFFF0
0000000000FFFFF0
0000000000FFFFF0
00000003FFFFC000
00000003FFFFC000
00000003FFFFC000
00000003FFFFC000
00000003FFFFC000
00000003FFFFC000
00000003FFFFC000
00000003FFFFC000
00000003FFFFC000
00000003FFFFC000
00000FFFFF000000
00000FFFFF000000
00000FFFFF000000
00000FFFFF000000
00000FFFFF000000
00000FFFFF000000
00000FFFFF000000
00000FFFFF000000
00000FFFFF000000
00000FFFFF000000
00000FFFFF000000
00000FFFFF000000
00000FFFFF000000
00000FFFFF000000
00000FFFFF000000
00000FFFFF000000
00000FFFFF000000
00000FFFFF000000
00000FFFFF000000
00000FFFFF000000
003FFFFC00000000
003FFFFC00000000
003FFFFC00000000
003FFFFC00000000
003FFFFC00000000
003FFFFC00000000
003FFFFC00000000
003FFFFC00000000
003FFFFC00000000
003FFFFC00000000
003FFFFC00000000
003FFFFC00000000
003FFFFC00000000
003FFFFC00000000
003FFFFC00000000
003FFFFC00000000
003FFFFC00000000
003FFFFC00000000
003FFFFC00000000
003FFFFC00000000
003FFFFC00000000
003FFFFC00000000
003FFFFC00000000
003FFFFC00000000
003FFFFC00000000
003FFFFC00000000
003FFFFC00000000
003FFFFC00000000
003FFFFC00000000
003FFFFC00000000
FFFFF00000000000
FFFFF00000000000
FFFFF00000000000
FFFFF00000000000
FFFFF00000000000
FFFFF00000000000
FFFFF00000000000
FFFFF00000000000
FFFFF00000000000
FFFFF00000000000
FFFFF00000000000
FFFFF00000000000
FFFFF00000000000
FFFFF00000000000
FFFFF00000000000
FFFFF00000000000
FFFFF00000000000
FFFFF00000000000
FFFFF00000000000
FFFFF00000000000
FFFFF00000000000
FFFFF00000000000
FFFFF00000000000
FFFFF00000000000
FFFFF00000000000
FFFFF00000000000
FFFFF00000000000
FFFFF00000000000
FFFFF00000000000
FFFFF00000000000
FFFFF00000000000
FFFFF00000000000
FFFFF00000000000
FFFFF00000000000
FFFFF00000000000
FFFFF00000000000
FFFFF00000000000
FFFFF00000000000
FFFFF00000000000
FFFFF00000000000
FFFFF00000000000
FFFFF00000000000
FFFFF00000000000
FFFFF00000000000
FFFFF00000000000
FFFFF00000000000
FFFFF00000000000
FFFFF00000000000
FFFFF00000000000
FFFFF00000000000
FFFFF00000000000
FFFFF00000000000
FFFFF00000000000
FFFFF00000000000
FFFFF00000000000
FFFFF00000000000
FFFFF00000000000
FFFFF00000000000
FFFFF00000000000
FFFFF00000000000
FFFFF00000000000
FFFFF00000000000
FFFFF00000000000
FFFFF00000000000
FFFFF00000000000
FFFFF00000000000
FFFFF00000000000
FFFFF00000000000
FFFFF00000000000
FFFFF00000000000
FFFFF00000000000
FFFFF00000000000
FFFFF00000000000
FFFFF00000000000
FFFFF00000000000
FFFFF00000000000
FFFFF00000000000
FFFFF00000000000
FFFFF00000000000
FFFFF00000000000
003FFFFC00000000
003FFFFC00000000
003FFFFC00000000
003FFFFC00000000
003FFFFC00000000
003FFFFC00000000
003FFFFC00000000
003FFFFC00000000
003FFFFC00000000
003FFFFC00000000
003FFFFC00000000
003FFFFC00000000
003FFFFC00000000
003FFFFC00000000
003FFFFC00000000
003FFFFC00000000
003FFFFC00000000
003FFFFC00000000
003FFFFC00000000
003FFFFC00000000
003FFFFC00000000
003FFFFC00000000
003FFFFC00000000
003FFFFC00000000
003FFFFC00000000
003FFFFC00000000
003FFFFC00000000
003FFFFC00000000
003FFFFC00000000
003FFFFC00000000
00000FFFFF000000
00000FFFFF000000
00000FFFFF000000
00000FFFFF000000
00000FFFFF000000
00000FFFFF000000
00000FFFFF000000
00000FFFFF000000
00000FFFFF000000
00000FFFFF000000
00000FFFFF000000
00000FFFFF000000
00000FFFFF000000
00000FFFFF000000
00000FFFFF000000
00000FFFFF000000
00000FFFFF000000
00000FFFFF000000
00000FFFFF000000
00000FFFFF000000
00000003FFFFC000
00000003FFFFC000
00000003FFFFC000
00000003FFFFC000
00000003FFFFC000
00000003FFFFC000
00000003FFFFC000
00000003FFFFC000
00000003FFFFC000
00000003FFFFC000
0000000000FFFFF0
0000000000FFFFF0
0000000000FFFFF0
0000000000FFFFF0
0000000000FFFFF0
0000000000FFFFF0
0000000000FFFFF0
0000000000FFFFF0
0000000000FFFFF0
0000000000FFFFF0
ENDCHAR
STARTCHAR parenright
ENCODING 41
SWIDTH 291 0
DWIDTH 70 0
BBX 60 220 0 -50
BITMAP
FFFFF00000000000
FFFFF00000000000
FFFFF00000000000
FFFFF00000000000
FFFFF00000000000
FFFFF00000000000
FFFFF00000000000
FFFFF00000000000
FFFFF00000000000
FFFFF00000000000
003FFFFC00000000
003FFFFC00000000
003FFFFC00000000
003FFFFC00000000
003FFFFC00000000
003FFFFC00000000
003FFFFC00000000
003FFFFC00000000
003FFFFC00000000
003FFFFC00000000
00000FFFFF000000
00000FFFFF000000
00000FFFFF000000
00000FFFFF000000
00000FFFFF000000
00000FFFFF000000
00000FFFFF000000
00000FFFFF000000
00000FFFFF000000
00000FFFFF000000
00000FFFFF000000
00000FFFFF000000
00000FFFFF000000
00000FFFFF000000
00000FFFFF000000
00000FFFFF000000
00000FFFFF000000
00000FFFFF000000
00000FFFFF000000
00000FFFFF000000
00000003FFFFC000
00000003FFFFC000
00000003FFFFC000
00000003FFFFC000
00000003FFFFC000
00000003FFFFC000
00000003FFFFC000
00000003FFFFC000
00000003FFFFC000
00000003FFFFC000
00000003FFFFC000
00000003FFFFC000
00000003FFFFC000
00000003FFFFC000
00000003FFFFC000
00000003FFFFC000
00000003FFFFC000
00000003FFFFC000
00000003FFFFC000
00000003FFFFC000
00000003FFFFC000
00000003FFFFC000
00000003FFFFC000
00000003FFFFC000
00000003FFFFC000
00000003FFFFC000
00000003FFFFC000
00000003FFFFC000
00000003FFFFC000
00000003FFFFC000
0000000000FFFFF0
0000000000FFFFF0
0000000000FFFFF0
0000000000FFFFF0
0000000000FFFFF0
0000000000FFFFF0
0000000000FFFFF0
0000000000FFFFF0
0000000000FFFFF0
0000000000FFFFF0
0000000000FFFFF0
0000000000FFFFF0
0000000000FFFFF0
0000000000FFFFF0
0000000000FFFFF0
0000000000FFFFF0
0000000000FFFFF0
0000000000FFFFF0
0000000000FFFFF0
0000000000FFFFF0
0000000000FFFFF0
0000000000FFFFF0
0000000000FFFFF0
0000000000FFFFF0
0000000000FFFFF0
0000000000FFFFF0
0000000000FFFFF0
0000000000FFFFF0
0000000000FFFFF0
0000000000FFFFF0
0000000000FFFFF0
0000000000FFFFF0
0000000000FFFFF0
0000000000FFFFF0
0000000000FFFFF0
0000000000FFFFF0
0000000000FFFFF0
0000000000FFFFF0
0000000000FFFFF0
0000000000FFFFF0
0000000000FFFFF0
0000000000FFFFF0
0000000000FFFFF0
0000000000FFFFF0
0000000000FFFFF0
0000000000FFFFF0
0000000000FFFFF0
0000000000FFFFF0
0000000000FFFFF0
0000000000FFFFF0
0000000000FFFFF0
0000000000FFFFF0
0000000000FFFFF0
0000000000FFFFF0
0000000000FFFFF0
0000000000FFFFF0
0000000000FFFFF0
0000000000FFFFF0
0000000000FFFFF0
0000000000FFFFF0
0000000000FFFFF0
0000000000FFFFF0
0000000000FFFFF0
0000000000FFFFF0
0000000000FFFFF0
0000000000FFFFF0
0000000000FFFFF0
0000000000FFFFF0
0000000000FFFFF0
0000000000FFFFF0
0000000000FFFFF0
0000000000FFFFF0
0000000000FFFFF0
0000000000FFFFF0
0000000000FFFFF0
0000000000FFFFF0
0000000000FFFFF0
0000000000FFFFF0
0000000000FFFFF0
0000000000FFFFF0
00000003FFFFC000
00000003FFFFC000
00000003FFFFC000
00000003FFFFC000
00000003FFFFC000
00000003FFFFC000
00000003FFFFC000
00000003FFFFC000
00000003FFFFC000
00000003FFFFC000
00000003FFFFC000
00000003FFFFC000
00000003FFFFC000
00000003FFFFC000
00000003FFFFC000
00000003FFFFC000
00000003FFFFC000
00000003FFFFC000
00000003FFFFC000
00000003FFFFC000
00000003FFFFC000
00000003FFFFC000
00000003FFFFC000
00000003FFFFC000
00000003FFFFC000
00000003FFFFC000
00000003FFFFC000
00000003FFFFC000
00000003FFFFC000
00000003FFFFC000
00000FFFFF000000
00000FFFFF000000
00000FFFFF000000
00000FFFFF000000
00000FFFFF000000
00000FFFFF000000
00000FFFFF000000
00000FFFFF000000
00000FFFFF000000
00000FFFFF000000
00000FFFFF000000
00000FFFFF000000
00000FFFFF000000
00000FFFFF000000
00000FFFFF000000
00000FFFFF000000
00000FFFFF000000
00000FFFFF000000
00000FFFFF000000
00000FFFFF000000
003FFFFC00000000
003FFFFC00000000
003FFFFC00000000
003FFFFC00000000
003FFFFC00000000
003FFFFC00000000
003FFFFC00000000
003FFFFC00000000
003FFFFC00000000
003FFFFC00000000
FFFFF00000000000
FFFFF00000000000
FFFFF00000000000
FFFFF00000000000
FFFFF00000000000
FFFFF00000000000
FFFFF00000000000
FFFFF00000000000
FFFFF00000000000
FFFFF00000000000
ENDCHAR
STARTCHAR asterisk
ENCODING 42
SWIDTH 375 0
DWIDTH 90 0
BBX 90 90 0 80
BITMAP
0000000000FFFFF000000000
0000000000FFFFF000000000
0000000000FFFFF000000000
0000000000FFFFF000000000
0000000000FFFFF000000000
0000000000FFFFF000000000
0000000000FFFFF000000000
0000000000FFFFF000000000
0000000000FFFFF000000000
0000000000FFFFF000000000
0000000000FFFFF000000000
0000000000FFFFF000000000
0000000000FFFFF000000000
0000000000FFFFF000000000
0000000000FFFFF000000000
0000000000FFFFF000000000
0000000000FFFFF000000000
0000000000FFFFF000000000
0000000000FFFFF000000000
0000000000FFFFF000000000
0000000000FFFFF00000FFC0
0000000000FFFFF00000FFC0
0000000000FFFFF00000FFC0
0000000000FFFFF00000FFC0
0000000000FFFFF00000FFC0
0000000000FFFFF00000FFC0
0000000000FFFFF00000FFC0
0000000000FFFFF00000FFC0
0000000000FFFFF00000FFC0
0000000000FFFFF00000FFC0
FFFFFFFFFFFFFFFFFFFFFFC0
FFFFFFFFFFFFFFFFFFFFFFC0
FFFFFFFFFFFFFFFFFFFFFFC0
FFFFFFFFFFFFFFFFFFFFFFC0
FFFFFFFFFFFFFFFFFFFFFFC0
FFFFFFFFFFFFFFFFFFFFFFC0
FFFFFFFFFFFFFFFFFFFFFFC0
FFFFFFFFFFFFFFFFFFFFFFC0
FFFFFFFFFFFFFFFFFFFFFFC0
FFFFFFFFFFFFFFFFFFFFFFC0
00000FFFFFFFFFFFFFFF0000
00000FFFFFFFFFFFFFFF0000
00000FFFFFFFFFFFFFFF0000
00000FFFFFFFFFFFFFFF0000
00000FFFFFFFFFFFFFFF0000
00000FFFFFFFFFFFFFFF0000
00000FFFFFFFFFFFFFFF0000
00000FFFFFFFFFFFFFFF0000
00000FFFFFFFFFFFFFFF0000
00000FFFFFFFFFFFFFFF0000
00000003FFFFFFF000000000
00000003FFFFFFF000000000
00000003FFFFFFF000000000
00000003FFFFFFF000000000
00000003FFFFFFF000000000
00000003FFFFFFF000000000
00000003FFFFFFF000000000
00000003FFFFFFF000000000
00000003FFFFFFF000000000
00000003FFFFFFF000000000
00000003FFFFFFFFFC000000
00000003FFFFFFFFFC000000
00000003FFFFFFFFFC000000
00000003FFFFFFFFFC000000
00000003FFFFFFFFFC000000
00000003FFFFFFFFFC000000
00000003FFFFFFFFFC000000
00000003FFFFFFFFFC000000
00000003FFFFFFFFFC000000
00000003FFFFFFFFFC000000
00000FFFFF00000FFFFF0000
00000FFFFF00000FFFFF0000
00000FFFFF00000FFFFF0000
00000FFFFF00000FFFFF0000
00000FFFFF00000FFFFF0000
00000FFFFF00000FFFFF0000
00000FFFFF00000FFFFF0000
00000FFFFF00000FFFFF0000
00000FFFFF00000FFFFF0000
00000FFFFF00000FFFFF0000
00000003FF00000FFC000000
00000003FF00000FFC000000
00000003FF00000FFC000000
00000003FF00000FFC000000
00000003FF00000FFC000000
00000003FF00000FFC000000
00000003FF00000FFC000000
00000003FF00000FFC000000
00000003FF00000FFC000000
00000003FF00000FFC000000
ENDCHAR
STARTCHAR plus
ENCODING 43
SWIDTH 541 0
DWIDTH 130 0
BBX 120 120 10 20
BITMAP
0000000000003FFFFC000000000000
0000000000003FFFFC000000000000
0000000000003FFFFC000000000000
0000000000003FFFFC000000000000
0000000000003FFFFC000000000000
0000000000003FFFFC000000000000
0000000000003FFFFC000000000000
0000000000003FFFFC000000000000
0000000000003FFFFC000000000000
0000000000003FFFFC000000000000
0000000000003FFFFC000000000000
0000000000003FFFFC000000000000
0000000000003FFFFC000000000000
0000000000003FFFFC000000000000
0000000000003FFFFC000000000000
0000000000003FFFFC000000000000
0000000000003FFFFC000000000000
0000000000003FFFFC000000000000
0000000000003FFFFC000000000000
0000000000003FFFFC000000000000
0000000000003FFFFC000000000000
0000000000003FFFFC000000000000
0000000000003FFFFC000000000000
0000000000003FFFFC000000000000
0000000000003FFFFC000000000000
0000000000003FFFFC000000000000
0000000000003FFFFC000000000000
0000000000003FFFFC000000000000
0000000000003FFFFC000000000000
0000000000003FFFFC000000000000
0000000000003FFFFC000000000000
0000000000003FFFFC000000000000
0000000000003FFFFC000000000000
0000000000003FFFFC000000000000
0000000000003FFFFC000000000000
0000000000003FFFFC000000000000
0000000000003FFFFC000000000000
0000000000003FFFFC000000000000
0000000000003FFFFC000000000000
0000000000003FFFFC000000000000
0000000000003FFFFC000000000000
0000000000003FFFFC000000000000
0000000000003FFFFC000000000000
0000000000003FFFFC000000000000
0000000000003FFFFC000000000000
0000000000003FFFFC000000000000
0000000000003FFFFC000000000000
0000000000003FFFFC000000000000
0000000000003FFFFC000000000000
0000000000003FFFFC000000000000
FFFFFFFFFFFFFFFFFFFFFFFFFFFFFF
FFFFFFFFFFFFFFFFFFFFFFFFFFFFFF
FFFFFFFFFFFFFFFFFFFFFFFFFFFFFF
FFFFFFFFFFFFFFFFFFFFFFFFFFFFFF
FFFFFFFFFFFFFFFFFFFFFFFFFFFFFF
FFFFFFFFFFFFFFFFFFFFFFFFFFFFFF
FFFFFFFFFFFFFFFFFFFFFFFFFFFFFF
FFFFFFFFFFFFFFFFFFFFFFFFFFFFFF
FFFFFFFFFFFFFFFFFFFFFFFFFFFFFF
FFFFFFFFFFFFFFFFFFFFFFFFFFFFFF
FFFFFFFFFFFFFFFFFFFFFFFFFFFFFF
FFFFFFFFFFFFFFFFFFFFFFFFFFFFFF
FFFFFFFFFFFFFFFFFFFFFFFFFFFFFF
FFFFFFFFFFFFFFFFFFFFFFFFFFFFFF
FFFFFFFFFFFFFFFFFFFFFFFFFFFFFF
FFFFFFFFFFFFFFFFFFFFFFFFFFFFFF
FFFFFFFFFFFFFFFFFFFFFFFFFFFFFF
FFFFFFFFFFFFFFFFFFFFFFFFFFFFFF
FFFFFFFFFFFFFFFFFFFFFFFFFFFFFF
FFFFFFFFFFFFFFFFFFFFFFFFFFFFFF
0000000000003FFFFC000000000000
0000000000003FFFFC000000000000
0000000000003FFFFC000000000000
0000000000003FFFFC000000000000
0000000000003FFFFC000000000000
0000000000003FFFFC000000000000
0000000000003FFFFC000000000000
0000000000003FFFFC000000000000
0000000000003FFFFC000000000000
0000000000003FFFFC000000000000
0000000000003FFFFC000000000000
0000000000003FFFFC000000000000
0000000000003FFFFC000000000000
0000000000003FFFFC000000000000
0000000000003FFFFC000000000000
0000000000003FFFFC000000000000
0000000000003FFFFC000000000000
0000000000003FFFFC000000000000
0000000000003FFFFC000000000000
0000000000003FFFFC000000000000
0000000000003FFFFC000000000000
0000000000003FFFFC000000000000
0000000000003FFFFC000000000000
0000000000003FFFFC000000000000
0000000000003FFFFC000000000000
0000000000003FFFFC000000000000
0000000000003FFFFC000000000000
0000000000003FFFFC000000000000
0000000000003FFFFC000000000000
0000000000003FFFFC000000000000
0000000000003FFFFC000000000000
0000000000003FFFFC000000000000
0000000000003FFFFC000000000000
0000000000003FFFFC000000000000
0000000000003FFFFC000000000000
0000000000003FFFFC000000000000
0000000000003FFFFC000000000000
0000000000003FFFFC000000000000
0000000000003FFFFC000000000000
0000000000003FFFFC000000000000
0000000000003FFFFC000000000000
0000000000003FFFFC000000000000
0000000000003FFFFC000000000000
0000000000003FFFFC000000000000
0000000000003FFFFC000000000000
0000000000003FFFFC000000000000
0000000000003FFFFC000000000000
0000000000003FFFFC000000000000
0000000000003FFFFC000000000000
0000000000003FFFFC000000000000
ENDCHAR
STARTCHAR comma
ENCODING 44
SWIDTH 250 0
DWIDTH 60 0
BBX 20 60 20 -30
BITMAP
FFFFF0
FFFFF0
FFFFF0
FFFFF0
FFFFF0
FFFFF0
FFFFF0
FFFFF0
FFFFF0
FFFFF0
FFFFF0
FFFFF0
FFFFF0
FFFFF0
FFFFF0
FFFFF0
FFFFF0
FFFFF0
FFFFF0
FFFFF0
FFFFF0
FFFFF0
FFFFF0
FFFFF0
FFFFF0
FFFFF0
FFFFF0
FFFFF0
FFFFF0
FFFFF0
003FF0
003FF0
003FF0
003FF0
003FF0
003FF0
003FF0
003FF0
003FF0
003FF0
003FF0
003FF0
003FF0
003FF0
003FF0
003FF0
003FF0
003FF0
003FF0
003FF0
FFC000
FFC000
FFC000
FFC000
FFC000
FFC000
FFC000
FFC000
FFC000
FFC000
ENDCHAR
STARTCHAR hyphen
ENCODING 45
SWIDTH 291 0
DWIDTH 70 0
BBX 60 20 10 50
BITMAP
FFFFFFFFFFFFFFF0
FFFFFFFFFFFFFFF0
FFFFFFFFFFFFFFF0
FFFFFFFFFFFFFFF0
FFFFFFFFFFFFFFF0
FFFFFFFFFFFFFFF0
FFFFFFFFFFFFFFF0
FFFFFFFFFFFFFFF0
FFFFFFFFFFFFFFF0
FFFFFFFFFFFFFFF0
FFFFFFFFFFFFFFF0
FFFFFFFFFFFFFFF0
FFFFFFFFFFFFFFF0
FFFFFFFFFFFFFFF0
FFFFFFFFFFFFFFF0
FFFFFFFFFFFFFFF0
FFFFFFFFFFFFFFF0
FFFFFFFFFFFFFFF0
FFFFFFFFFFFFFFF0
FFFFFFFFFFFFFFF0
ENDCHAR
STARTCHAR period
ENCODING 46
SWIDTH 250 0
DWIDTH 60 0
BBX 20 30 20 0
BITMAP
FFFFF0
FFFFF0
FFFFF0
FFFFF0
FFFFF0
FFFFF0
FFFFF0
FFFFF0
FFFFF0
FFFFF0
FFFFF0
FFFFF0
FFFFF0
FFFFF0
FFFFF0
FFFFF0
FFFFF0
FFFFF0
FFFFF0
FFFFF0
FFFFF0
FFFFF0
FFFFF0
FFFFF0
FFFFF0
FFFFF0
FFFFF0
FFFFF0
FFFFF0
FFFFF0
ENDCHAR
STARTCHAR slash
ENCODING 47
SWIDTH 250 0
DWIDTH 60 0
BBX 70 170 0 0
BITMAP
0000000000003FFFFC
0000000000003FFFFC
0000000000003FFFFC
0000000000003FFFFC
0000000000003FFFFC
0000000000003FFFFC
0000000000003FFFFC
0000000000003FFFFC
0000000000003FFFFC
0000000000003FFFFC
0000000000003FFFFC
0000000000003FFFFC
0000000000003FFFFC
0000000000003FFFFC
0000000000003FFFFC
0000000000003FFFFC
0000000000003FFFFC
0000000000003FFFFC
0000000000003FFFFC
0000000000003FFFFC
0000000000FFFFF000
0000000000FFFFF000
0000000000FFFFF000
0000000000FFFFF000
0000000000FFFFF000
0000000000FFFFF000
0000000000FFFFF000
0000000000FFFFF000
0000000000FFFFF000
0000000000FFFFF000
0000000000FFFFF000
0000000000FFFFF000
0000000000FFFFF000
0000000000FFFFF000
0000000000FFFFF000
0000000000FFFFF000
0000000000FFFFF000
0000000000FFFFF000
0000000000FFFFF000
0000000000FFFFF000
0000000000FFFFF000
0000000000FFFFF000
0000000000FFFFF000
0000000000FFFFF000
0000000000FFFFF000
0000000000FFFFF000
0000000000FFFFF000
0000000000FFFFF000
0000000000FFFFF000
0000000000FFFFF000
00000003FFFFC00000
00000003FFFFC00000
00000003FFFFC00000
00000003FFFFC00000
00000003FFFFC00000
00000003FFFFC00000
00000003FFFFC00000
00000003FFFFC00000
00000003FFFFC00000
00000003FFFFC00000
00000003FFFFC00000
00000003FFFFC00000
00000003FFFFC00000
00000003FFFFC00000
00000003FFFFC00000
00000003FFFFC00000
00000003FFFFC00000
00000003FFFFC00000
00000003FFFFC00000
00000003FFFFC00000
00000003FFFFC00000
00000003FFFFC00000
00000003FFFFC00000
00000003FFFFC00000
00000003FFFFC00000
00000003FFFFC00000
00000003FFFFC00000
00000003FFFFC00000
00000003FFFFC00000
00000003FFFFC00000
00000FFFFF00000000
00000FFFFF00000000
00000FFFFF00000000
00000FFFFF00000000
00000FFFFF00000000
00000FFFFF00000000
00000FFFFF00000000
00000FFFFF00000000
00000FFFFF00000000
00000FFFFF00000000
00000FFFFF00000000
00000FFFFF00000000
00000FFFFF00000000
00000FFFFF00000000
00000FFFFF00000000
00000FFFFF00000000
00000FFFFF00000000
00000FFFFF00000000
00000FFFFF00000000
00000FFFFF00000000
00000FFFFF00000000
00000FFFFF00000000
00000FFFFF00000000
00000FFFFF00000000
00000FFFFF00000000
00000FFFFF00000000
00000FFFFF00000000
00000FFFFF00000000
00000FFFFF00000000
00000FFFFF00000000
003FFFFFFF00000000
003FFFFFFF00000000
003FFFFFFF00000000
003FFFFFFF00000000
003FFFFFFF00000000
003FFFFFFF00000000
003FFFFFFF00000000
003FFFFFFF00000000
003FFFFFFF00000000
003FFFFFFF00000000
003FFFFC0000000000
003FFFFC0000000000
003FFFFC0000000000
003FFFFC0000000000
003FFFFC0000000000
003FFFFC0000000000
003FFFFC0000000000
003FFFFC0000000000
003FFFFC0000000000
003FFFFC0000000000
003FFFFC0000000000
003FFFFC0000000000
003FFFFC0000000000
003FFFFC0000000000
003FFFFC0000000000
003FFFFC0000000000
003FFFFC0000000000
003FFFFC0000000000
003FFFFC0000000000
003FFFFC0000000000
003FFFFC0000000000
003FFFFC0000000000
003FFFFC0000000000
003FFFFC0000000000
003FFFFC0000000000
003FFFFC0000000000
003FFFFC0000000000
003FFFFC0000000000
003FFFFC0000000000
003FFFFC0000000000
FFFFF0000000000000
FFFFF0000000000000
FFFFF0000000000000
FFFFF0000000000000
FFFFF0000000000000
FFFFF0000000000000
FFFFF0000000000000
FFFFF0000000000000
FFFFF0000000000000
FFFFF0000000000000
FFFFF0000000000000
FFFFF0000000000000
FFFFF0000000000000
FFFFF0000000000000
FFFFF0000000000000
FFFFF0000000000000
FFFFF0000000000000
FFFFF0000000000000
FFFFF0000000000000
FFFFF0000000000000
ENDCHAR
STARTCHAR zero
ENCODING 48
SWIDTH 541 0
DWIDTH 130 0
BBX 110 170 10 0
BITMAP
00000003FFFFFFFFFFFF00000000
00000003FFFFFFFFFFFF00000000
00000003FFFFFFFFFFFF00000000
00000003FFFFFFFFFFFF00000000
00000003FFFFFFFFFFFF00000000
00000003FFFFFFFFFFFF00000000
00000003FFFFFFFFFFFF00000000
00000003FFFFFFFFFFFF00000000
00000003FFFFFFFFFFFF00000000
00000003FFFFFFFFFFFF00000000
00000FFFFFFFFFFFFFFFFFC00000
00000FFFFFFFFFFFFFFFFFC00000
00000FFFFFFFFFFFFFFFFFC00000
00000FFFFFFFFFFFFFFFFFC00000
00000FFFFFFFFFFFFFFFFFC00000
00000FFFFFFFFFFFFFFFFFC00000
00000FFFFFFFFFFFFFFFFFC00000
00000FFFFFFFFFFFFFFFFFC00000
00000FFFFFFFFFFFFFFFFFC00000
00000FFFFFFFFFFFFFFFFFC00000
003FFFFFFF00000003FFFFFFF000
003FFFFFFF00000003FFFFFFF000
003FFFFFFF00000003FFFFFFF000
003FFFFFFF00000003FFFFFFF000
003FFFFFFF00000003FFFFFFF000
003FFFFFFF00000003FFFFFFF000
003FFFFFFF00000003FFFFFFF000
003FFFFFFF00000003FFFFFFF000
003FFFFFFF00000003FFFFFFF000
003FFFFFFF00000003FFFFFFF000
003FFFFC000000000000FFFFF000
003FFFFC000000000000FFFFF000
003FFFFC000000000000FFFFF000
003FFFFC000000000000FFFFF000
003FFFFC000000000000FFFFF000
003FFFFC000000000000FFFFF000
003FFFFC000000000000FFFFF000
003FFFFC000000000000FFFFF000
003FFFFC000000000000FFFFF000
003FFFFC000000000000FFFFF000
FFFFF000000000000000003FFFFC
FFFFF000000000000000003FFFFC
FFFFF000000000000000003FFFFC
FFFFF000000000000000003FFFFC
FFFFF000000000000000003FFFFC
FFFFF000000000000000003FFFFC
FFFFF000000000000000003FFFFC
FFFFF000000000000000003FFFFC
FFFFF000000000000000003FFFFC
FFFFF000000000000000003FFFFC
FFFFF000000000000000003FFFFC
FFFFF000000000000000003FFFFC
FFFFF000000000000000003FFFFC
FFFFF000000000000000003FFFFC
FFFFF000000000000000003FFFFC
FFFFF000000000000000003FFFFC
FFFFF000000000000000003FFFFC
FFFFF000000000000000003FFFFC
FFFFF000000000000000003FFFFC
FFFFF000000000000000003FFFFC
FFFFF000000000000000003FFFFC
FFFFF000000000000000003FFFFC
FFFFF000000000000000003FFFFC
FFFFF000000000000000003FFFFC
FFFFF000000000000000003FFFFC
FFFFF000000000000000003FFFFC
FFFFF000000000000000003FFFFC
FFFFF000000000000000003FFFFC
FFFFF000000000000000003FFFFC
FFFFF000000000000000003FFFFC
FFFFF000000000000000003FFFFC
FFFFF000000000000000003FFFFC
FFFFF000000000000000003FFFFC
FFFFF000000000000000003FFFFC
FFFFF000000000000000003FFFFC
FFFFF000000000000000003FFFFC
FFFFF000000000000000003FFFFC
FFFFF000000000000000003FFFFC
FFFFF000000000000000003FFFFC
FFFFF000000000000000003FFFFC
FFFFF000000000000000003FFFFC
FFFFF000000000000000003FFFFC
FFFFF000000000000000003FFFFC
FFFFF000000000000000003FFFFC
FFFFF000000000000000003FFFFC
FFFFF000000000000000003FFFFC
FFFFF000000000000000003FFFFC
FFFFF000000000000000003FFFFC
FFFFF000000000000000003FFFFC
FFFFF000000000000000003FFFFC
FFFFF000000000000000003FFFFC
FFFFF000000000000000003FFFFC
FFFFF000000000000000003FFFFC
FFFFF000000000000000003FFFFC
FFFFF000000000000000003FFFFC
FFFFF000000000000000003FFFFC
FFFFF000000000000000003FFFFC
FFFFF000000000000000003FFFFC
FFFFF000000000000000003FFFFC
FFFFF000000000000000003FFFFC
FFFFF000000000000000003FFFFC
FFFFF000000000000000003FFFFC
FFFFF000000000000000003FFFFC
FFFFF000000000000000003FFFFC
FFFFF000000000000000003FFFFC
FFFFF000000000000000003FFFFC
FFFFF000000000000000003FFFFC
FFFFF000000000000000003FFFFC
FFFFF000000000000000003FFFFC
FFFFF000000000000000003FFFFC
FFFFF000000000000000003FFFFC
FFFFF000000000000000003FFFFC
FFFFF000000000000000003FFFFC
FFFFF000000000000000003FFFFC
FFFFF000000000000000003FFFFC
FFFFF000000000000000003FFFFC
FFFFF000000000000000003FFFFC
FFFFF000000000000000003FFFFC
FFFFF000000000000000003FFFFC
FFFFF000000000000000003FFFFC
FFFFF000000000000000003FFFFC
FFFFF000000000000000003FFFFC
FFFFF000000000000000003FFFFC
FFFFF000000000000000003FFFFC
FFFFF000000000000000003FFFFC
FFFFF000000000000000003FFFFC
FFFFF000000000000000003FFFFC
FFFFF000000000000000003FFFFC
FFFFF000000000000000003FFFFC
FFFFF000000000000000003FFFFC
003FFFFC000000000000FFFFF000
003FFFFC000000000000FFFFF000
003FFFFC000000000000FFFFF000
003FFFFC000000000000FFFFF000
003FFFFC000000000000FFFFF000
003FFFFC000000000000FFFFF000
003FFFFC000000000000FFFFF000
003FFFFC000000000000FFFFF000
003FFFFC000000000000FFFFF000
003FFFFC000000000000FFFFF000
003FFFFFFF00000003FFFFFFF000
003FFFFFFF00000003FFFFFFF000
003FFFFFFF00000003FFFFFFF000
003FFFFFFF00000003FFFFFFF000
003FFFFFFF00000003FFFFFFF000
003FFFFFFF00000003FFFFFFF000
003FFFFFFF00000003FFFFFFF000
003FFFFFFF00000003FFFFFFF000
003FFFFFFF00000003FFFFFFF000
003FFFFFFF00000003FFFFFFF000
00000FFFFFFFFFFFFFFFFFC00000
00000FFFFFFFFFFFFFFFFFC00000
00000FFFFFFFFFFFFFFFFFC00000
00000FFFFFFFFFFFFFFFFFC00000
00000FFFFFFFFFFFFFFFFFC00000
00000FFFFFFFFFFFFFFFFFC00000
00000FFFFFFFFFFFFFFFFFC00000
00000FFFFFFFFFFFFFFFFFC00000
00000FFFFFFFFFFFFFFFFFC00000
00000FFFFFFFFFFFFFFFFFC00000
00000003FFFFFFFFFFFF00000000
00000003FFFFFFFFFFFF00000000
00000003FFFFFFFFFFFF00000000
00000003FFFFFFFFFFFF00000000
00000003FFFFFFFFFFFF00000000
00000003FFFFFFFFFFFF00000000
00000003FFFFFFFFFFFF00000000
00000003FFFFFFFFFFFF00000000
00000003FFFFFFFFFFFF00000000
00000003FFFFFFFFFFFF00000000
ENDCHAR
STARTCHAR one
ENCODING 49
SWIDTH 541 0
DWIDTH 130 0
BBX 100 170 20 0
BITMAP
00000003FFFFFFF00000000000
00000003FFFFFFF00000000000
00000003FFFFFFF00000000000
00000003FFFFFFF00000000000
00000003FFFFFFF00000000000
00000003FFFFFFF00000000000
00000003FFFFFFF00000000000
00000003FFFFFFF00000000000
00000003FFFFFFF00000000000
00000003FFFFFFF00000000000
00000FFFFFFFFFF00000000000
00000FFFFFFFFFF00000000000
00000FFFFFFFFFF00000000000
00000FFFFFFFFFF00000000000
00000FFFFFFFFFF00000000000
00000FFFFFFFFFF00000000000
00000FFFFFFFFFF00000000000
00000FFFFFFFFFF00000000000
00000FFFFFFFFFF00000000000
00000FFFFFFFFFF00000000000
003FFFFC00FFFFF00000000000
003FFFFC00FFFFF00000000000
003FFFFC00FFFFF00000000000
003FFFFC00FFFFF00000000000
003FFFFC00FFFFF00000000000
003FFFFC00FFFFF00000000000
003FFFFC00FFFFF00000000000
003FFFFC00FFFFF00000000000
003FFFFC00FFFFF00000000000
003FFFFC00FFFFF00000000000
FFFFF00000FFFFF00000000000
FFFFF00000FFFFF00000000000
FFFFF00000FFFFF00000000000
FFFFF00000FFFFF00000000000
FFFFF00000FFFFF00000000000
FFFFF00000FFFFF00000000000
FFFFF00000FFFFF00000000000
FFFFF00000FFFFF00000000000
FFFFF00000FFFFF00000000000
FFFFF00000FFFFF00000000000
FFC0000000FFFFF00000000000
FFC0000000FFFFF00000000000
FFC0000000FFFFF00000000000
FFC0000000FFFFF00000000000
FFC0000000FFFFF00000000000
FFC0000000FFFFF00000000000
FFC0000000FFFFF00000000000
FFC0000000FFFFF00000000000
FFC0000000FFFFF00000000000
FFC0000000FFFFF00000000000
0000000000FFFFF00000000000
0000000000FFFFF00000000000
0000000000FFFFF00000000000
0000000000FFFFF00000000000
0000000000FFFFF00000000000
0000000000FFFFF00000000000
0000000000FFFFF00000000000
0000000000FFFFF00000000000
0000000000FFFFF00000000000
0000000000FFFFF00000000000
0000000000FFFFF00000000000
0000000000FFFFF00000000000
0000000000FFFFF00000000000
0000000000FFFFF00000000000
0000000000FFFFF00000000000
0000000000FFFFF00000000000
0000000000FFFFF00000000000
0000000000FFFFF00000000000
0000000000FFFFF00000000000
0000000000FFFFF00000000000
0000000000FFFFF00000000000
0000000000FFFFF00000000000
0000000000FFFFF00000000000
0000000000FFFFF00000000000
0000000000FFFFF00000000000
0000000000FFFFF00000000000
0000000000FFFFF00000000000
0000000000FFFFF00000000000
0000000000FFFFF00000000000
0000000000FFFFF00000000000
0000000000FFFFF00000000000
0000000000FFFFF00000000000
0000000000FFFFF00000000000
0000000000FFFFF00000000000
0000000000FFFFF00000000000
0000000000FFFFF00000000000
0000000000FFFFF00000000000
0000000000FFFFF00000000000
0000000000FFFFF00000000000
0000000000FFFFF00000000000
0000000000FFFFF00000000000
0000000000FFFFF00000000000
0000000000FFFFF00000000000
0000000000FFFFF00000000000
0000000000FFFFF00000000000
0000000000FFFFF00000000000
0000000000FFFFF00000000000
0000000000FFFFF00000000000
0000000000FFFFF00000000000
0000000000FFFFF00000000000
0000000000FFFFF00000000000
0000000000FFFFF00000000000
0000000000FFFFF00000000000
0000000000FFFFF00000000000
0000000000FFFFF00000000000
0000000000FFFFF00000000000
0000000000FFFFF00000000000
0000000000FFFFF00000000000
0000000000FFFFF00000000000
0000000000FFFFF00000000000
0000000000FFFFF00000000000
0000000000FFFFF00000000000
0000000000FFFFF00000000000
0000000000FFFFF00000000000
0000000000FFFFF00000000000
0000000000FFFFF00000000000
0000000000FFFFF00000000000
0000000000FFFFF00000000000
0000000000FFFFF00000000000
0000000000FFFFF00000000000
0000000000FFFFF00000000000
0000000000FFFFF00000000000
0000000000FFFFF00000000000
0000000000FFFFF00000000000
0000000000FFFFF00000000000
0000000000FFFFF00000000000
0000000000FFFFF00000000000
0000000000FFFFF00000000000
0000000000FFFFF00000000000
0000000000FFFFF00000000000
0000000000FFFFF00000000000
0000000000FFFFF00000000000
0000000000FFFFF00000000000
0000000000FFFFF00000000000
0000000000FFFFF00000000000
0000000000FFFFF00000000000
0000000000FFFFF00000000000
0000000000FFFFF00000000000
0000000000FFFFF00000000000
0000000000FFFFF00000000000
0000000000FFFFF00000000000
0000000000FFFFF00000000000
0000000000FFFFF00000000000
0000000000FFFFF00000000000
0000000000FFFFF00000000000
0000000000FFFFF00000000000
0000000000FFFFF00000000000
0000000000FFFFF00000000000
0000000000FFFFF00000000000
0000000000FFFFF00000000000
FFFFFFFFFFFFFFFFFFFFFFFFF0
FFFFFFFFFFFFFFFFFFFFFFFFF0
FFFFFFFFFFFFFFFFFFFFFFFFF0
FFFFFFFFFFFFFFFFFFFFFFFFF0
FFFFFFFFFFFFFFFFFFFFFFFFF0
FFFFFFFFFFFFFFFFFFFFFFFFF0
FFFFFFFFFFFFFFFFFFFFFFFFF0
FFFFFFFFFFFFFFFFFFFFFFFFF0
FFFFFFFFFFFFFFFFFFFFFFFFF0
FFFFFFFFFFFFFFFFFFFFFFFFF0
FFFFFFFFFFFFFFFFFFFFFFFFF0
FFFFFFFFFFFFFFFFFFFFFFFFF0
FFFFFFFFFFFFFFFFFFFFFFFFF0
FFFFFFFFFFFFFFFFFFFFFFFFF0
FFFFFFFFFFFFFFFFFFFFFFFFF0
FFFFFFFFFFFFFFFFFFFFFFFFF0
FFFFFFFFFFFFFFFFFFFFFFFFF0
FFFFFFFFFFFFFFFFFFFFFFFFF0
FFFFFFFFFFFFFFFFFFFFFFFFF0
FFFFFFFFFFFFFFFFFFFFFFFFF0
ENDCHAR
STARTCHAR two
ENCODING 50
SWIDTH 541 0
DWIDTH 130 0
BBX 100 170 10 0
BITMAP
00000003FFFFFFFFFFFF000000
00000003FFFFFFFFFFFF000000
00000003FFFFFFFFFFFF000000
00000003FFFFFFFFFFFF000000
00000003FFFFFFFFFFFF000000
00000003FFFFFFFFFFFF000000
00000003FFFFFFFFFFFF000000
00000003FFFFFFFFFFFF000000
00000003FFFFFFFFFFFF000000
00000003FFFFFFFFFFFF000000
003FFFFFFFFFFFFFFFFFFFC000
003FFFFFFFFFFFFFFFFFFFC000
003FFFFFFFFFFFFFFFFFFFC000
003FFFFFFFFFFFFFFFFFFFC000
003FFFFFFFFFFFFFFFFFFFC000
003FFFFFFFFFFFFFFFFFFFC000
003FFFFFFFFFFFFFFFFFFFC000
003FFFFFFFFFFFFFFFFFFFC000
003FFFFFFFFFFFFFFFFFFFC000
003FFFFFFFFFFFFFFFFFFFC000
003FFFFC0000000003FFFFFFF0
003FFFFC0000000003FFFFFFF0
003FFFFC0000000003FFFFFFF0
003FFFFC0000000003FFFFFFF0
003FFFFC0000000003FFFFFFF0
003FFFFC0000000003FFFFFFF0
003FFFFC0000000003FFFFFFF0
003FFFFC0000000003FFFFFFF0
003FFFFC0000000003FFFFFFF0
003FFFFC0000000003FFFFFFF0
FFFFF000000000000000FFFFF0
FFFFF000000000000000FFFFF0
FFFFF000000000000000FFFFF0
FFFFF000000000000000FFFFF0
FFFFF000000000000000FFFFF0
FFFFF000000000000000FFFFF0
FFFFF000000000000000FFFFF0
FFFFF000000000000000FFFFF0
FFFFF000000000000000FFFFF0
FFFFF000000000000000FFFFF0
00000000000000000000FFFFF0
00000000000000000000FFFFF0
00000000000000000000FFFFF0
00000000000000000000FFFFF0
00000000000000000000FFFFF0
00000000000000000000FFFFF0
00000000000000000000FFFFF0
00000000000000000000FFFFF0
00000000000000000000FFFFF0
00000000000000000000FFFFF0
00000000000000000000FFFFF0
00000000000000000000FFFFF0
00000000000000000000FFFFF0
00000000000000000000FFFFF0
00000000000000000000FFFFF0
00000000000000000000FFFFF0
00000000000000000000FFFFF0
00000000000000000000FFFFF0
00000000000000000000FFFFF0
00000000000000000000FFFFF0
00000000000000000000FFFFF0
00000000000000000000FFFFF0
00000000000000000000FFFFF0
00000000000000000000FFFFF0
00000000000000000000FFFFF0
00000000000000000000FFFFF0
00000000000000000000FFFFF0
00000000000000000000FFFFF0
00000000000000000000FFFFF0
00000000000000000000FFFFF0
000000000000000003FFFFC000
000000000000000003FFFFC000
000000000000000003FFFFC000
000000000000000003FFFFC000
000000000000000003FFFFC000
000000000000000003FFFFC000
000000000000000003FFFFC000
000000000000000003FFFFC000
000000000000000003FFFFC000
000000000000000003FFFFC000
000000000000000FFFFF000000
000000000000000FFFFF000000
000000000000000FFFFF000000
000000000000000FFFFF000000
000000000000000FFFFF000000
000000000000000FFFFF000000
000000000000000FFFFF000000
000000000000000FFFFF000000
000000000000000FFFFF000000
000000000000000FFFFF000000
0000000000003FFFFC00000000
0000000000003FFFFC00000000
0000000000003FFFFC00000000
0000000000003FFFFC00000000
0000000000003FFFFC00000000
0000000000003FFFFC00000000
0000000000003FFFFC00000000
0000000000003FFFFC00000000
0000000000003FFFFC00000000
0000000000003FFFFC00000000
0000000000FFFFF00000000000
0000000000FFFFF00000000000
0000000000FFFFF00000000000
0000000000FFFFF00000000000
0000000000FFFFF00000000000
0000000000FFFFF00000000000
0000000000FFFFF00000000000
0000000000FFFFF00000000000
0000000000FFFFF00000000000
0000000000FFFFF00000000000
00000003FFFFC0000000000000
00000003FFFFC0000000000000
00000003FFFFC0000000000000
00000003FFFFC0000000000000
00000003FFFFC0000000000000
00000003FFFFC0000000000000
00000003FFFFC0000000000000
00000003FFFFC0000000000000
00000003FFFFC0000000000000
00000003FFFFC0000000000000
00000FFFFF0000000000000000
00000FFFFF0000000000000000
00000FFFFF0000000000000000
00000FFFFF0000000000000000
00000FFFFF0000000000000000
00000FFFFF0000000000000000
00000FFFFF0000000000000000
00000FFFFF0000000000000000
00000FFFFF0000000000000000
00000FFFFF0000000000000000
003FFFFC000000000000000000
003FFFFC000000000000000000
003FFFFC000000000000000000
003FFFFC000000000000000000
003FFFFC000000000000000000
003FFFFC000000000000000000
003FFFFC000000000000000000
003FFFFC000000000000000000
003FFFFC000000000000000000
003FFFFC000000000000000000
FFFFFFFC000000000000000000
FFFFFFFC000000000000000000
FFFFFFFC000000000000000000
FFFFFFFC000000000000000000
FFFFFFFC000000000000000000
FFFFFFFC000000000000000000
FFFFFFFC000000000000000000
FFFFFFFC000000000000000000
FFFFFFFC000000000000000000
FFFFFFFC000000000000000000
FFFFFFFFFFFFFFFFFFFFFFFFF0
FFFFFFFFFFFFFFFFFFFFFFFFF0
FFFFFFFFFFFFFFFFFFFFFFFFF0
FFFFFFFFFFFFFFFFFFFFFFFFF0
FFFFFFFFFFFFFFFFFFFFFFFFF0
FFFFFFFFFFFFFFFFFFFFFFFFF0
FFFFFFFFFFFFFFFFFFFFFFFFF0
FFFFFFFFFFFFFFFFFFFFFFFFF0
FFFFFFFFFFFFFFFFFFFFFFFFF0
FFFFFFFFFFFFFFFFFFFFFFFFF0
FFFFFFFFFFFFFFFFFFFFFFFFF0
FFFFFFFFFFFFFFFFFFFFFFFFF0
FFFFFFFFFFFFFFFFFFFFFFFFF0
FFFFFFFFFFFFFFFFFFFFFFFFF0
FFFFFFFFFFFFFFFFFFFFFFFFF0
FFFFFFFFFFFFFFFFFFFFFFFFF0
FFFFFFFFFFFFFFFFFFFFFFFFF0
FFFFFFFFFFFFFFFFFFFFFFFFF0
FFFFFFFFFFFFFFFFFFFFFFFFF0
FFFFFFFFFFFFFFFFFFFFFFFFF0
ENDCHAR
STARTCHAR three
ENCODING 51
SWIDTH 541 0
DWIDTH 130 0
BBX 110 170 10 0
BITMAP
00000003FFFFFFFFFFFFFFC00000
00000003FFFFFFFFFFFFFFC00000
00000003FFFFFFFFFFFFFFC00000
00000003FFFFFFFFFFFFFFC00000
00000003FFFFFFFFFFFFFFC00000
00000003FFFFFFFFFFFFFFC00000
00000003FFFFFFFFFFFFFFC00000
00000003FFFFFFFFFFFFFFC00000
00000003FFFFFFFFFFFFFFC00000
00000003FFFFFFFFFFFFFFC00000
003FFFFFFFFFFFFFFFFFFFFFF000
003FFFFFFFFFFFFFFFFFFFFFF000
003FFFFFFFFFFFFFFFFFFFFFF000
003FFFFFFFFFFFFFFFFFFFFFF000
003FFFFFFFFFFFFFFFFFFFFFF000
003FFFFFFFFFFFFFFFFFFFFFF000
003FFFFFFFFFFFFFFFFFFFFFF000
003FFFFFFFFFFFFFFFFFFFFFF000
003FFFFFFFFFFFFFFFFFFFFFF000
003FFFFFFFFFFFFFFFFFFFFFF000
003FFFFC000000000000FFFFFFFC
003FFFFC000000000000FFFFFFFC
003FFFFC000000000000FFFFFFFC
003FFFFC000000000000FFFFFFFC
003FFFFC000000000000FFFFFFFC
003FFFFC000000000000FFFFFFFC
003FFFFC000000000000FFFFFFFC
003FFFFC000000000000FFFFFFFC
003FFFFC000000000000FFFFFFFC
003FFFFC000000000000FFFFFFFC
FFFFF000000000000000003FFFFC
FFFFF000000000000000003FFFFC
FFFFF000000000000000003FFFFC
FFFFF000000000000000003FFFFC
FFFFF000000000000000003FFFFC
FFFFF000000000000000003FFFFC
FFFFF000000000000000003FFFFC
FFFFF000000000000000003FFFFC
FFFFF000000000000000003FFFFC
FFFFF000000000000000003FFFFC
00000000000000000000003FFFFC
00000000000000000000003FFFFC
00000000000000000000003FFFFC
00000000000000000000003FFFFC
00000000000000000000003FFFFC
00000000000000000000003FFFFC
00000000000000000000003FFFFC
00000000000000000000003FFFFC
00000000000000000000003FFFFC
00000000000000000000003FFFFC
00000000000000000000003FFFFC
00000000000000000000003FFFFC
00000000000000000000003FFFFC
00000000000000000000003FFFFC
00000000000000000000003FFFFC
00000000000000000000003FFFFC
00000000000000000000003FFFFC
00000000000000000000003FFFFC
00000000000000000000003FFFFC
00000000000000000000003FFFFC
00000000000000000000FFFFF000
00000000000000000000FFFFF000
00000000000000000000FFFFF000
00000000000000000000FFFFF000
00000000000000000000FFFFF000
00000000000000000000FFFFF000
00000000000000000000FFFFF000
00000000000000000000FFFFF000
00000000000000000000FFFFF000
00000000000000000000FFFFF000
0000000000FFFFFFFFFFFFC00000
0000000000FFFFFFFFFFFFC00000
0000000000FFFFFFFFFFFFC00000
0000000000FFFFFFFFFFFFC00000
0000000000FFFFFFFFFFFFC00000
0000000000FFFFFFFFFFFFC00000
0000000000FFFFFFFFFFFFC00000
0000000000FFFFFFFFFFFFC00000
0000000000FFFFFFFFFFFFC00000
0000000000FFFFFFFFFFFFC00000
0000000000FFFFFFFFFFFFC00000
0000000000FFFFFFFFFFFFC00000
0000000000FFFFFFFFFFFFC00000
0000000000FFFFFFFFFFFFC00000
0000000000FFFFFFFFFFFFC00000
0000000000FFFFFFFFFFFFC00000
0000000000FFFFFFFFFFFFC00000
0000000000FFFFFFFFFFFFC00000
0000000000FFFFFFFFFFFFC00000
0000000000FFFFFFFFFFFFC00000
00000000000000000000FFFFF000
00000000000000000000FFFFF000
00000000000000000000FFFFF000
00000000000000000000FFFFF000
00000000000000000000FFFFF000
00000000000000000000FFFFF000
00000000000000000000FFFFF000
00000000000000000000FFFFF000
00000000000000000000FFFFF000
00000000000000000000FFFFF000
00000000000000000000003FFFFC
00000000000000000000003FFFFC
00000000000000000000003FFFFC
00000000000000000000003FFFFC
00000000000000000000003FFFFC
00000000000000000000003FFFFC
00000000000000000000003FFFFC
00000000000000000000003FFFFC
00000000000000000000003FFFFC
00000000000000000000003FFFFC
00000000000000000000003FFFFC
00000000000000000000003FFFFC
00000000000000000000003FFFFC
00000000000000000000003FFFFC
00000000000000000000003FFFFC
00000000000000000000003FFFFC
00000000000000000000003FFFFC
00000000000000000000003FFFFC
00000000000000000000003FFFFC
00000000000000000000003FFFFC
FFFFF000000000000000003FFFFC
FFFFF000000000000000003FFFFC
FFFFF000000000000000003FFFFC
FFFFF000000000000000003FFFFC
FFFFF000000000000000003FFFFC
FFFFF000000000000000003FFFFC
FFFFF000000000000000003FFFFC
FFFFF000000000000000003FFFFC
FFFFF000000000000000003FFFFC
FFFFF000000000000000003FFFFC
FFFFF000000000000000003FFFFC
FFFFF000000000000000003FFFFC
FFFFF000000000000000003FFFFC
FFFFF000000000000000003FFFFC
FFFFF000000000000000003FFFFC
FFFFF000000000000000003FFFFC
FFFFF000000000000000003FFFFC
FFFFF000000000000000003FFFFC
FFFFF000000000000000003FFFFC
FFFFF000000000000000003FFFFC
003FFFFC000000000000FFFFF000
003FFFFC000000000000FFFFF000
003FFFFC000000000000FFFFF000
003FFFFC000000000000FFFFF000
003FFFFC000000000000FFFFF000
003FFFFC000000000000FFFFF000
003FFFFC000000000000FFFFF000
003FFFFC000000000000FFFFF000
003FFFFC000000000000FFFFF000
003FFFFC000000000000FFFFF000
003FFFFFFFFFFFFFFFFFFFFFF000
003FFFFFFFFFFFFFFFFFFFFFF000
003FFFFFFFFFFFFFFFFFFFFFF000
003FFFFFFFFFFFFFFFFFFFFFF000
003FFFFFFFFFFFFFFFFFFFFFF000
003FFFFFFFFFFFFFFFFFFFFFF000
003FFFFFFFFFFFFFFFFFFFFFF000
003FFFFFFFFFFFFFFFFFFFFFF000
003FFFFFFFFFFFFFFFFFFFFFF000
003FFFFFFFFFFFFFFFFFFFFFF000
00000003FFFFFFFFFFFF00000000
00000003FFFFFFFFFFFF00000000
00000003FFFFFFFFFFFF00000000
00000003FFFFFFFFFFFF00000000
00000003FFFFFFFFFFFF00000000
00000003FFFFFFFFFFFF00000000
00000003FFFFFFFFFFFF00000000
00000003FFFFFFFFFFFF00000000
00000003FFFFFFFFFFFF00000000
00000003FFFFFFFFFFFF00000000
ENDCHAR
STARTCHAR four
ENCODING 52
SWIDTH 541 0
DWIDTH 130 0
BBX 110 170 10 0
BITMAP
000000000000000FFFFFFFC00000
000000000000000FFFFFFFC00000
000000000000000FFFFFFFC00000
000000000000000FFFFFFFC00000
000000000000000FFFFFFFC00000
000000000000000FFFFFFFC00000
000000000000000FFFFFFFC00000
000000000000000FFFFFFFC00000
000000000000000FFFFFFFC00000
000000000000000FFFFFFFC00000
000000000000000FFFFFFFC00000
000000000000000FFFFFFFC00000
000000000000000FFFFFFFC00000
000000000000000FFFFFFFC00000
000000000000000FFFFFFFC00000
000000000000000FFFFFFFC00000
000000000000000FFFFFFFC00000
000000000000000FFFFFFFC00000
000000000000000FFFFFFFC00000
000000000000000FFFFFFFC00000
0000000000003FFFFFFFFFC00000
0000000000003FFFFFFFFFC00000
0000000000003FFFFFFFFFC00000
0000000000003FFFFFFFFFC00000
0000000000003FFFFFFFFFC00000
0000000000003FFFFFFFFFC00000
0000000000003FFFFFFFFFC00000
0000000000003FFFFFFFFFC00000
0000000000003FFFFFFFFFC00000
0000000000003FFFFFFFFFC00000
0000000000003FF003FFFFC00000
0000000000003FF003FFFFC00000
0000000000003FF003FFFFC00000
0000000000003FF003FFFFC00000
0000000000003FF003FFFFC00000
0000000000003FF003FFFFC00000
0000000000003FF003FFFFC00000
0000000000003FF003FFFFC00000
0000000000003FF003FFFFC00000
0000000000003FF003FFFFC00000
0000000000FFFFF003FFFFC00000
0000000000FFFFF003FFFFC00000
0000000000FFFFF003FFFFC00000
0000000000FFFFF003FFFFC00000
0000000000FFFFF003FFFFC00000
0000000000FFFFF003FFFFC00000
0000000000FFFFF003FFFFC00000
0000000000FFFFF003FFFFC00000
0000000000FFFFF003FFFFC00000
0000000000FFFFF003FFFFC00000
00000003FFFFC00003FFFFC00000
00000003FFFFC00003FFFFC00000
00000003FFFFC00003FFFFC00000
00000003FFFFC00003FFFFC00000
00000003FFFFC00003FFFFC00000
00000003FFFFC00003FFFFC00000
00000003FFFFC00003FFFFC00000
00000003FFFFC00003FFFFC00000
00000003FFFFC00003FFFFC00000
00000003FFFFC00003FFFFC00000
00000003FFFFC00003FFFFC00000
00000003FFFFC00003FFFFC00000
00000003FFFFC00003FFFFC00000
00000003FFFFC00003FFFFC00000
00000003FFFFC00003FFFFC00000
00000003FFFFC00003FFFFC00000
00000003FFFFC00003FFFFC00000
00000003FFFFC00003FFFFC00000
00000003FFFFC00003FFFFC00000
00000003FFFFC00003FFFFC00000
00000FFFFF00000003FFFFC00000
00000FFFFF00000003FFFFC00000
00000FFFFF00000003FFFFC00000
00000FFFFF00000003FFFFC00000
00000FFFFF00000003FFFFC00000
00000FFFFF00000003FFFFC00000
00000FFFFF00000003FFFFC00000
00000FFFFF00000003FFFFC00000
00000FFFFF00000003FFFFC00000
00000FFFFF00000003FFFFC00000
00000FFFFF00000003FFFFC00000
00000FFFFF00000003FFFFC00000
00000FFFFF00000003FFFFC00000
00000FFFFF00000003FFFFC00000
00000FFFFF00000003FFFFC00000
00000FFFFF00000003FFFFC00000
00000FFFFF00000003FFFFC00000
00000FFFFF00000003FFFFC00000
00000FFFFF00000003FFFFC00000
00000FFFFF00000003FFFFC00000
003FFFFC0000000003FFFFC00000
003FFFFC0000000003FFFFC00000
003FFFFC0000000003FFFFC00000
003FFFFC0000000003FFFFC00000
003FFFFC0000000003FFFFC00000
003FFFFC0000000003FFFFC00000
003FFFFC0000000003FFFFC00000
003FFFFC0000000003FFFFC00000
003FFFFC0000000003FFFFC00000
003FFFFC0000000003FFFFC00000
FFFFF0000000000003FFFFC00000
FFFFF0000000000003FFFFC00000
FFFFF0000000000003FFFFC00000
FFFFF0000000000003FFFFC00000
FFFFF0000000000003FFFFC00000
FFFFF0000000000003FFFFC00000
FFFFF0000000000003FFFFC00000
FFFFF0000000000003FFFFC00000
FFFFF0000000000003FFFFC00000
FFFFF0000000000003FFFFC00000
FFFFFFFFFFFFFFFFFFFFFFFFFFFC
FFFFFFFFFFFFFFFFFFFFFFFFFFFC
FFFFFFFFFFFFFFFFFFFFFFFFFFFC
FFFFFFFFFFFFFFFFFFFFFFFFFFFC
FFFFFFFFFFFFFFFFFFFFFFFFFFFC
FFFFFFFFFFFFFFFFFFFFFFFFFFFC
FFFFFFFFFFFFFFFFFFFFFFFFFFFC
FFFFFFFFFFFFFFFFFFFFFFFFFFFC
FFFFFFFFFFFFFFFFFFFFFFFFFFFC
FFFFFFFFFFFFFFFFFFFFFFFFFFFC
FFFFFFFFFFFFFFFFFFFFFFFFFFFC
FFFFFFFFFFFFFFFFFFFFFFFFFFFC
FFFFFFFFFFFFFFFFFFFFFFFFFFFC
FFFFFFFFFFFFFFFFFFFFFFFFFFFC
FFFFFFFFFFFFFFFFFFFFFFFFFFFC
FFFFFFFFFFFFFFFFFFFFFFFFFFFC
FFFFFFFFFFFFFFFFFFFFFFFFFFFC
FFFFFFFFFFFFFFFFFFFFFFFFFFFC
FFFFFFFFFFFFFFFFFFFFFFFFFFFC
FFFFFFFFFFFFFFFFFFFFFFFFFFFC
000000000000000003FFFFC00000
000000000000000003FFFFC00000
000000000000000003FFFFC00000
000000000000000003FFFFC00000
000000000000000003FFFFC00000
000000000000000003FFFFC00000
000000000000000003FFFFC00000
000000000000000003FFFFC00000
000000000000000003FFFFC00000
000000000000000003FFFFC00000
000000000000000003FFFFC00000
000000000000000003FFFFC00000
000000000000000003FFFFC00000
000000000000000003FFFFC00000
000000000000000003FFFFC00000
000000000000000003FFFFC00000
000000000000000003FFFFC00000
000000000000000003FFFFC00000
000000000000000003FFFFC00000
000000000000000003FFFFC00000
000000000000000003FFFFC00000
000000000000000003FFFFC00000
000000000000000003FFFFC00000
000000000000000003FFFFC00000
000000000000000003FFFFC00000
000000000000000003FFFFC00000
000000000000000003FFFFC00000
000000000000000003FFFFC00000
000000000000000003FFFFC00000
000000000000000003FFFFC00000
000000000000000003FFFFC00000
000000000000000003FFFFC00000
000000000000000003FFFFC00000
000000000000000003FFFFC00000
000000000000000003FFFFC00000
000000000000000003FFFFC00000
000000000000000003FFFFC00000
000000000000000003FFFFC00000
000000000000000003FFFFC00000
000000000000000003FFFFC00000
ENDCHAR
STARTCHAR five
ENCODING 53
SWIDTH 541 0
DWIDTH 130 0
BBX 110 170 10 0
BITMAP
003FFFFFFFFFFFFFFFFFFFFFF000
003FFFFFFFFFFFFFFFFFFFFFF000
003FFFFFFFFFFFFFFFFFFFFFF000
003FFFFFFFFFFFFFFFFFFFFFF000
003FFFFFFFFFFFFFFFFFFFFFF000
003FFFFFFFFFFFFFFFFFFFFFF000
003FFFFFFFFFFFFFFFFFFFFFF000
003FFFFFFFFFFFFFFFFFFFFFF000
003FFFFFFFFFFFFFFFFFFFFFF000
003FFFFFFFFFFFFFFFFFFFFFF000
FFFFFFFFFFFFFFFFFFFFFFFFF000
FFFFFFFFFFFFFFFFFFFFFFFFF000
FFFFFFFFFFFFFFFFFFFFFFFFF000
FFFFFFFFFFFFFFFFFFFFFFFFF000
FFFFFFFFFFFFFFFFFFFFFFFFF000
FFFFFFFFFFFFFFFFFFFFFFFFF000
FFFFFFFFFFFFFFFFFFFFFFFFF000
FFFFFFFFFFFFFFFFFFFFFFFFF000
FFFFFFFFFFFFFFFFFFFFFFFFF000
FFFFFFFFFFFFFFFFFFFFFFFFF000
FFFFF00000000000000000000000
FFFFF00000000000000000000000
FFFFF00000000000000000000000
FFFFF00000000000000000000000
FFFFF00000000000000000000000
FFFFF00000000000000000000000
FFFFF00000000000000000000000
FFFFF00000000000000000000000
FFFFF00000000000000000000000
FFFFF00000000000000000000000
FFFFF00000000000000000000000
FFFFF00000000000000000000000
FFFFF00000000000000000000000
FFFFF00000000000000000000000
FFFFF00000000000000000000000
FFFFF00000000000000000000000
FFFFF00000000000000000000000
FFFFF00000000000000000000000
FFFFF00000000000000000000000
FFFFF00000000000000000000000
FFFFF00000000000000000000000
FFFFF00000000000000000000000
FFFFF00000000000000000000000
FFFFF00000000000000000000000
FFFFF00000000000000000000000
FFFFF00000000000000000000000
FFFFF00000000000000000000000
FFFFF00000000000000000000000
FFFFF00000000000000000000000
FFFFF00000000000000000000000
FFFFF00000000000000000000000
FFFFF00000000000000000000000
FFFFF00000000000000000000000
FFFFF00000000000000000000000
FFFFF00000000000000000000000
FFFFF00000000000000000000000
FFFFF00000000000000000000000
FFFFF00000000000000000000000
FFFFF00000000000000000000000
FFFFF00000000000000000000000
FFFFF003FFFFFFFFFFFF00000000
FFFFF003FFFFFFFFFFFF00000000
FFFFF003FFFFFFFFFFFF00000000
FFFFF003FFFFFFFFFFFF00000000
FFFFF003FFFFFFFFFFFF00000000
FFFFF003FFFFFFFFFFFF00000000
FFFFF003FFFFFFFFFFFF00000000
FFFFF003FFFFFFFFFFFF00000000
FFFFF003FFFFFFFFFFFF00000000
FFFFF003FFFFFFFFFFFF00000000
FFFFFFFFFFFFFFFFFFFFFFFFF000
FFFFFFFFFFFFFFFFFFFFFFFFF000
FFFFFFFFFFFFFFFFFFFFFFFFF000
FFFFFFFFFFFFFFFFFFFFFFFFF000
FFFFFFFFFFFFFFFFFFFFFFFFF000
FFFFFFFFFFFFFFFFFFFFFFFFF000
FFFFFFFFFFFFFFFFFFFFFFFFF000
FFFFFFFFFFFFFFFFFFFFFFFFF000
FFFFFFFFFFFFFFFFFFFFFFFFF000
FFFFFFFFFFFFFFFFFFFFFFFFF000
FFFFFFFC0000000003FFFFFFF000
FFFFFFFC0000000003FFFFFFF000
FFFFFFFC0000000003FFFFFFF000
FFFFFFFC0000000003FFFFFFF000
FFFFFFFC0000000003FFFFFFF000
FFFFFFFC0000000003FFFFFFF000
FFFFFFFC0000000003FFFFFFF000
FFFFFFFC0000000003FFFFFFF000
FFFFFFFC0000000003FFFFFFF000
FFFFFFFC0000000003FFFFFFF000
00000000000000000000FFFFFFFC
00000000000000000000FFFFFFFC
00000000000000000000FFFFFFFC
00000000000000000000FFFFFFFC
00000000000000000000FFFFFFFC
00000000000000000000FFFFFFFC
00000000000000000000FFFFFFFC
00000000000000000000FFFFFFFC
00000000000000000000FFFFFFFC
00000000000000000000FFFFFFFC
00000000000000000000003FFFFC
00000000000000000000003FFFFC
00000000000000000000003FFFFC
00000000000000000000003FFFFC
00000000000000000000003FFFFC
00000000000000000000003FFFFC
00000000000000000000003FFFFC
00000000000000000000003FFFFC
00000000000000000000003FFFFC
00000000000000000000003FFFFC
00000000000000000000003FFFFC
00000000000000000000003FFFFC
00000000000000000000003FFFFC
00000000000000000000003FFFFC
00000000000000000000003FFFFC
00000000000000000000003FFFFC
00000000000000000000003FFFFC
00000000000000000000003FFFFC
00000000000000000000003FFFFC
00000000000000000000003FFFFC
00000000000000000000003FFFFC
00000000000000000000003FFFFC
00000000000000000000003FFFFC
00000000000000000000003FFFFC
00000000000000000000003FFFFC
00000000000000000000003FFFFC
00000000000000000000003FFFFC
00000000000000000000003FFFFC
00000000000000000000003FFFFC
00000000000000000000003FFFFC
FFFFF000000000000000FFFFFFFC
FFFFF000000000000000FFFFFFFC
FFFFF000000000000000FFFFFFFC
FFFFF000000000000000FFFFFFFC
FFFFF000000000000000FFFFFFFC
FFFFF000000000000000FFFFFFFC
FFFFF000000000000000FFFFFFFC
FFFFF000000000000000FFFFFFFC
FFFFF000000000000000FFFFFFFC
FFFFF000000000000000FFFFFFFC
FFFFFFFC0000000003FFFFFFF000
FFFFFFFC0000000003FFFFFFF000
FFFFFFFC0000000003FFFFFFF000
FFFFFFFC0000000003FFFFFFF000
FFFFFFFC0000000003FFFFFFF000
FFFFFFFC0000000003FFFFFFF000
FFFFFFFC0000000003FFFFFFF000
FFFFFFFC0000000003FFFFFFF000
FFFFFFFC0000000003FFFFFFF000
FFFFFFFC0000000003FFFFFFF000
003FFFFFFFFFFFFFFFFFFFC00000
003FFFFFFFFFFFFFFFFFFFC00000
003FFFFFFFFFFFFFFFFFFFC00000
003FFFFFFFFFFFFFFFFFFFC00000
003FFFFFFFFFFFFFFFFFFFC00000
003FFFFFFFFFFFFFFFFFFFC00000
003FFFFFFFFFFFFFFFFFFFC00000
003FFFFFFFFFFFFFFFFFFFC00000
003FFFFFFFFFFFFFFFFFFFC00000
003FFFFFFFFFFFFFFFFFFFC00000
00000003FFFFFFFFFFFF00000000
00000003FFFFFFFFFFFF00000000
00000003FFFFFFFFFFFF00000000
00000003FFFFFFFFFFFF00000000
00000003FFFFFFFFFFFF00000000
00000003FFFFFFFFFFFF00000000
00000003FFFFFFFFFFFF00000000
00000003FFFFFFFFFFFF00000000
00000003FFFFFFFFFFFF00000000
00000003FFFFFFFFFFFF00000000
ENDCHAR
STARTCHAR six
ENCODING 54
SWIDTH 541 0
DWIDTH 130 0
BBX 110 170 10 0
BITMAP
0000000000FFFFFFFFFFFFC00000
0000000000FFFFFFFFFFFFC00000
0000000000FFFFFFFFFFFFC00000
0000000000FFFFFFFFFFFFC00000
0000000000FFFFFFFFFFFFC00000
0000000000FFFFFFFFFFFFC00000
0000000000FFFFFFFFFFFFC00000
0000000000FFFFFFFFFFFFC00000
0000000000FFFFFFFFFFFFC00000
0000000000FFFFFFFFFFFFC00000
00000FFFFFFFFFFFFFFFFFFFF000
00000FFFFFFFFFFFFFFFFFFFF000
00000FFFFFFFFFFFFFFFFFFFF000
00000FFFFFFFFFFFFFFFFFFFF000
00000FFFFFFFFFFFFFFFFFFFF000
00000FFFFFFFFFFFFFFFFFFFF000
00000FFFFFFFFFFFFFFFFFFFF000
00000FFFFFFFFFFFFFFFFFFFF000
00000FFFFFFFFFFFFFFFFFFFF000
00000FFFFFFFFFFFFFFFFFFFF000
003FFFFFFF0000000000FFFFFFFC
003FFFFFFF0000000000FFFFFFFC
003FFFFFFF0000000000FFFFFFFC
003FFFFFFF0000000000FFFFFFFC
003FFFFFFF0000000000FFFFFFFC
003FFFFFFF0000000000FFFFFFFC
003FFFFFFF0000000000FFFFFFFC
003FFFFFFF0000000000FFFFFFFC
003FFFFFFF0000000000FFFFFFFC
003FFFFFFF0000000000FFFFFFFC
003FFFFC000000000000003FF000
003FFFFC000000000000003FF000
003FFFFC000000000000003FF000
003FFFFC000000000000003FF000
003FFFFC000000000000003FF000
003FFFFC000000000000003FF000
003FFFFC000000000000003FF000
003FFFFC000000000000003FF000
003FFFFC000000000000003FF000
003FFFFC000000000000003FF000
003FFFFC00000000000000000000
003FFFFC00000000000000000000
003FFFFC00000000000000000000
003FFFFC00000000000000000000
003FFFFC00000000000000000000
003FFFFC00000000000000000000
003FFFFC00000000000000000000
003FFFFC00000000000000000000
003FFFFC00000000000000000000
003FFFFC00000000000000000000
FFFFF00000000000000000000000
FFFFF00000000000000000000000
FFFFF00000000000000000000000
FFFFF00000000000000000000000
FFFFF00000000000000000000000
FFFFF00000000000000000000000
FFFFF00000000000000000000000
FFFFF00000000000000000000000
FFFFF00000000000000000000000
FFFFF00000000000000000000000
FFFFF00000FFFFFFFFFF00000000
FFFFF00000FFFFFFFFFF00000000
FFFFF00000FFFFFFFFFF00000000
FFFFF00000FFFFFFFFFF00000000
FFFFF00000FFFFFFFFFF00000000
FFFFF00000FFFFFFFFFF00000000
FFFFF00000FFFFFFFFFF00000000
FFFFF00000FFFFFFFFFF00000000
FFFFF00000FFFFFFFFFF00000000
FFFFF00000FFFFFFFFFF00000000
FFFFF003FFFFFFFFFFFFFFFFF000
FFFFF003FFFFFFFFFFFFFFFFF000
FFFFF003FFFFFFFFFFFFFFFFF000
FFFFF003FFFFFFFFFFFFFFFFF000
FFFFF003FFFFFFFFFFFFFFFFF000
FFFFF003FFFFFFFFFFFFFFFFF000
FFFFF003FFFFFFFFFFFFFFFFF000
FFFFF003FFFFFFFFFFFFFFFFF000
FFFFF003FFFFFFFFFFFFFFFFF000
FFFFF003FFFFFFFFFFFFFFFFF000
FFFFFFFFFF0000000000FFFFF000
FFFFFFFFFF0000000000FFFFF000
FFFFFFFFFF0000000000FFFFF000
FFFFFFFFFF0000000000FFFFF000
FFFFFFFFFF0000000000FFFFF000
FFFFFFFFFF0000000000FFFFF000
FFFFFFFFFF0000000000FFFFF000
FFFFFFFFFF0000000000FFFFF000
FFFFFFFFFF0000000000FFFFF000
FFFFFFFFFF0000000000FFFFF000
FFFFFFFC000000000000003FFFFC
FFFFFFFC000000000000003FFFFC
FFFFFFFC000000000000003FFFFC
FFFFFFFC000000000000003FFFFC
FFFFFFFC000000000000003FFFFC
FFFFFFFC000000000000003FFFFC
FFFFFFFC000000000000003FFFFC
FFFFFFFC000000000000003FFFFC
FFFFFFFC000000000000003FFFFC
FFFFFFFC000000000000003FFFFC
FFFFF000000000000000003FFFFC
FFFFF000000000000000003FFFFC
FFFFF000000000000000003FFFFC
FFFFF000000000000000003FFFFC
FFFFF000000000000000003FFFFC
FFFFF000000000000000003FFFFC
FFFFF000000000000000003FFFFC
FFFFF000000000000000003FFFFC
FFFFF000000000000000003FFFFC
FFFFF000000000000000003FFFFC
FFFFF000000000000000003FFFFC
FFFFF000000000000000003FFFFC
FFFFF000000000000000003FFFFC
FFFFF000000000000000003FFFFC
FFFFF000000000000000003FFFFC
FFFFF000000000000000003FFFFC
FFFFF000000000000000003FFFFC
FFFFF000000000000000003FFFFC
FFFFF000000000000000003FFFFC
FFFFF000000000000000003FFFFC
FFFFF000000000000000003FFFFC
FFFFF000000000000000003FFFFC
FFFFF000000000000000003FFFFC
FFFFF000000000000000003FFFFC
FFFFF000000000000000003FFFFC
FFFFF000000000000000003FFFFC
FFFFF000000000000000003FFFFC
FFFFF000000000000000003FFFFC
FFFFF000000000000000003FFFFC
FFFFF000000000000000003FFFFC
003FFFFC000000000000003FFFFC
003FFFFC000000000000003FFFFC
003FFFFC000000000000003FFFFC
003FFFFC000000000000003FFFFC
003FFFFC000000000000003FFFFC
003FFFFC000000000000003FFFFC
003FFFFC000000000000003FFFFC
003FFFFC000000000000003FFFFC
003FFFFC000000000000003FFFFC
003FFFFC000000000000003FFFFC
003FFFFFFF0000000000FFFFF000
003FFFFFFF0000000000FFFFF000
003FFFFFFF0000000000FFFFF000
003FFFFFFF0000000000FFFFF000
003FFFFFFF0000000000FFFFF000
003FFFFFFF0000000000FFFFF000
003FFFFFFF0000000000FFFFF000
003FFFFFFF0000000000FFFFF000
003FFFFFFF0000000000FFFFF000
003FFFFFFF0000000000FFFFF000
00000FFFFFFFFFFFFFFFFFFFF000
00000FFFFFFFFFFFFFFFFFFFF000
00000FFFFFFFFFFFFFFFFFFFF000
00000FFFFFFFFFFFFFFFFFFFF000
00000FFFFFFFFFFFFFFFFFFFF000
00000FFFFFFFFFFFFFFFFFFFF000
00000FFFFFFFFFFFFFFFFFFFF000
00000FFFFFFFFFFFFFFFFFFFF000
00000FFFFFFFFFFFFFFFFFFFF000
00000FFFFFFFFFFFFFFFFFFFF000
00000003FFFFFFFFFFFF00000000
00000003FFFFFFFFFFFF00000000
00000003FFFFFFFFFFFF00000000
00000003FFFFFFFFFFFF00000000
00000003FFFFFFFFFFFF00000000
00000003FFFFFFFFFFFF00000000
00000003FFFFFFFFFFFF00000000
00000003FFFFFFFFFFFF00000000
00000003FFFFFFFFFFFF00000000
00000003FFFFFFFFFFFF00000000
ENDCHAR
STARTCHAR seven
ENCODING 55
SWIDTH 541 0
DWIDTH 130 0
BBX 110 170 10 0
BITMAP
FFFFFFFFFFFFFFFFFFFFFFFFFFFC
FFFFFFFFFFFFFFFFFFFFFFFFFFFC
FFFFFFFFFFFFFFFFFFFFFFFFFFFC
FFFFFFFFFFFFFFFFFFFFFFFFFFFC
FFFFFFFFFFFFFFFFFFFFFFFFFFFC
FFFFFFFFFFFFFFFFFFFFFFFFFFFC
FFFFFFFFFFFFFFFFFFFFFFFFFFFC
FFFFFFFFFFFFFFFFFFFFFFFFFFFC
FFFFFFFFFFFFFFFFFFFFFFFFFFFC
FFFFFFFFFFFFFFFFFFFFFFFFFFFC
FFFFFFFFFFFFFFFFFFFFFFFFFFFC
FFFFFFFFFFFFFFFFFFFFFFFFFFFC
FFFFFFFFFFFFFFFFFFFFFFFFFFFC
FFFFFFFFFFFFFFFFFFFFFFFFFFFC
FFFFFFFFFFFFFFFFFFFFFFFFFFFC
FFFFFFFFFFFFFFFFFFFFFFFFFFFC
FFFFFFFFFFFFFFFFFFFFFFFFFFFC
FFFFFFFFFFFFFFFFFFFFFFFFFFFC
FFFFFFFFFFFFFFFFFFFFFFFFFFFC
FFFFFFFFFFFFFFFFFFFFFFFFFFFC
00000000000000000000003FFFFC
00000000000000000000003FFFFC
00000000000000000000003FFFFC
00000000000000000000003FFFFC
00000000000000000000003FFFFC
00000000000000000000003FFFFC
00000000000000000000003FFFFC
00000000000000000000003FFFFC
00000000000000000000003FFFFC
00000000000000000000003FFFFC
00000000000000000000FFFFF000
00000000000000000000FFFFF000
00000000000000000000FFFFF000
00000000000000000000FFFFF000
00000000000000000000FFFFF000
00000000000000000000FFFFF000
00000000000000000000FFFFF000
00000000000000000000FFFFF000
00000000000000000000FFFFF000
00000000000000000000FFFFF000
000000000000000003FFFFC00000
000000000000000003FFFFC00000
000000000000000003FFFFC00000
000000000000000003FFFFC00000
000000000000000003FFFFC00000
000000000000000003FFFFC00000
000000000000000003FFFFC00000
000000000000000003FFFFC00000
000000000000000003FFFFC00000
000000000000000003FFFFC00000
000000000000000003FFFFC00000
000000000000000003FFFFC00000
000000000000000003FFFFC00000
000000000000000003FFFFC00000
000000000000000003FFFFC00000
000000000000000003FFFFC00000
000000000000000003FFFFC00000
000000000000000003FFFFC00000
000000000000000003FFFFC00000
000000000000000003FFFFC00000
000000000000000FFFFF00000000
000000000000000FFFFF00000000
000000000000000FFFFF00000000
000000000000000FFFFF00000000
000000000000000FFFFF00000000
000000000000000FFFFF00000000
000000000000000FFFFF00000000
000000000000000FFFFF00000000
000000000000000FFFFF00000000
000000000000000FFFFF00000000
000000000000000FFFFF00000000
000000000000000FFFFF00000000
000000000000000FFFFF00000000
000000000000000FFFFF00000000
000000000000000FFFFF00000000
000000000000000FFFFF00000000
000000000000000FFFFF00000000
000000000000000FFFFF00000000
000000000000000FFFFF00000000
000000000000000FFFFF00000000
0000000000003FFFFC0000000000
0000000000003FFFFC0000000000
0000000000003FFFFC0000000000
0000000000003FFFFC0000000000
0000000000003FFFFC0000000000
0000000000003FFFFC0000000000
0000000000003FFFFC0000000000
0000000000003FFFFC0000000000
0000000000003FFFFC0000000000
0000000000003FFFFC0000000000
0000000000003FFFFC0000000000
0000000000003FFFFC0000000000
0000000000003FFFFC0000000000
0000000000003FFFFC0000000000
0000000000003FFFFC0000000000
0000000000003FFFFC0000000000
0000000000003FFFFC0000000000
0000000000003FFFFC0000000000
0000000000003FFFFC0000000000
0000000000003FFFFC0000000000
0000000000FFFFF0000000000000
0000000000FFFFF0000000000000
0000000000FFFFF0000000000000
0000000000FFFFF0000000000000
0000000000FFFFF0000000000000
0000000000FFFFF0000000000000
0000000000FFFFF0000000000000
0000000000FFFFF0000000000000
0000000000FFFFF0000000000000
0000000000FFFFF0000000000000
0000000000FFFFF0000000000000
0000000000FFFFF0000000000000
0000000000FFFFF0000000000000
0000000000FFFFF0000000000000
0000000000FFFFF0000000000000
0000000000FFFFF0000000000000
0000000000FFFFF0000000000000
0000000000FFFFF0000000000000
0000000000FFFFF0000000000000
0000000000FFFFF0000000000000
0000000000FFFFF0000000000000
0000000000FFFFF0000000000000
0000000000FFFFF0000000000000
0000000000FFFFF0000000000000
0000000000FFFFF0000000000000
0000000000FFFFF0000000000000
0000000000FFFFF0000000000000
0000000000FFFFF0000000000000
0000000000FFFFF0000000000000
0000000000FFFFF0000000000000
00000003FFFFC000000000000000
00000003FFFFC000000000000000
00000003FFFFC000000000000000
00000003FFFFC000000000000000
00000003FFFFC000000000000000
00000003FFFFC000000000000000
00000003FFFFC000000000000000
00000003FFFFC000000000000000
00000003FFFFC000000000000000
00000003FFFFC000000000000000
00000003FFFFC000000000000000
00000003FFFFC000000000000000
00000003FFFFC000000000000000
00000003FFFFC000000000000000
00000003FFFFC000000000000000
00000003FFFFC000000000000000
00000003FFFFC000000000000000
00000003FFFFC000000000000000
00000003FFFFC000000000000000
00000003FFFFC000000000000000
00000003FFFFC000000000000000
00000003FFFFC000000000000000
00000003FFFFC000000000000000
00000003FFFFC000000000000000
00000003FFFFC000000000000000
00000003FFFFC000000000000000
00000003FFFFC000000000000000
00000003FFFFC000000000000000
00000003FFFFC000000000000000
00000003FFFFC000000000000000
00000003FFFFC000000000000000
00000003FFFFC000000000000000
00000003FFFFC000000000000000
00000003FFFFC000000000000000
00000003FFFFC000000000000000
00000003FFFFC000000000000000
00000003FFFFC000000000000000
00000003FFFFC000000000000000
00000003FFFFC000000000000000
00000003FFFFC000000000000000
ENDCHAR
STARTCHAR eight
ENCODING 56
SWIDTH 541 0
DWIDTH 130 0
BBX 110 170 10 0
BITMAP
00000003FFFFFFFFFFFF00000000
00000003FFFFFFFFFFFF00000000
00000003FFFFFFFFFFFF00000000
00000003FFFFFFFFFFFF00000000
00000003FFFFFFFFFFFF00000000
00000003FFFFFFFFFFFF00000000
00000003FFFFFFFFFFFF00000000
00000003FFFFFFFFFFFF00000000
00000003FFFFFFFFFFFF00000000
00000003FFFFFFFFFFFF00000000
003FFFFFFFFFFFFFFFFFFFFFF000
003FFFFFFFFFFFFFFFFFFFFFF000
003FFFFFFFFFFFFFFFFFFFFFF000
003FFFFFFFFFFFFFFFFFFFFFF000
003FFFFFFFFFFFFFFFFFFFFFF000
003FFFFFFFFFFFFFFFFFFFFFF000
003FFFFFFFFFFFFFFFFFFFFFF000
003FFFFFFFFFFFFFFFFFFFFFF000
003FFFFFFFFFFFFFFFFFFFFFF000
003FFFFFFFFFFFFFFFFFFFFFF000
FFFFFFFC000000000000FFFFFFFC
FFFFFFFC000000000000FFFFFFFC
FFFFFFFC000000000000FFFFFFFC
FFFFFFFC000000000000FFFFFFFC
FFFFFFFC000000000000FFFFFFFC
FFFFFFFC000000000000FFFFFFFC
FFFFFFFC000000000000FFFFFFFC
FFFFFFFC000000000000FFFFFFFC
FFFFFFFC000000000000FFFFFFFC
FFFFFFFC000000000000FFFFFFFC
FFFFF000000000000000003FFFFC
FFFFF000000000000000003FFFFC
FFFFF000000000000000003FFFFC
FFFFF000000000000000003FFFFC
FFFFF000000000000000003FFFFC
FFFFF000000000000000003FFFFC
FFFFF000000000000000003FFFFC
FFFFF000000000000000003FFFFC
FFFFF000000000000000003FFFFC
FFFFF000000000000000003FFFFC
FFFFF000000000000000003FFFFC
FFFFF000000000000000003FFFFC
FFFFF000000000000000003FFFFC
FFFFF000000000000000003FFFFC
FFFFF000000000000000003FFFFC
FFFFF000000000000000003FFFFC
FFFFF000000000000000003FFFFC
FFFFF000000000000000003FFFFC
FFFFF000000000000000003FFFFC
FFFFF000000000000000003FFFFC
FFFFF000000000000000003FFFFC
FFFFF000000000000000003FFFFC
FFFFF000000000000000003FFFFC
FFFFF000000000000000003FFFFC
FFFFF000000000000000003FFFFC
FFFFF000000000000000003FFFFC
FFFFF000000000000000003FFFFC
FFFFF000000000000000003FFFFC
FFFFF000000000000000003FFFFC
FFFFF000000000000000003FFFFC
003FFFFC000000000000FFFFF000
003FFFFC000000000000FFFFF000
003FFFFC000000000000FFFFF000
003FFFFC000000000000FFFFF000
003FFFFC000000000000FFFFF000
003FFFFC000000000000FFFFF000
003FFFFC000000000000FFFFF000
003FFFFC000000000000FFFFF000
003FFFFC000000000000FFFFF000
003FFFFC000000000000FFFFF000
00000FFFFFFFFFFFFFFFFFC00000
00000FFFFFFFFFFFFFFFFFC00000
00000FFFFFFFFFFFFFFFFFC00000
00000FFFFFFFFFFFFFFFFFC00000
00000FFFFFFFFFFFFFFFFFC00000
00000FFFFFFFFFFFFFFFFFC00000
00000FFFFFFFFFFFFFFFFFC00000
00000FFFFFFFFFFFFFFFFFC00000
00000FFFFFFFFFFFFFFFFFC00000
00000FFFFFFFFFFFFFFFFFC00000
00000FFFFFFFFFFFFFFFFFC00000
00000FFFFFFFFFFFFFFFFFC00000
00000FFFFFFFFFFFFFFFFFC00000
00000FFFFFFFFFFFFFFFFFC00000
00000FFFFFFFFFFFFFFFFFC00000
00000FFFFFFFFFFFFFFFFFC00000
00000FFFFFFFFFFFFFFFFFC00000
00000FFFFFFFFFFFFFFFFFC00000
00000FFFFFFFFFFFFFFFFFC00000
00000FFFFFFFFFFFFFFFFFC00000
003FFFFC000000000000FFFFF000
003FFFFC000000000000FFFFF000
003FFFFC000000000000FFFFF000
003FFFFC000000000000FFFFF000
003FFFFC000000000000FFFFF000
003FFFFC000000000000FFFFF000
003FFFFC000000000000FFFFF000
003FFFFC000000000000FFFFF000
003FFFFC000000000000FFFFF000
003FFFFC000000000000FFFFF000
FFFFF000000000000000003FFFFC
FFFFF000000000000000003FFFFC
FFFFF000000000000000003FFFFC
FFFFF000000000000000003FFFFC
FFFFF000000000000000003FFFFC
FFFFF000000000000000003FFFFC
FFFFF000000000000000003FFFFC
FFFFF000000000000000003FFFFC
FFFFF000000000000000003FFFFC
FFFFF000000000000000003FFFFC
FFFFF000000000000000003FFFFC
FFFFF000000000000000003FFFFC
FFFFF000000000000000003FFFFC
FFFFF000000000000000003FFFFC
FFFFF000000000000000003FFFFC
FFFFF000000000000000003FFFFC
FFFFF000000000000000003FFFFC
FFFFF000000000000000003FFFFC
FFFFF000000000000000003FFFFC
FFFFF000000000000000003FFFFC
FFFFF000000000000000003FFFFC
FFFFF000000000000000003FFFFC
FFFFF000000000000000003FFFFC
FFFFF000000000000000003FFFFC
FFFFF000000000000000003FFFFC
FFFFF000000000000000003FFFFC
FFFFF000000000000000003FFFFC
FFFFF000000000000000003FFFFC
FFFFF000000000000000003FFFFC
FFFFF000000000000000003FFFFC
FFFFF000000000000000003FFFFC
FFFFF000000000000000003FFFFC
FFFFF000000000000000003FFFFC
FFFFF000000000000000003FFFFC
FFFFF000000000000000003FFFFC
FFFFF000000000000000003FFFFC
FFFFF000000000000000003FFFFC
FFFFF000000000000000003FFFFC
FFFFF000000000000000003FFFFC
FFFFF000000000000000003FFFFC
FFFFFFFC000000000000FFFFF000
FFFFFFFC000000000000FFFFF000
FFFFFFFC000000000000FFFFF000
FFFFFFFC000000000000FFFFF000
FFFFFFFC000000000000FFFFF000
FFFFFFFC000000000000FFFFF000
FFFFFFFC000000000000FFFFF000
FFFFFFFC000000000000FFFFF000
FFFFFFFC000000000000FFFFF000
FFFFFFFC000000000000FFFFF000
003FFFFFFFFFFFFFFFFFFFFFF000
003FFFFFFFFFFFFFFFFFFFFFF000
003FFFFFFFFFFFFFFFFFFFFFF000
003FFFFFFFFFFFFFFFFFFFFFF000
003FFFFFFFFFFFFFFFFFFFFFF000
003FFFFFFFFFFFFFFFFFFFFFF000
003FFFFFFFFFFFFFFFFFFFFFF000
003FFFFFFFFFFFFFFFFFFFFFF000
003FFFFFFFFFFFFFFFFFFFFFF000
003FFFFFFFFFFFFFFFFFFFFFF000
00000003FFFFFFFFFFFF00000000
00000003FFFFFFFFFFFF00000000
00000003FFFFFFFFFFFF00000000
00000003FFFFFFFFFFFF00000000
00000003FFFFFFFFFFFF00000000
00000003FFFFFFFFFFFF00000000
00000003FFFFFFFFFFFF00000000
00000003FFFFFFFFFFFF00000000
00000003FFFFFFFFFFFF00000000
00000003FFFFFFFFFFFF00000000
ENDCHAR
STARTCHAR nine
ENCODING 57
SWIDTH 541 0
DWIDTH 130 0
BBX 110 170 10 0
BITMAP
00000003FFFFFFFFFFFF00000000
00000003FFFFFFFFFFFF00000000
00000003FFFFFFFFFFFF00000000
00000003FFFFFFFFFFFF00000000
00000003FFFFFFFFFFFF00000000
00000003FFFFFFFFFFFF00000000
00000003FFFFFFFFFFFF00000000
00000003FFFFFFFFFFFF00000000
00000003FFFFFFFFFFFF00000000
00000003FFFFFFFFFFFF00000000
003FFFFFFFFFFFFFFFFFFFC00000
003FFFFFFFFFFFFFFFFFFFC00000
003FFFFFFFFFFFFFFFFFFFC00000
003FFFFFFFFFFFFFFFFFFFC00000
003FFFFFFFFFFFFFFFFFFFC00000
003FFFFFFFFFFFFFFFFFFFC00000
003FFFFFFFFFFFFFFFFFFFC00000
003FFFFFFFFFFFFFFFFFFFC00000
003FFFFFFFFFFFFFFFFFFFC00000
003FFFFFFFFFFFFFFFFFFFC00000
003FFFFC0000000003FFFFFFF000
003FFFFC0000000003FFFFFFF000
003FFFFC0000000003FFFFFFF000
003FFFFC0000000003FFFFFFF000
003FFFFC0000000003FFFFFFF000
003FFFFC0000000003FFFFFFF000
003FFFFC0000000003FFFFFFF000
003FFFFC0000000003FFFFFFF000
003FFFFC0000000003FFFFFFF000
003FFFFC0000000003FFFFFFF000
FFFFF000000000000000FFFFF000
FFFFF000000000000000FFFFF000
FFFFF000000000000000FFFFF000
FFFFF000000000000000FFFFF000
FFFFF000000000000000FFFFF000
FFFFF000000000000000FFFFF000
FFFFF000000000000000FFFFF000
FFFFF000000000000000FFFFF000
FFFFF000000000000000FFFFF000
FFFFF000000000000000FFFFF000
FFFFF000000000000000003FFFFC
FFFFF000000000000000003FFFFC
FFFFF000000000000000003FFFFC
FFFFF000000000000000003FFFFC
FFFFF000000000000000003FFFFC
FFFFF000000000000000003FFFFC
FFFFF000000000000000003FFFFC
FFFFF000000000000000003FFFFC
FFFFF000000000000000003FFFFC
FFFFF000000000000000003FFFFC
FFFFF000000000000000003FFFFC
FFFFF000000000000000003FFFFC
FFFFF000000000000000003FFFFC
FFFFF000000000000000003FFFFC
FFFFF000000000000000003FFFFC
FFFFF000000000000000003FFFFC
FFFFF000000000000000003FFFFC
FFFFF000000000000000003FFFFC
FFFFF000000000000000003FFFFC
FFFFF000000000000000003FFFFC
FFFFF000000000000000003FFFFC
FFFFF000000000000000003FFFFC
FFFFF000000000000000003FFFFC
FFFFF000000000000000003FFFFC
FFFFF000000000000000003FFFFC
FFFFF000000000000000003FFFFC
FFFFF000000000000000003FFFFC
FFFFF000000000000000003FFFFC
FFFFF000000000000000003FFFFC
FFFFF000000000000000003FFFFC
FFFFFFFC000000000000FFFFFFFC
FFFFFFFC000000000000FFFFFFFC
FFFFFFFC000000000000FFFFFFFC
FFFFFFFC000000000000FFFFFFFC
FFFFFFFC000000000000FFFFFFFC
FFFFFFFC000000000000FFFFFFFC
FFFFFFFC000000000000FFFFFFFC
FFFFFFFC000000000000FFFFFFFC
FFFFFFFC000000000000FFFFFFFC
FFFFFFFC000000000000FFFFFFFC
003FFFFC0000000003FFFFFFFFFC
003FFFFC0000000003FFFFFFFFFC
003FFFFC0000000003FFFFFFFFFC
003FFFFC0000000003FFFFFFFFFC
003FFFFC0000000003FFFFFFFFFC
003FFFFC0000000003FFFFFFFFFC
003FFFFC0000000003FFFFFFFFFC
003FFFFC0000000003FFFFFFFFFC
003FFFFC0000000003FFFFFFFFFC
003FFFFC0000000003FFFFFFFFFC
003FFFFFFFFFFFFFFFFF003FFFFC
003FFFFFFFFFFFFFFFFF003FFFFC
003FFFFFFFFFFFFFFFFF003FFFFC
003FFFFFFFFFFFFFFFFF003FFFFC
003FFFFFFFFFFFFFFFFF003FFFFC
003FFFFFFFFFFFFFFFFF003FFFFC
003FFFFFFFFFFFFFFFFF003FFFFC
003FFFFFFFFFFFFFFFFF003FFFFC
003FFFFFFFFFFFFFFFFF003FFFFC
003FFFFFFFFFFFFFFFFF003FFFFC
00000003FFFFFFFFFC00003FFFFC
00000003FFFFFFFFFC00003FFFFC
00000003FFFFFFFFFC00003FFFFC
00000003FFFFFFFFFC00003FFFFC
00000003FFFFFFFFFC00003FFFFC
00000003FFFFFFFFFC00003FFFFC
00000003FFFFFFFFFC00003FFFFC
00000003FFFFFFFFFC00003FFFFC
00000003FFFFFFFFFC00003FFFFC
00000003FFFFFFFFFC00003FFFFC
00000000000000000000003FFFFC
00000000000000000000003FFFFC
00000000000000000000003FFFFC
00000000000000000000003FFFFC
00000000000000000000003FFFFC
00000000000000000000003FFFFC
00000000000000000000003FFFFC
00000000000000000000003FFFFC
00000000000000000000003FFFFC
00000000000000000000003FFFFC
00000000000000000000FFFFF000
00000000000000000000FFFFF000
00000000000000000000FFFFF000
00000000000000000000FFFFF000
00000000000000000000FFFFF000
00000000000000000000FFFFF000
00000000000000000000FFFFF000
00000000000000000000FFFFF000
00000000000000000000FFFFF000
00000000000000000000FFFFF000
FFFFF000000000000000FFFFF000
FFFFF000000000000000FFFFF000
FFFFF000000000000000FFFFF000
FFFFF000000000000000FFFFF000
FFFFF000000000000000FFFFF000
FFFFF000000000000000FFFFF000
FFFFF000000000000000FFFFF000
FFFFF000000000000000FFFFF000
FFFFF000000000000000FFFFF000
FFFFF000000000000000FFFFF000
FFFFFFFC0000000003FFFFFFF000
FFFFFFFC0000000003FFFFFFF000
FFFFFFFC0000000003FFFFFFF000
FFFFFFFC0000000003FFFFFFF000
FFFFFFFC0000000003FFFFFFF000
FFFFFFFC0000000003FFFFFFF000
FFFFFFFC0000000003FFFFFFF000
FFFFFFFC0000000003FFFFFFF000
FFFFFFFC0000000003FFFFFFF000
FFFFFFFC0000000003FFFFFFF000
003FFFFFFFFFFFFFFFFFFFC00000
003FFFFFFFFFFFFFFFFFFFC00000
003FFFFFFFFFFFFFFFFFFFC00000
003FFFFFFFFFFFFFFFFFFFC00000
003FFFFFFFFFFFFFFFFFFFC00000
003FFFFFFFFFFFFFFFFFFFC00000
003FFFFFFFFFFFFFFFFFFFC00000
003FFFFFFFFFFFFFFFFFFFC00000
003FFFFFFFFFFFFFFFFFFFC00000
003FFFFFFFFFFFFFFFFFFFC00000
00000FFFFFFFFFFFFC0000000000
00000FFFFFFFFFFFFC0000000000
00000FFFFFFFFFFFFC0000000000
00000FFFFFFFFFFFFC0000000000
00000FFFFFFFFFFFFC0000000000
00000FFFFFFFFFFFFC0000000000
00000FFFFFFFFFFFFC0000000000
00000FFFFFFFFFFFFC0000000000
00000FFFFFFFFFFFFC0000000000
00000FFFFFFFFFFFFC0000000000
ENDCHAR
STARTCHAR colon
ENCODING 58
SWIDTH 250 0
DWIDTH 60 0
BBX 20 130 20 0
BITMAP
FFFFF0
FFFFF0
FFFFF0
FFFFF0
FFFFF0
FFFFF0
FFFFF0
FFFFF0
FFFFF0
FFFFF0
FFFFF0
FFFFF0
FFFFF0
FFFFF0
FFFFF0
FFFFF0
FFFFF0
FFFFF0
FFFFF0
FFFFF0
FFFFF0
FFFFF0
FFFFF0
FFFFF0
FFFFF0
FFFFF0
FFFFF0
FFFFF0
FFFFF0
FFFFF0
000000
000000
000000
000000
000000
000000
000000
000000
000000
000000
000000
000000
000000
000000
000000
000000
000000
000000
000000
000000
000000
000000
000000
000000
000000
000000
000000
000000
000000
000000
000000
000000
000000
000000
000000
000000
000000
000000
000000
000000
000000
000000
000000
000000
000000
000000
000000
000000
000000
000000
000000
000000
000000
000000
000000
000000
000000
000000
000000
000000
000000
000000
000000
000000
000000
000000
000000
000000
000000
000000
FFFFF0
FFFFF0
FFFFF0
FFFFF0
FFFFF0
FFFFF0
FFFFF0
FFFFF0
FFFFF0
FFFFF0
FFFFF0
FFFFF0
FFFFF0
FFFFF0
FFFFF0
FFFFF0
FFFFF0
FFFFF0
FFFFF0
FFFFF0
FFFFF0
FFFFF0
FFFFF0
FFFFF0
FFFFF0
FFFFF0
FFFFF0
FFFFF0
FFFFF0
FFFFF0
ENDCHAR
STARTCHAR semicolon
ENCODING 59
SWIDTH 250 0
DWIDTH 60 0
BBX 20 160 20 -30
BITMAP
FFFFF0
FFFFF0
FFFFF0
FFFFF0
FFFFF0
FFFFF0
FFFFF0
FFFFF0
FFFFF0
FFFFF0
FFFFF0
FFFFF0
FFFFF0
FFFFF0
FFFFF0
FFFFF0
FFFFF0
FFFFF0
FFFFF0
FFFFF0
FFFFF0
FFFFF0
FFFFF0
FFFFF0
FFFFF0
FFFFF0
FFFFF0
FFFFF0
FFFFF0
FFFFF0
000000
000000
000000
000000
000000
000000
000000
000000
000000
000000
000000
000000
000000
000000
000000
000000
000000
000000
000000
000000
000000
000000
000000
000000
000000
000000
000000
000000
000000
000000
000000
000000
000000
000000
000000
000000
000000
000000
000000
000000
000000
000000
000000
000000
000000
000000
000000
000000
000000
000000
000000
000000
000000
000000
000000
000000
000000
000000
000000
000000
000000
000000
000000
000000
000000
000000
000000
000000
000000
000000
FFFFF0
FFFFF0
FFFFF0
FFFFF0
FFFFF0
FFFFF0
FFFFF0
FFFFF0
FFFFF0
FFFFF0
FFFFF0
FFFFF0
FFFFF0
FFFFF0
FFFFF0
FFFFF0
FFFFF0
FFFFF0
FFFFF0
FFFFF0
FFFFF0
FFFFF0
FFFFF0
FFFFF0
FFFFF0
FFFFF0
FFFFF0
FFFFF0
FFFFF0
FFFFF0
003FF0
003FF0
003FF0
003FF0
003FF0
003FF0
003FF0
003FF0
003FF0
003FF0
003FF0
003FF0
003FF0
003FF0
003FF0
003FF0
003FF0
003FF0
003FF0
003FF0
FFC000
FFC000
FFC000
FFC000
FFC000
FFC000
FFC000
FFC000
FFC000
FFC000
ENDCHAR
STARTCHAR less
ENCODING 60
SWIDTH 541 0
DWIDTH 130 0
BBX 120 130 10 10
BITMAP
0000000000000000000000000003FF
0000000000000000000000000003FF
0000000000000000000000000003FF
0000000000000000000000000003FF
0000000000000000000000000003FF
0000000000000000000000000003FF
0000000000000000000000000003FF
0000000000000000000000000003FF
0000000000000000000000000003FF
0000000000000000000000000003FF
00000000000000000000003FFFFFFF
00000000000000000000003FFFFFFF
00000000000000000000003FFFFFFF
00000000000000000000003FFFFFFF
00000000000000000000003FFFFFFF
00000000000000000000003FFFFFFF
00000000000000000000003FFFFFFF
00000000000000000000003FFFFFFF
00000000000000000000003FFFFFFF
00000000000000000000003FFFFFFF
000000000000000FFFFFFFFFFFFC00
000000000000000FFFFFFFFFFFFC00
000000000000000FFFFFFFFFFFFC00
000000000000000FFFFFFFFFFFFC00
000000000000000FFFFFFFFFFFFC00
000000000000000FFFFFFFFFFFFC00
000000000000000FFFFFFFFFFFFC00
000000000000000FFFFFFFFFFFFC00
000000000000000FFFFFFFFFFFFC00
000000000000000FFFFFFFFFFFFC00
0000000000FFFFFFFFFFFFC0000000
0000000000FFFFFFFFFFFFC0000000
0000000000FFFFFFFFFFFFC0000000
0000000000FFFFFFFFFFFFC0000000
0000000000FFFFFFFFFFFFC0000000
0000000000FFFFFFFFFFFFC0000000
0000000000FFFFFFFFFFFFC0000000
0000000000FFFFFFFFFFFFC0000000
0000000000FFFFFFFFFFFFC0000000
0000000000FFFFFFFFFFFFC0000000
00000FFFFFFFFFF000000000000000
00000FFFFFFFFFF000000000000000
00000FFFFFFFFFF000000000000000
00000FFFFFFFFFF000000000000000
00000FFFFFFFFFF000000000000000
00000FFFFFFFFFF000000000000000
00000FFFFFFFFFF000000000000000
00000FFFFFFFFFF000000000000000
00000FFFFFFFFFF000000000000000
00000FFFFFFFFFF000000000000000
FFFFFFFFFF00000000000000000000
FFFFFFFFFF00000000000000000000
FFFFFFFFFF00000000000000000000
FFFFFFFFFF00000000000000000000
FFFFFFFFFF00000000000000000000
FFFFFFFFFF00000000000000000000
FFFFFFFFFF00000000000000000000
FFFFFFFFFF00000000000000000000
FFFFFFFFFF00000000000000000000
FFFFFFFFFF00000000000000000000
FFFFF0000000000000000000000000
FFFFF0000000000000000000000000
FFFFF0000000000000000000000000
FFFFF0000000000000000000000000
FFFFF0000000000000000000000000
FFFFF0000000000000000000000000
FFFFF0000000000000000000000000
FFFFF0000000000000000000000000
FFFFF0000000000000000000000000
FFFFF0000000000000000000000000
FFFFFFFFFF00000000000000000000
FFFFFFFFFF00000000000000000000
FFFFFFFFFF00000000000000000000
FFFFFFFFFF00000000000000000000
FFFFFFFFFF00000000000000000000
FFFFFFFFFF00000000000000000000
FFFFFFFFFF00000000000000000000
FFFFFFFFFF00000000000000000000
FFFFFFFFFF00000000000000000000
FFFFFFFFFF00000000000000000000
00000FFFFFFFFFF000000000000000
00000FFFFFFFFFF000000000000000
00000FFFFFFFFFF000000000000000
00000FFFFFFFFFF000000000000000
00000FFFFFFFFFF000000000000000
00000FFFFFFFFFF000000000000000
00000FFFFFFFFFF000000000000000
00000FFFFFFFFFF000000000000000
00000FFFFFFFFFF000000000000000
00000FFFFFFFFFF000000000000000
0000000000FFFFFFFFFFFFC0000000
0000000000FFFFFFFFFFFFC0000000
0000000000FFFFFFFFFFFFC0000000
0000000000FFFFFFFFFFFFC0000000
0000000000FFFFFFFFFFFFC0000000
0000000000FFFFFFFFFFFFC0000000
0000000000FFFFFFFFFFFFC0000000
0000000000FFFFFFFFFFFFC0000000
0000000000FFFFFFFFFFFFC0000000
0000000000FFFFFFFFFFFFC0000000
000000000000000FFFFFFFFFFFFC00
000000000000000FFFFFFFFFFFFC00
000000000000000FFFFFFFFFFFFC00
000000000000000FFFFFFFFFFFFC00
000000000000000FFFFFFFFFFFFC00
000000000000000FFFFFFFFFFFFC00
000000000000000FFFFFFFFFFFFC00
000000000000000FFFFFFFFFFFFC00
000000000000000FFFFFFFFFFFFC00
000000000000000FFFFFFFFFFFFC00
00000000000000000000003FFFFFFF
00000000000000000000003FFFFFFF
00000000000000000000003FFFFFFF
00000000000000000000003FFFFFFF
00000000000000000000003FFFFFFF
00000000000000000000003FFFFFFF
00000000000000000000003FFFFFFF
00000000000000000000003FFFFFFF
00000000000000000000003FFFFFFF
00000000000000000000003FFFFFFF
0000000000000000000000000003FF
0000000000000000000000000003FF
0000000000000000000000000003FF
0000000000000000000000000003FF
0000000000000000000000000003FF
0000000000000000000000000003FF
0000000000000000000000000003FF
0000000000000000000000000003FF
0000000000000000000000000003FF
0000000000000000000000000003FF
ENDCHAR
STARTCHAR equal
ENCODING 61
SWIDTH 541 0
DWIDTH 130 0
BBX 120 80 10 40
BITMAP
FFFFFFFFFFFFFFFFFFFFFFFFFFFFFF
FFFFFFFFFFFFFFFFFFFFFFFFFFFFFF
FFFFFFFFFFFFFFFFFFFFFFFFFFFFFF
FFFFFFFFFFFFFFFFFFFFFFFFFFFFFF
FFFFFFFFFFFFFFFFFFFFFFFFFFFFFF
FFFFFFFFFFFFFFFFFFFFFFFFFFFFFF
FFFFFFFFFFFFFFFFFFFFFFFFFFFFFF
FFFFFFFFFFFFFFFFFFFFFFFFFFFFFF
FFFFFFFFFFFFFFFFFFFFFFFFFFFFFF
FFFFFFFFFFFFFFFFFFFFFFFFFFFFFF
FFFFFFFFFFFFFFFFFFFFFFFFFFFFFF
FFFFFFFFFFFFFFFFFFFFFFFFFFFFFF
FFFFFFFFFFFFFFFFFFFFFFFFFFFFFF
FFFFFFFFFFFFFFFFFFFFFFFFFFFFFF
FFFFFFFFFFFFFFFFFFFFFFFFFFFFFF
FFFFFFFFFFFFFFFFFFFFFFFFFFFFFF
FFFFFFFFFFFFFFFFFFFFFFFFFFFFFF
FFFFFFFFFFFFFFFFFFFFFFFFFFFFFF
FFFFFFFFFFFFFFFFFFFFFFFFFFFFFF
FFFFFFFFFFFFFFFFFFFFFFFFFFFFFF
000000000000000000000000000000
000000000000000000000000000000
000000000000000000000000000000
000000000000000000000000000000
000000000000000000000000000000
000000000000000000000000000000
000000000000000000000000000000
000000000000000000000000000000
000000000000000000000000000000
000000000000000000000000000000
000000000000000000000000000000
000000000000000000000000000000
000000000000000000000000000000
000000000000000000000000000000
000000000000000000000000000000
000000000000000000000000000000
000000000000000000000000000000
000000000000000000000000000000
000000000000000000000000000000
000000000000000000000000000000
000000000000000000000000000000
000000000000000000000000000000
000000000000000000000000000000
000000000000000000000000000000
000000000000000000000000000000
000000000000000000000000000000
000000000000000000000000000000
000000000000000000000000000000
000000000000000000000000000000
000000000000000000000000000000
000000000000000000000000000000
000000000000000000000000000000
000000000000000000000000000000
000000000000000000000000000000
000000000000000000000000000000
000000000000000000000000000000
000000000000000000000000000000
000000000000000000000000000000
000000000000000000000000000000
000000000000000000000000000000
FFFFFFFFFFFFFFFFFFFFFFFFFFFFFF
FFFFFFFFFFFFFFFFFFFFFFFFFFFFFF
FFFFFFFFFFFFFFFFFFFFFFFFFFFFFF
FFFFFFFFFFFFFFFFFFFFFFFFFFFFFF
FFFFFFFFFFFFFFFFFFFFFFFFFFFFFF
FFFFFFFFFFFFFFFFFFFFFFFFFFFFFF
FFFFFFFFFFFFFFFFFFFFFFFFFFFFFF
FFFFFFFFFFFFFFFFFFFFFFFFFFFFFF
FFFFFFFFFFFFFFFFFFFFFFFFFFFFFF
FFFFFFFFFFFFFFFFFFFFFFFFFFFFFF
FFFFFFFFFFFFFFFFFFFFFFFFFFFFFF
FFFFFFFFFFFFFFFFFFFFFFFFFFFFFF
FFFFFFFFFFFFFFFFFFFFFFFFFFFFFF
FFFFFFFFFFFFFFFFFFFFFFFFFFFFFF
FFFFFFFFFFFFFFFFFFFFFFFFFFFFFF
FFFFFFFFFFFFFFFFFFFFFFFFFFFFFF
FFFFFFFFFFFFFFFFFFFFFFFFFFFFFF
FFFFFFFFFFFFFFFFFFFFFFFFFFFFFF
FFFFFFFFFFFFFFFFFFFFFFFFFFFFFF
FFFFFFFFFFFFFFFFFFFFFFFFFFFFFF
ENDCHAR
STARTCHAR greater
ENCODING 62
SWIDTH 541 0
DWIDTH 130 0
BBX 120 130 10 10
BITMAP
FFC000000000000000000000000000
FFC000000000000000000000000000
FFC000000000000000000000000000
FFC000000000000000000000000000
FFC000000000000000000000000000
FFC000000000000000000000000000
FFC000000000000000000000000000
FFC000000000000000000000000000
FFC000000000000000000000000000
FFC000000000000000000000000000
FFFFFFFC0000000000000000000000
FFFFFFFC0000000000000000000000
FFFFFFFC0000000000000000000000
FFFFFFFC0000000000000000000000
FFFFFFFC0000000000000000000000
FFFFFFFC0000000000000000000000
FFFFFFFC0000000000000000000000
FFFFFFFC0000000000000000000000
FFFFFFFC0000000000000000000000
FFFFFFFC0000000000000000000000
003FFFFFFFFFFFF000000000000000
003FFFFFFFFFFFF000000000000000
003FFFFFFFFFFFF000000000000000
003FFFFFFFFFFFF000000000000000
003FFFFFFFFFFFF000000000000000
003FFFFFFFFFFFF000000000000000
003FFFFFFFFFFFF000000000000000
003FFFFFFFFFFFF000000000000000
003FFFFFFFFFFFF000000000000000
003FFFFFFFFFFFF000000000000000
00000003FFFFFFFFFFFF0000000000
00000003FFFFFFFFFFFF0000000000
00000003FFFFFFFFFFFF0000000000
00000003FFFFFFFFFFFF0000000000
00000003FFFFFFFFFFFF0000000000
00000003FFFFFFFFFFFF0000000000
00000003FFFFFFFFFFFF0000000000
00000003FFFFFFFFFFFF0000000000
00000003FFFFFFFFFFFF0000000000
00000003FFFFFFFFFFFF0000000000
000000000000000FFFFFFFFFF00000
000000000000000FFFFFFFFFF00000
000000000000000FFFFFFFFFF00000
000000000000000FFFFFFFFFF00000
000000000000000FFFFFFFFFF00000
000000000000000FFFFFFFFFF00000
000000000000000FFFFFFFFFF00000
000000000000000FFFFFFFFFF00000
000000000000000FFFFFFFFFF00000
000000000000000FFFFFFFFFF00000
00000000000000000000FFFFFFFFFF
00000000000000000000FFFFFFFFFF
00000000000000000000FFFFFFFFFF
00000000000000000000FFFFFFFFFF
00000000000000000000FFFFFFFFFF
00000000000000000000FFFFFFFFFF
00000000000000000000FFFFFFFFFF
00000000000000000000FFFFFFFFFF
00000000000000000000FFFFFFFFFF
00000000000000000000FFFFFFFFFF
0000000000000000000000000FFFFF
0000000000000000000000000FFFFF
0000000000000000000000000FFFFF
0000000000000000000000000FFFFF
0000000000000000000000000FFFFF
0000000000000000000000000FFFFF
0000000000000000000000000FFFFF
0000000000000000000000000FFFFF
0000000000000000000000000FFFFF
0000000000000000000000000FFFFF
00000000000000000000FFFFFFFFFF
00000000000000000000FFFFFFFFFF
00000000000000000000FFFFFFFFFF
00000000000000000000FFFFFFFFFF
00000000000000000000FFFFFFFFFF
00000000000000000000FFFFFFFFFF
00000000000000000000FFFFFFFFFF
00000000000000000000FFFFFFFFFF
00000000000000000000FFFFFFFFFF
00000000000000000000FFFFFFFFFF
000000000000000FFFFFFFFFF00000
000000000000000FFFFFFFFFF00000
000000000000000FFFFFFFFFF00000
000000000000000FFFFFFFFFF00000
000000000000000FFFFFFFFFF00000
000000000000000FFFFFFFFFF00000
000000000000000FFFFFFFFFF00000
000000000000000FFFFFFFFFF00000
000000000000000FFFFFFFFFF00000
000000000000000FFFFFFFFFF00000
00000003FFFFFFFFFFFF0000000000
00000003FFFFFFFFFFFF0000000000
00000003FFFFFFFFFFFF0000000000
00000003FFFFFFFFFFFF0000000000
00000003FFFFFFFFFFFF0000000000
00000003FFFFFFFFFFFF0000000000
00000003FFFFFFFFFFFF0000000000
00000003FFFFFFFFFFFF0000000000
00000003FFFFFFFFFFFF0000000000
00000003FFFFFFFFFFFF0000000000
003FFFFFFFFFFFF000000000000000
003FFFFFFFFFFFF000000000000000
003FFFFFFFFFFFF000000000000000
003FFFFFFFFFFFF000000000000000
003FFFFFFFFFFFF000000000000000
003FFFFFFFFFFFF000000000000000
003FFFFFFFFFFFF000000000000000
003FFFFFFFFFFFF000000000000000
003FFFFFFFFFFFF000000000000000
003FFFFFFFFFFFF000000000000000
FFFFFFFC0000000000000000000000
FFFFFFFC0000000000000000000000
FFFFFFFC0000000000000000000000
FFFFFFFC0000000000000000000000
FFFFFFFC0000000000000000000000
FFFFFFFC0000000000000000000000
FFFFFFFC0000000000000000000000
FFFFFFFC0000000000000000000000
FFFFFFFC0000000000000000000000
FFFFFFFC0000000000000000000000
FFC000000000000000000000000000
FFC000000000000000000000000000
FFC000000000000000000000000000
FFC000000000000000000000000000
FFC000000000000000000000000000
FFC000000000000000000000000000
FFC000000000000000000000000000
FFC000000000000000000000000000
FFC000000000000000000000000000
FFC000000000000000000000000000
ENDCHAR
STARTCHAR question
ENCODING 63
SWIDTH 541 0
DWIDTH 130 0
BBX 110 170 10 0
BITMAP
00000003FFFFFFFFFFFF00000000
00000003FFFFFFFFFFFF00000000
00000003FFFFFFFFFFFF00000000
00000003FFFFFFFFFFFF00000000
00000003FFFFFFFFFFFF00000000
00000003FFFFFFFFFFFF00000000
00000003FFFFFFFFFFFF00000000
00000003FFFFFFFFFFFF00000000
00000003FFFFFFFFFFFF00000000
00000003FFFFFFFFFFFF00000000
003FFFFFFFFFFFFFFFFFFFFFF000
003FFFFFFFFFFFFFFFFFFFFFF000
003FFFFFFFFFFFFFFFFFFFFFF000
003FFFFFFFFFFFFFFFFFFFFFF000
003FFFFFFFFFFFFFFFFFFFFFF000
003FFFFFFFFFFFFFFFFFFFFFF000
003FFFFFFFFFFFFFFFFFFFFFF000
003FFFFFFFFFFFFFFFFFFFFFF000
003FFFFFFFFFFFFFFFFFFFFFF000
003FFFFFFFFFFFFFFFFFFFFFF000
003FFFFFFF0000000000FFFFFFFC
003FFFFFFF0000000000FFFFFFFC
003FFFFFFF0000000000FFFFFFFC
003FFFFFFF0000000000FFFFFFFC
003FFFFFFF0000000000FFFFFFFC
003FFFFFFF0000000000FFFFFFFC
003FFFFFFF0000000000FFFFFFFC
003FFFFFFF0000000000FFFFFFFC
003FFFFFFF0000000000FFFFFFFC
003FFFFFFF0000000000FFFFFFFC
FFFFF000000000000000003FFFFC
FFFFF000000000000000003FFFFC
FFFFF000000000000000003FFFFC
FFFFF000000000000000003FFFFC
FFFFF000000000000000003FFFFC
FFFFF000000000000000003FFFFC
FFFFF000000000000000003FFFFC
FFFFF000000000000000003FFFFC
FFFFF000000000000000003FFFFC
FFFFF000000000000000003FFFFC
FFFFF000000000000000003FFFFC
FFFFF000000000000000003FFFFC
FFFFF000000000000000003FFFFC
FFFFF000000000000000003FFFFC
FFFFF000000000000000003FFFFC
FFFFF000000000000000003FFFFC
FFFFF000000000000000003FFFFC
FFFFF000000000000000003FFFFC
FFFFF000000000000000003FFFFC
FFFFF000000000000000003FFFFC
00000000000000000000003FFFFC
00000000000000000000003FFFFC
00000000000000000000003FFFFC
00000000000000000000003FFFFC
00000000000000000000003FFFFC
00000000000000000000003FFFFC
00000000000000000000003FFFFC
00000000000000000000003FFFFC
00000000000000000000003FFFFC
00000000000000000000003FFFFC
00000000000000000000FFFFFFFC
00000000000000000000FFFFFFFC
00000000000000000000FFFFFFFC
00000000000000000000FFFFFFFC
00000000000000000000FFFFFFFC
00000000000000000000FFFFFFFC
00000000000000000000FFFFFFFC
00000000000000000000FFFFFFFC
00000000000000000000FFFFFFFC
00000000000000000000FFFFFFFC
000000000000000003FFFFFFF000
000000000000000003FFFFFFF000
000000000000000003FFFFFFF000
000000000000000003FFFFFFF000
000000000000000003FFFFFFF000
000000000000000003FFFFFFF000
000000000000000003FFFFFFF000
000000000000000003FFFFFFF000
000000000000000003FFFFFFF000
000000000000000003FFFFFFF000
000000000000000FFFFFFFC00000
000000000000000FFFFFFFC00000
000000000000000FFFFFFFC00000
000000000000000FFFFFFFC00000
000000000000000FFFFFFFC00000
000000000000000FFFFFFFC00000
000000000000000FFFFFFFC00000
000000000000000FFFFFFFC00000
000000000000000FFFFFFFC00000
000000000000000FFFFFFFC00000
0000000000003FFFFC0000000000
0000000000003FFFFC0000000000
0000000000003FFFFC0000000000
0000000000003FFFFC0000000000
0000000000003FFFFC0000000000
0000000000003FFFFC0000000000
0000000000003FFFFC0000000000
0000000000003FFFFC0000000000
0000000000003FFFFC0000000000
0000000000003FFFFC0000000000
0000000000FFFFF0000000000000
0000000000FFFFF0000000000000
0000000000FFFFF0000000000000
0000000000FFFFF0000000000000
0000000000FFFFF0000000000000
0000000000FFFFF0000000000000
0000000000FFFFF0000000000000
0000000000FFFFF0000000000000
0000000000FFFFF0000000000000
0000000000FFFFF0000000000000
0000000000FFFFF0000000000000
0000000000FFFFF0000000000000
0000000000FFFFF0000000000000
0000000000FFFFF0000000000000
0000000000FFFFF0000000000000
0000000000FFFFF0000000000000
0000000000FFFFF0000000000000
0000000000FFFFF0000000000000
0000000000FFFFF0000000000000
0000000000FFFFF0000000000000
0000000000000000000000000000
0000000000000000000000000000
0000000000000000000000000000
0000000000000000000000000000
0000000000000000000000000000
0000000000000000000000000000
0000000000000000000000000000
0000000000000000000000000000
0000000000000000000000000000
0000000000000000000000000000
0000000000000000000000000000
0000000000000000000000000000
0000000000000000000000000000
0000000000000000000000000000
0000000000000000000000000000
0000000000000000000000000000
0000000000000000000000000000
0000000000000000000000000000
0000000000000000000000000000
0000000000000000000000000000
0000000000FFFFF0000000000000
0000000000FFFFF0000000000000
0000000000FFFFF0000000000000
0000000000FFFFF0000000000000
0000000000FFFFF0000000000000
0000000000FFFFF0000000000000
0000000000FFFFF0000000000000
0000000000FFFFF0000000000000
0000000000FFFFF0000000000000
0000000000FFFFF0000000000000
0000000000FFFFF0000000000000
0000000000FFFFF0000000000000
0000000000FFFFF0000000000000
0000000000FFFFF0000000000000
0000000000FFFFF0000000000000
0000000000FFFFF0000000000000
0000000000FFFFF0000000000000
0000000000FFFFF0000000000000
0000000000FFFFF0000000000000
0000000000FFFFF0000000000000
0000000000FFFFF0000000000000
0000000000FFFFF0000000000000
0000000000FFFFF0000000000000
0000000000FFFFF0000000000000
0000000000FFFFF0000000000000
0000000000FFFFF0000000000000
0000000000FFFFF0000000000000
0000000000FFFFF0000000000000
0000000000FFFFF0000000000000
0000000000FFFFF0000000000000
ENDCHAR
STARTCHAR at
ENCODING 64
SWIDTH 1000 0
DWIDTH 240 0
BBX 200 200 20 -30
BITMAP
00000000000000000000FFFFFFFFFFFFFFFFFC000000000000
00000000000000000000FFFFFFFFFFFFFFFFFC000000000000
00000000000000000000FFFFFFFFFFFFFFFFFC000000000000
00000000000000000000FFFFFFFFFFFFFFFFFC000000000000
00000000000000000000FFFFFFFFFFFFFFFFFC000000000000
00000000000000000000FFFFFFFFFFFFFFFFFC000000000000
00000000000000000000FFFFFFFFFFFFFFFFFC000000000000
00000000000000000000FFFFFFFFFFFFFFFFFC000000000000
00000000000000000000FFFFFFFFFFFFFFFFFC000000000000
00000000000000000000FFFFFFFFFFFFFFFFFC000000000000
0000000000003FFFFFFFFFFFFFFFFFFFFFFFFFFFFFC0000000
0000000000003FFFFFFFFFFFFFFFFFFFFFFFFFFFFFC0000000
0000000000003FFFFFFFFFFFFFFFFFFFFFFFFFFFFFC0000000
0000000000003FFFFFFFFFFFFFFFFFFFFFFFFFFFFFC0000000
0000000000003FFFFFFFFFFFFFFFFFFFFFFFFFFFFFC0000000
0000000000003FFFFFFFFFFFFFFFFFFFFFFFFFFFFFC0000000
0000000000003FFFFFFFFFFFFFFFFFFFFFFFFFFFFFC0000000
0000000000003FFFFFFFFFFFFFFFFFFFFFFFFFFFFFC0000000
0000000000003FFFFFFFFFFFFFFFFFFFFFFFFFFFFFC0000000
0000000000003FFFFFFFFFFFFFFFFFFFFFFFFFFFFFC0000000
0000000000FFFFFFFFFF000000000000000FFFFFFFFFF00000
0000000000FFFFFFFFFF000000000000000FFFFFFFFFF00000
0000000000FFFFFFFFFF000000000000000FFFFFFFFFF00000
0000000000FFFFFFFFFF000000000000000FFFFFFFFFF00000
0000000000FFFFFFFFFF000000000000000FFFFFFFFFF00000
0000000000FFFFFFFFFF000000000000000FFFFFFFFFF00000
0000000000FFFFFFFFFF000000000000000FFFFFFFFFF00000
0000000000FFFFFFFFFF000000000000000FFFFFFFFFF00000
0000000000FFFFFFFFFF000000000000000FFFFFFFFFF00000
0000000000FFFFFFFFFF000000000000000FFFFFFFFFF00000
00000003FFFFFFF0000000000000000000000000FFFFFFFC00
00000003FFFFFFF0000000000000000000000000FFFFFFFC00
00000003FFFFFFF0000000000000000000000000FFFFFFFC00
00000003FFFFFFF0000000000000000000000000FFFFFFFC00
00000003FFFFFFF0000000000000000000000000FFFFFFFC00
00000003FFFFFFF0000000000000000000000000FFFFFFFC00
00000003FFFFFFF0000000000000000000000000FFFFFFFC00
00000003FFFFFFF0000000000000000000000000FFFFFFFC00
00000003FFFFFFF0000000000000000000000000FFFFFFFC00
00000003FFFFFFF0000000000000000000000000FFFFFFFC00
00000FFFFFFFC0000000FFFFFFFFFF00000FFFFF003FFFFC00
00000FFFFFFFC0000000FFFFFFFFFF00000FFFFF003FFFFC00
00000FFFFFFFC0000000FFFFFFFFFF00000FFFFF003FFFFC00
00000FFFFFFFC0000000FFFFFFFFFF00000FFFFF003FFFFC00
00000FFFFFFFC0000000FFFFFFFFFF00000FFFFF003FFFFC00
00000FFFFFFFC0000000FFFFFFFFFF00000FFFFF003FFFFC00
00000FFFFFFFC0000000FFFFFFFFFF00000FFFFF003FFFFC00
00000FFFFFFFC0000000FFFFFFFFFF00000FFFFF003FFFFC00
00000FFFFFFFC0000000FFFFFFFFFF00000FFFFF003FFFFC00
00000FFFFFFFC0000000FFFFFFFFFF00000FFFFF003FFFFC00
003FFFFFFF00000FFFFFFFFFFFFFFFFFFFFFFFFF003FFFFFFF
003FFFFFFF00000FFFFFFFFFFFFFFFFFFFFFFFFF003FFFFFFF
003FFFFFFF00000FFFFFFFFFFFFFFFFFFFFFFFFF003FFFFFFF
003FFFFFFF00000FFFFFFFFFFFFFFFFFFFFFFFFF003FFFFFFF
003FFFFFFF00000FFFFFFFFFFFFFFFFFFFFFFFFF003FFFFFFF
003FFFFFFF00000FFFFFFFFFFFFFFFFFFFFFFFFF003FFFFFFF
003FFFFFFF00000FFFFFFFFFFFFFFFFFFFFFFFFF003FFFFFFF
003FFFFFFF00000FFFFFFFFFFFFFFFFFFFFFFFFF003FFFFFFF
003FFFFFFF00000FFFFFFFFFFFFFFFFFFFFFFFFF003FFFFFFF
003FFFFFFF00000FFFFFFFFFFFFFFFFFFFFFFFFF003FFFFFFF
003FFFFC00003FFFFFFF0000000000FFFFFFFC0000000FFFFF
003FFFFC00003FFFFFFF0000000000FFFFFFFC0000000FFFFF
003FFFFC00003FFFFFFF0000000000FFFFFFFC0000000FFFFF
003FFFFC00003FFFFFFF0000000000FFFFFFFC0000000FFFFF
003FFFFC00003FFFFFFF0000000000FFFFFFFC0000000FFFFF
003FFFFC00003FFFFFFF0000000000FFFFFFFC0000000FFFFF
003FFFFC00003FFFFFFF0000000000FFFFFFFC0000000FFFFF
003FFFFC00003FFFFFFF0000000000FFFFFFFC0000000FFFFF
003FFFFC00003FFFFFFF0000000000FFFFFFFC0000000FFFFF
003FFFFC00003FFFFFFF0000000000FFFFFFFC0000000FFFFF
003FFFFC00003FFFFC000000000000FFFFFFFC0000000FFFFF
003FFFFC00003FFFFC000000000000FFFFFFFC0000000FFFFF
003FFFFC00003FFFFC000000000000FFFFFFFC0000000FFFFF
003FFFFC00003FFFFC000000000000FFFFFFFC0000000FFFFF
003FFFFC00003FFFFC000000000000FFFFFFFC0000000FFFFF
003FFFFC00003FFFFC000000000000FFFFFFFC0000000FFFFF
003FFFFC00003FFFFC000000000000FFFFFFFC0000000FFFFF
003FFFFC00003FFFFC000000000000FFFFFFFC0000000FFFFF
003FFFFC00003FFFFC000000000000FFFFFFFC0000000FFFFF
003FFFFC00003FFFFC000000000000FFFFFFFC0000000FFFFF
FFFFF00000FFFFFFFC000000000000003FFFFC0000000FFFFF
FFFFF00000FFFFFFFC000000000000003FFFFC0000000FFFFF
FFFFF00000FFFFFFFC000000000000003FFFFC0000000FFFFF
FFFFF00000FFFFFFFC000000000000003FFFFC0000000FFFFF
FFFFF00000FFFFFFFC000000000000003FFFFC0000000FFFFF
FFFFF00000FFFFFFFC000000000000003FFFFC0000000FFFFF
FFFFF00000FFFFFFFC000000000000003FFFFC0000000FFFFF
FFFFF00000FFFFFFFC000000000000003FFFFC0000000FFFFF
FFFFF00000FFFFFFFC000000000000003FFFFC0000000FFFFF
FFFFF00000FFFFFFFC000000000000003FFFFC0000000FFFFF
FFFFF00000FFFFF000000000000000FFFFFFFC0000000FFFFF
FFFFF00000FFFFF000000000000000FFFFFFFC0000000FFFFF
FFFFF00000FFFFF000000000000000FFFFFFFC0000000FFFFF
FFFFF00000FFFFF000000000000000FFFFFFFC0000000FFFFF
FFFFF00000FFFFF000000000000000FFFFFFFC0000000FFFFF
FFFFF00000FFFFF000000000000000FFFFFFFC0000000FFFFF
FFFFF00000FFFFF000000000000000FFFFFFFC0000000FFFFF
FFFFF00000FFFFF000000000000000FFFFFFFC0000000FFFFF
FFFFF00000FFFFF000000000000000FFFFFFFC0000000FFFFF
FFFFF00000FFFFF000000000000000FFFFFFFC0000000FFFFF
FFFFF00000FFFFF000000000000000FFFFF0000000000FFFFF
FFFFF00000FFFFF000000000000000FFFFF0000000000FFFFF
FFFFF00000FFFFF000000000000000FFFFF0000000000FFFFF
FFFFF00000FFFFF000000000000000FFFFF0000000000FFFFF
FFFFF00000FFFFF000000000000000FFFFF0000000000FFFFF
FFFFF00000FFFFF000000000000000FFFFF0000000000FFFFF
FFFFF00000FFFFF000000000000000FFFFF0000000000FFFFF
FFFFF00000FFFFF000000000000000FFFFF0000000000FFFFF
FFFFF00000FFFFF000000000000000FFFFF0000000000FFFFF
FFFFF00000FFFFF000000000000000FFFFF0000000000FFFFF
FFFFF00000FFFFF000000000000000FFFFF00000003FFFFFFF
FFFFF00000FFFFF000000000000000FFFFF00000003FFFFFFF
FFFFF00000FFFFF000000000000000FFFFF00000003FFFFFFF
FFFFF00000FFFFF000000000000000FFFFF00000003FFFFFFF
FFFFF00000FFFFF000000000000000FFFFF00000003FFFFFFF
FFFFF00000FFFFF000000000000000FFFFF00000003FFFFFFF
FFFFF00000FFFFF000000000000000FFFFF00000003FFFFFFF
FFFFF00000FFFFF000000000000000FFFFF00000003FFFFFFF
FFFFF00000FFFFF000000000000000FFFFF00000003FFFFFFF
FFFFF00000FFFFF000000000000000FFFFF00000003FFFFFFF
FFFFF00000FFFFF0000000000003FFFFFFF00000003FFFFC00
FFFFF00000FFFFF0000000000003FFFFFFF00000003FFFFC00
FFFFF00000FFFFF0000000000003FFFFFFF00000003FFFFC00
FFFFF00000FFFFF0000000000003FFFFFFF00000003FFFFC00
FFFFF00000FFFFF0000000000003FFFFFFF00000003FFFFC00
FFFFF00000FFFFF0000000000003FFFFFFF00000003FFFFC00
FFFFF00000FFFFF0000000000003FFFFFFF00000003FFFFC00
FFFFF00000FFFFF0000000000003FFFFFFF00000003FFFFC00
FFFFF00000FFFFF0000000000003FFFFFFF00000003FFFFC00
FFFFF00000FFFFF0000000000003FFFFFFF00000003FFFFC00
FFFFF00000FFFFFFFC0000000FFFFFFFFFF00000FFFFFFFC00
FFFFF00000FFFFFFFC0000000FFFFFFFFFF00000FFFFFFFC00
FFFFF00000FFFFFFFC0000000FFFFFFFFFF00000FFFFFFFC00
FFFFF00000FFFFFFFC0000000FFFFFFFFFF00000FFFFFFFC00
FFFFF00000FFFFFFFC0000000FFFFFFFFFF00000FFFFFFFC00
FFFFF00000FFFFFFFC0000000FFFFFFFFFF00000FFFFFFFC00
FFFFF00000FFFFFFFC0000000FFFFFFFFFF00000FFFFFFFC00
FFFFF00000FFFFFFFC0000000FFFFFFFFFF00000FFFFFFFC00
FFFFF00000FFFFFFFC0000000FFFFFFFFFF00000FFFFFFFC00
FFFFF00000FFFFFFFC0000000FFFFFFFFFF00000FFFFFFFC00
FFFFFFFC00003FFFFFFFFFFFFFFC00FFFFFFFFFFFFFFF00000
FFFFFFFC00003FFFFFFFFFFFFFFC00FFFFFFFFFFFFFFF00000
FFFFFFFC00003FFFFFFFFFFFFFFC00FFFFFFFFFFFFFFF00000
FFFFFFFC00003FFFFFFFFFFFFFFC00FFFFFFFFFFFFFFF00000
FFFFFFFC00003FFFFFFFFFFFFFFC00FFFFFFFFFFFFFFF00000
FFFFFFFC00003FFFFFFFFFFFFFFC00FFFFFFFFFFFFFFF00000
FFFFFFFC00003FFFFFFFFFFFFFFC00FFFFFFFFFFFFFFF00000
FFFFFFFC00003FFFFFFFFFFFFFFC00FFFFFFFFFFFFFFF00000
FFFFFFFC00003FFFFFFFFFFFFFFC00FFFFFFFFFFFFFFF00000
FFFFFFFC00003FFFFFFFFFFFFFFC00FFFFFFFFFFFFFFF00000
003FFFFC0000000FFFFFFFFFF00000003FFFFFFFFFC0000000
003FFFFC0000000FFFFFFFFFF00000003FFFFFFFFFC0000000
003FFFFC0000000FFFFFFFFFF00000003FFFFFFFFFC0000000
003FFFFC0000000FFFFFFFFFF00000003FFFFFFFFFC0000000
003FFFFC0000000FFFFFFFFFF00000003FFFFFFFFFC0000000
003FFFFC0000000FFFFFFFFFF00000003FFFFFFFFFC0000000
003FFFFC0000000FFFFFFFFFF00000003FFFFFFFFFC0000000
003FFFFC0000000FFFFFFFFFF00000003FFFFFFFFFC0000000
003FFFFC0000000FFFFFFFFFF00000003FFFFFFFFFC0000000
003FFFFC0000000FFFFFFFFFF00000003FFFFFFFFFC0000000
003FFFFFFF0000000000000000000000000000000000000000
003FFFFFFF0000000000000000000000000000000000000000
003FFFFFFF0000000000000000000000000000000000000000
003FFFFFFF0000000000000000000000000000000000000000
003FFFFFFF0000000000000000000000000000000000000000
003FFFFFFF0000000000000000000000000000000000000000
003FFFFFFF0000000000000000000000000000000000000000
003FFFFFFF0000000000000000000000000000000000000000
003FFFFFFF0000000000000000000000000000000000000000
003FFFFFFF0000000000000000000000000000000000000000
00000FFFFFFFFFF000000000000000003FFFFFFF0000000000
00000FFFFFFFFFF000000000000000003FFFFFFF0000000000
00000FFFFFFFFFF000000000000000003FFFFFFF0000000000
00000FFFFFFFFFF000000000000000003FFFFFFF0000000000
00000FFFFFFFFFF000000000000000003FFFFFFF0000000000
00000FFFFFFFFFF000000000000000003FFFFFFF0000000000
00000FFFFFFFFFF000000000000000003FFFFFFF0000000000
00000FFFFFFFFFF000000000000000003FFFFFFF0000000000
00000FFFFFFFFFF000000000000000003FFFFFFF0000000000
00000FFFFFFFFFF000000000000000003FFFFFFF0000000000
00000003FFFFFFFFFFFFFFFFFFFFFFFFFFFFFC000000000000
00000003FFFFFFFFFFFFFFFFFFFFFFFFFFFFFC000000000000
00000003FFFFFFFFFFFFFFFFFFFFFFFFFFFFFC000000000000
00000003FFFFFFFFFFFFFFFFFFFFFFFFFFFFFC000000000000
00000003FFFFFFFFFFFFFFFFFFFFFFFFFFFFFC000000000000
00000003FFFFFFFFFFFFFFFFFFFFFFFFFFFFFC000000000000
00000003FFFFFFFFFFFFFFFFFFFFFFFFFFFFFC000000000000
00000003FFFFFFFFFFFFFFFFFFFFFFFFFFFFFC000000000000
00000003FFFFFFFFFFFFFFFFFFFFFFFFFFFFFC000000000000
00000003FFFFFFFFFFFFFFFFFFFFFFFFFFFFFC000000000000
0000000000003FFFFFFFFFFFFFFFFFFFC00000000000000000
0000000000003FFFFFFFFFFFFFFFFFFFC00000000000000000
0000000000003FFFFFFFFFFFFFFFFFFFC00000000000000000
0000000000003FFFFFFFFFFFFFFFFFFFC00000000000000000
0000000000003FFFFFFFFFFFFFFFFFFFC00000000000000000
0000000000003FFFFFFFFFFFFFFFFFFFC00000000000000000
0000000000003FFFFFFFFFFFFFFFFFFFC00000000000000000
0000000000003FFFFFFFFFFFFFFFFFFFC00000000000000000
0000000000003FFFFFFFFFFFFFFFFFFFC00000000000000000
0000000000003FFFFFFFFFFFFFFFFFFFC00000000000000000
ENDCHAR
STARTCHAR A
ENCODING 65
SWIDTH 625 0
DWIDTH 150 0
BBX 150 170 0 0
BITMAP
000000000000000FFFFFFFC000000000000000
000000000000000FFFFFFFC000000000000000
000000000000000FFFFFFFC000000000000000
000000000000000FFFFFFFC000000000000000
000000000000000FFFFFFFC000000000000000
000000000000000FFFFFFFC000000000000000
000000000000000FFFFFFFC000000000000000
000000000000000FFFFFFFC000000000000000
000000000000000FFFFFFFC000000000000000
000000000000000FFFFFFFC000000000000000
000000000000000FFFFFFFC000000000000000
000000000000000FFFFFFFC000000000000000
000000000000000FFFFFFFC000000000000000
000000000000000FFFFFFFC000000000000000
000000000000000FFFFFFFC000000000000000
000000000000000FFFFFFFC000000000000000
000000000000000FFFFFFFC000000000000000
000000000000000FFFFFFFC000000000000000
000000000000000FFFFFFFC000000000000000
000000000000000FFFFFFFC000000000000000
000000000000000FFC00FFFFF0000000000000
000000000000000FFC00FFFFF0000000000000
000000000000000FFC00FFFFF0000000000000
000000000000000FFC00FFFFF0000000000000
000000000000000FFC00FFFFF0000000000000
000000000000000FFC00FFFFF0000000000000
000000000000000FFC00FFFFF0000000000000
000000000000000FFC00FFFFF0000000000000
000000000000000FFC00FFFFF0000000000000
000000000000000FFC00FFFFF0000000000000
0000000000003FFFFC00FFFFF0000000000000
0000000000003FFFFC00FFFFF0000000000000
0000000000003FFFFC00FFFFF0000000000000
0000000000003FFFFC00FFFFF0000000000000
0000000000003FFFFC00FFFFF0000000000000
0000000000003FFFFC00FFFFF0000000000000
0000000000003FFFFC00FFFFF0000000000000
0000000000003FFFFC00FFFFF0000000000000
0000000000003FFFFC00FFFFF0000000000000
0000000000003FFFFC00FFFFF0000000000000
0000000000003FFFFC00FFFFF0000000000000
0000000000003FFFFC00FFFFF0000000000000
0000000000003FFFFC00FFFFF0000000000000
0000000000003FFFFC00FFFFF0000000000000
0000000000003FFFFC00FFFFF0000000000000
0000000000003FFFFC00FFFFF0000000000000
0000000000003FFFFC00FFFFF0000000000000
0000000000003FFFFC00FFFFF0000000000000
0000000000003FFFFC00FFFFF0000000000000
0000000000003FFFFC00FFFFF0000000000000
0000000000FFFFF00000003FFFFC0000000000
0000000000FFFFF00000003FFFFC0000000000
0000000000FFFFF00000003FFFFC0000000000
0000000000FFFFF00000003FFFFC0000000000
0000000000FFFFF00000003FFFFC0000000000
0000000000FFFFF00000003FFFFC0000000000
0000000000FFFFF00000003FFFFC0000000000
0000000000FFFFF00000003FFFFC0000000000
0000000000FFFFF00000003FFFFC0000000000
0000000000FFFFF00000003FFFFC0000000000
0000000000FFFFF00000003FFFFC0000000000
0000000000FFFFF00000003FFFFC0000000000
0000000000FFFFF00000003FFFFC0000000000
0000000000FFFFF00000003FFFFC0000000000
0000000000FFFFF00000003FFFFC0000000000
0000000000FFFFF00000003FFFFC0000000000
0000000000FFFFF00000003FFFFC0000000000
0000000000FFFFF00000003FFFFC0000000000
0000000000FFFFF00000003FFFFC0000000000
0000000000FFFFF00000003FFFFC0000000000
0000000000FFC000000000000FFC0000000000
0000000000FFC000000000000FFC0000000000
0000000000FFC000000000000FFC0000000000
0000000000FFC000000000000FFC0000000000
0000000000FFC000000000000FFC0000000000
0000000000FFC000000000000FFC0000000000
0000000000FFC000000000000FFC0000000000
0000000000FFC000000000000FFC0000000000
0000000000FFC000000000000FFC0000000000
0000000000FFC000000000000FFC0000000000
00000003FFFFC000000000000FFFFF00000000
00000003FFFFC000000000000FFFFF00000000
00000003FFFFC000000000000FFFFF00000000
00000003FFFFC000000000000FFFFF00000000
00000003FFFFC000000000000FFFFF00000000
00000003FFFFC000000000000FFFFF00000000
00000003FFFFC000000000000FFFFF00000000
00000003FFFFC000000000000FFFFF00000000
00000003FFFFC000000000000FFFFF00000000
00000003FFFFC000000000000FFFFF00000000
00000003FFFFC000000000000FFFFF00000000
00000003FFFFC000000000000FFFFF00000000
00000003FFFFC000000000000FFFFF00000000
00000003FFFFC000000000000FFFFF00000000
00000003FFFFC000000000000FFFFF00000000
00000003FFFFC000000000000FFFFF00000000
00000003FFFFC000000000000FFFFF00000000
00000003FFFFC000000000000FFFFF00000000
00000003FFFFC000000000000FFFFF00000000
00000003FFFFC000000000000FFFFF00000000
00000FFFFFFFFFFFFFFFFFFFFFFFFFFFC00000
00000FFFFFFFFFFFFFFFFFFFFFFFFFFFC00000
00000FFFFFFFFFFFFFFFFFFFFFFFFFFFC00000
00000FFFFFFFFFFFFFFFFFFFFFFFFFFFC00000
00000FFFFFFFFFFFFFFFFFFFFFFFFFFFC00000
00000FFFFFFFFFFFFFFFFFFFFFFFFFFFC00000
00000FFFFFFFFFFFFFFFFFFFFFFFFFFFC00000
00000FFFFFFFFFFFFFFFFFFFFFFFFFFFC00000
00000FFFFFFFFFFFFFFFFFFFFFFFFFFFC00000
00000FFFFFFFFFFFFFFFFFFFFFFFFFFFC00000
00000FFFFFFFFFFFFFFFFFFFFFFFFFFFC00000
00000FFFFFFFFFFFFFFFFFFFFFFFFFFFC00000
00000FFFFFFFFFFFFFFFFFFFFFFFFFFFC00000
00000FFFFFFFFFFFFFFFFFFFFFFFFFFFC00000
00000FFFFFFFFFFFFFFFFFFFFFFFFFFFC00000
00000FFFFFFFFFFFFFFFFFFFFFFFFFFFC00000
00000FFFFFFFFFFFFFFFFFFFFFFFFFFFC00000
00000FFFFFFFFFFFFFFFFFFFFFFFFFFFC00000
00000FFFFFFFFFFFFFFFFFFFFFFFFFFFC00000
00000FFFFFFFFFFFFFFFFFFFFFFFFFFFC00000
00000FFFFF000000000000000003FFFFC00000
00000FFFFF000000000000000003FFFFC00000
00000FFFFF000000000000000003FFFFC00000
00000FFFFF000000000000000003FFFFC00000
00000FFFFF000000000000000003FFFFC00000
00000FFFFF000000000000000003FFFFC00000
00000FFFFF000000000000000003FFFFC00000
00000FFFFF000000000000000003FFFFC00000
00000FFFFF000000000000000003FFFFC00000
00000FFFFF000000000000000003FFFFC00000
003FFFFC0000000000000000000000FFFFF000
003FFFFC0000000000000000000000FFFFF000
003FFFFC0000000000000000000000FFFFF000
003FFFFC0000000000000000000000FFFFF000
003FFFFC0000000000000000000000FFFFF000
003FFFFC0000000000000000000000FFFFF000
003FFFFC0000000000000000000000FFFFF000
003FFFFC0000000000000000000000FFFFF000
003FFFFC0000000000000000000000FFFFF000
003FFFFC0000000000000000000000FFFFF000
003FFFFC0000000000000000000000FFFFF000
003FFFFC0000000000000000000000FFFFF000
003FFFFC0000000000000000000000FFFFF000
003FFFFC0000000000000000000000FFFFF000
003FFFFC0000000000000000000000FFFFF000
003FFFFC0000000000000000000000FFFFF000
003FFFFC0000000000000000000000FFFFF000
003FFFFC0000000000000000000000FFFFF000
003FFFFC0000000000000000000000FFFFF000
003FFFFC0000000000000000000000FFFFF000
003FFFFC0000000000000000000000FFFFF000
003FFFFC0000000000000000000000FFFFF000
003FFFFC0000000000000000000000FFFFF000
003FFFFC0000000000000000000000FFFFF000
003FFFFC0000000000000000000000FFFFF000
003FFFFC0000000000000000000000FFFFF000
003FFFFC0000000000000000000000FFFFF000
003FFFFC0000000000000000000000FFFFF000
003FFFFC0000000000000000000000FFFFF000
003FFFFC0000000000000000000000FFFFF000
FFFFF0000000000000000000000000003FFFFC
FFFFF0000000000000000000000000003FFFFC
FFFFF0000000000000000000000000003FFFFC
FFFFF0000000000000000000000000003FFFFC
FFFFF0000000000000000000000000003FFFFC
FFFFF0000000000000000000000000003FFFFC
FFFFF0000000000000000000000000003FFFFC
FFFFF0000000000000000000000000003FFFFC
FFFFF0000000000000000000000000003FFFFC
FFFFF0000000000000000000000000003FFFFC
ENDCHAR
STARTCHAR B
ENCODING 66
SWIDTH 625 0
DWIDTH 150 0
BBX 130 170 20 0
BITMAP
FFFFFFFFFFFFFFFFFFFFFFFFF000000000
FFFFFFFFFFFFFFFFFFFFFFFFF000000000
FFFFFFFFFFFFFFFFFFFFFFFFF000000000
FFFFFFFFFFFFFFFFFFFFFFFFF000000000
FFFFFFFFFFFFFFFFFFFFFFFFF000000000
FFFFFFFFFFFFFFFFFFFFFFFFF000000000
FFFFFFFFFFFFFFFFFFFFFFFFF000000000
FFFFFFFFFFFFFFFFFFFFFFFFF000000000
FFFFFFFFFFFFFFFFFFFFFFFFF000000000
FFFFFFFFFFFFFFFFFFFFFFFFF000000000
FFFFFFFFFFFFFFFFFFFFFFFFFFFC000000
FFFFFFFFFFFFFFFFFFFFFFFFFFFC000000
FFFFFFFFFFFFFFFFFFFFFFFFFFFC000000
FFFFFFFFFFFFFFFFFFFFFFFFFFFC000000
FFFFFFFFFFFFFFFFFFFFFFFFFFFC000000
FFFFFFFFFFFFFFFFFFFFFFFFFFFC000000
FFFFFFFFFFFFFFFFFFFFFFFFFFFC000000
FFFFFFFFFFFFFFFFFFFFFFFFFFFC000000
FFFFFFFFFFFFFFFFFFFFFFFFFFFC000000
FFFFFFFFFFFFFFFFFFFFFFFFFFFC000000
FFFFF000000000000000003FFFFFFF0000
FFFFF000000000000000003FFFFFFF0000
FFFFF000000000000000003FFFFFFF0000
FFFFF000000000000000003FFFFFFF0000
FFFFF000000000000000003FFFFFFF0000
FFFFF000000000000000003FFFFFFF0000
FFFFF000000000000000003FFFFFFF0000
FFFFF000000000000000003FFFFFFF0000
FFFFF000000000000000003FFFFFFF0000
FFFFF000000000000000003FFFFFFF0000
FFFFF00000000000000000000FFFFF0000
FFFFF00000000000000000000FFFFF0000
FFFFF00000000000000000000FFFFF0000
FFFFF00000000000000000000FFFFF0000
FFFFF00000000000000000000FFFFF0000
FFFFF00000000000000000000FFFFF0000
FFFFF00000000000000000000FFFFF0000
FFFFF00000000000000000000FFFFF0000
FFFFF00000000000000000000FFFFF0000
FFFFF00000000000000000000FFFFF0000
FFFFF00000000000000000000FFFFF0000
FFFFF00000000000000000000FFFFF0000
FFFFF00000000000000000000FFFFF0000
FFFFF00000000000000000000FFFFF0000
FFFFF00000000000000000000FFFFF0000
FFFFF00000000000000000000FFFFF0000
FFFFF00000000000000000000FFFFF0000
FFFFF00000000000000000000FFFFF0000
FFFFF00000000000000000000FFFFF0000
FFFFF00000000000000000000FFFFF0000
FFFFF00000000000000000000FFFFF0000
FFFFF00000000000000000000FFFFF0000
FFFFF00000000000000000000FFFFF0000
FFFFF00000000000000000000FFFFF0000
FFFFF00000000000000000000FFFFF0000
FFFFF00000000000000000000FFFFF0000
FFFFF00000000000000000000FFFFF0000
FFFFF00000000000000000000FFFFF0000
FFFFF00000000000000000000FFFFF0000
FFFFF00000000000000000000FFFFF0000
FFFFF000000000000000003FFFFC000000
FFFFF000000000000000003FFFFC000000
FFFFF000000000000000003FFFFC000000
FFFFF000000000000000003FFFFC000000
FFFFF000000000000000003FFFFC000000
FFFFF000000000000000003FFFFC000000
FFFFF000000000000000003FFFFC000000
FFFFF000000000000000003FFFFC000000
FFFFF000000000000000003FFFFC000000
FFFFF000000000000000003FFFFC000000
FFFFFFFFFFFFFFFFFFFFFFFFF000000000
FFFFFFFFFFFFFFFFFFFFFFFFF000000000
FFFFFFFFFFFFFFFFFFFFFFFFF000000000
FFFFFFFFFFFFFFFFFFFFFFFFF000000000
FFFFFFFFFFFFFFFFFFFFFFFFF000000000
FFFFFFFFFFFFFFFFFFFFFFFFF000000000
FFFFFFFFFFFFFFFFFFFFFFFFF000000000
FFFFFFFFFFFFFFFFFFFFFFFFF000000000
FFFFFFFFFFFFFFFFFFFFFFFFF000000000
FFFFFFFFFFFFFFFFFFFFFFFFF000000000
FFFFFFFFFFFFFFFFFFFFFFFFFFFC000000
FFFFFFFFFFFFFFFFFFFFFFFFFFFC000000
FFFFFFFFFFFFFFFFFFFFFFFFFFFC000000
FFFFFFFFFFFFFFFFFFFFFFFFFFFC000000
FFFFFFFFFFFFFFFFFFFFFFFFFFFC000000
FFFFFFFFFFFFFFFFFFFFFFFFFFFC000000
FFFFFFFFFFFFFFFFFFFFFFFFFFFC000000
FFFFFFFFFFFFFFFFFFFFFFFFFFFC000000
FFFFFFFFFFFFFFFFFFFFFFFFFFFC000000
FFFFFFFFFFFFFFFFFFFFFFFFFFFC000000
FFFFF000000000000000003FFFFFFF0000
FFFFF000000000000000003FFFFFFF0000
FFFFF000000000000000003FFFFFFF0000
FFFFF000000000000000003FFFFFFF0000
FFFFF000000000000000003FFFFFFF0000
FFFFF000000000000000003FFFFFFF0000
FFFFF000000000000000003FFFFFFF0000
FFFFF000000000000000003FFFFFFF0000
FFFFF000000000000000003FFFFFFF0000
FFFFF000000000000000003FFFFFFF0000
FFFFF00000000000000000000003FFFFC0
FFFFF00000000000000000000003FFFFC0
FFFFF00000000000000000000003FFFFC0
FFFFF00000000000000000000003FFFFC0
FFFFF00000000000000000000003FFFFC0
FFFFF00000000000000000000003FFFFC0
FFFFF00000000000000000000003FFFFC0
FFFFF00000000000000000000003FFFFC0
FFFFF00000000000000000000003FFFFC0
FFFFF00000000000000000000003FFFFC0
FFFFF00000000000000000000003FFFFC0
FFFFF00000000000000000000003FFFFC0
FFFFF00000000000000000000003FFFFC0
FFFFF00000000000000000000003FFFFC0
FFFFF00000000000000000000003FFFFC0
FFFFF00000000000000000000003FFFFC0
FFFFF00000000000000000000003FFFFC0
FFFFF00000000000000000000003FFFFC0
FFFFF00000000000000000000003FFFFC0
FFFFF00000000000000000000003FFFFC0
FFFFF00000000000000000000003FFFFC0
FFFFF00000000000000000000003FFFFC0
FFFFF00000000000000000000003FFFFC0
FFFFF00000000000000000000003FFFFC0
FFFFF00000000000000000000003FFFFC0
FFFFF00000000000000000000003FFFFC0
FFFFF00000000000000000000003FFFFC0
FFFFF00000000000000000000003FFFFC0
FFFFF00000000000000000000003FFFFC0
FFFFF00000000000000000000003FFFFC0
FFFFF00000000000000000000003FFFFC0
FFFFF00000000000000000000003FFFFC0
FFFFF00000000000000000000003FFFFC0
FFFFF00000000000000000000003FFFFC0
FFFFF00000000000000000000003FFFFC0
FFFFF00000000000000000000003FFFFC0
FFFFF00000000000000000000003FFFFC0
FFFFF00000000000000000000003FFFFC0
FFFFF00000000000000000000003FFFFC0
FFFFF00000000000000000000003FFFFC0
FFFFF00000000000000000000FFFFF0000
FFFFF00000000000000000000FFFFF0000
FFFFF00000000000000000000FFFFF0000
FFFFF00000000000000000000FFFFF0000
FFFFF00000000000000000000FFFFF0000
FFFFF00000000000000000000FFFFF0000
FFFFF00000000000000000000FFFFF0000
FFFFF00000000000000000000FFFFF0000
FFFFF00000000000000000000FFFFF0000
FFFFF00000000000000000000FFFFF0000
FFFFFFFFFFFFFFFFFFFFFFFFFFFFFF0000
FFFFFFFFFFFFFFFFFFFFFFFFFFFFFF0000
FFFFFFFFFFFFFFFFFFFFFFFFFFFFFF0000
FFFFFFFFFFFFFFFFFFFFFFFFFFFFFF0000
FFFFFFFFFFFFFFFFFFFFFFFFFFFFFF0000
FFFFFFFFFFFFFFFFFFFFFFFFFFFFFF0000
FFFFFFFFFFFFFFFFFFFFFFFFFFFFFF0000
FFFFFFFFFFFFFFFFFFFFFFFFFFFFFF0000
FFFFFFFFFFFFFFFFFFFFFFFFFFFFFF0000
FFFFFFFFFFFFFFFFFFFFFFFFFFFFFF0000
FFFFFFFFFFFFFFFFFFFFFFFFF000000000
FFFFFFFFFFFFFFFFFFFFFFFFF000000000
FFFFFFFFFFFFFFFFFFFFFFFFF000000000
FFFFFFFFFFFFFFFFFFFFFFFFF000000000
FFFFFFFFFFFFFFFFFFFFFFFFF000000000
FFFFFFFFFFFFFFFFFFFFFFFFF000000000
FFFFFFFFFFFFFFFFFFFFFFFFF000000000
FFFFFFFFFFFFFFFFFFFFFFFFF000000000
FFFFFFFFFFFFFFFFFFFFFFFFF000000000
FFFFFFFFFFFFFFFFFFFFFFFFF000000000
ENDCHAR
STARTCHAR C
ENCODING 67
SWIDTH 708 0
DWIDTH 170 0
BBX 150 170 10 0
BITMAP
0000000000003FFFFFFFFFFFFFFC0000000000
0000000000003FFFFFFFFFFFFFFC0000000000
0000000000003FFFFFFFFFFFFFFC0000000000
0000000000003FFFFFFFFFFFFFFC0000000000
0000000000003FFFFFFFFFFFFFFC0000000000
0000000000003FFFFFFFFFFFFFFC0000000000
0000000000003FFFFFFFFFFFFFFC0000000000
0000000000003FFFFFFFFFFFFFFC0000000000
0000000000003FFFFFFFFFFFFFFC0000000000
0000000000003FFFFFFFFFFFFFFC0000000000
00000003FFFFFFFFFFFFFFFFFFFFFFFFC00000
00000003FFFFFFFFFFFFFFFFFFFFFFFFC00000
00000003FFFFFFFFFFFFFFFFFFFFFFFFC00000
00000003FFFFFFFFFFFFFFFFFFFFFFFFC00000
00000003FFFFFFFFFFFFFFFFFFFFFFFFC00000
00000003FFFFFFFFFFFFFFFFFFFFFFFFC00000
00000003FFFFFFFFFFFFFFFFFFFFFFFFC00000
00000003FFFFFFFFFFFFFFFFFFFFFFFFC00000
00000003FFFFFFFFFFFFFFFFFFFFFFFFC00000
00000003FFFFFFFFFFFFFFFFFFFFFFFFC00000
00000FFFFFFFC000000000000FFFFFFFFFF000
00000FFFFFFFC000000000000FFFFFFFFFF000
00000FFFFFFFC000000000000FFFFFFFFFF000
00000FFFFFFFC000000000000FFFFFFFFFF000
00000FFFFFFFC000000000000FFFFFFFFFF000
00000FFFFFFFC000000000000FFFFFFFFFF000
00000FFFFFFFC000000000000FFFFFFFFFF000
00000FFFFFFFC000000000000FFFFFFFFFF000
00000FFFFFFFC000000000000FFFFFFFFFF000
00000FFFFFFFC000000000000FFFFFFFFFF000
003FFFFFFF00000000000000000000FFFFF000
003FFFFFFF00000000000000000000FFFFF000
003FFFFFFF00000000000000000000FFFFF000
003FFFFFFF00000000000000000000FFFFF000
003FFFFFFF00000000000000000000FFFFF000
003FFFFFFF00000000000000000000FFFFF000
003FFFFFFF00000000000000000000FFFFF000
003FFFFFFF00000000000000000000FFFFF000
003FFFFFFF00000000000000000000FFFFF000
003FFFFFFF00000000000000000000FFFFF000
003FFFFC0000000000000000000000FFFFF000
003FFFFC0000000000000000000000FFFFF000
003FFFFC0000000000000000000000FFFFF000
003FFFFC0000000000000000000000FFFFF000
003FFFFC0000000000000000000000FFFFF000
003FFFFC0000000000000000000000FFFFF000
003FFFFC0000000000000000000000FFFFF000
003FFFFC0000000000000000000000FFFFF000
003FFFFC0000000000000000000000FFFFF000
003FFFFC0000000000000000000000FFFFF000
FFFFF000000000000000000000000000000000
FFFFF000000000000000000000000000000000
FFFFF000000000000000000000000000000000
FFFFF000000000000000000000000000000000
FFFFF000000000000000000000000000000000
FFFFF000000000000000000000000000000000
FFFFF000000000000000000000000000000000
FFFFF000000000000000000000000000000000
FFFFF000000000000000000000000000000000
FFFFF000000000000000000000000000000000
FFFFF000000000000000000000000000000000
FFFFF000000000000000000000000000000000
FFFFF000000000000000000000000000000000
FFFFF000000000000000000000000000000000
FFFFF000000000000000000000000000000000
FFFFF000000000000000000000000000000000
FFFFF000000000000000000000000000000000
FFFFF000000000000000000000000000000000
FFFFF000000000000000000000000000000000
FFFFF000000000000000000000000000000000
FFFFF000000000000000000000000000000000
FFFFF000000000000000000000000000000000
FFFFF000000000000000000000000000000000
FFFFF000000000000000000000000000000000
FFFFF000000000000000000000000000000000
FFFFF000000000000000000000000000000000
FFFFF000000000000000000000000000000000
FFFFF000000000000000000000000000000000
FFFFF000000000000000000000000000000000
FFFFF000000000000000000000000000000000
FFFFF000000000000000000000000000000000
FFFFF000000000000000000000000000000000
FFFFF000000000000000000000000000000000
FFFFF000000000000000000000000000000000
FFFFF000000000000000000000000000000000
FFFFF000000000000000000000000000000000
FFFFF000000000000000000000000000000000
FFFFF000000000000000000000000000000000
FFFFF000000000000000000000000000000000
FFFFF000000000000000000000000000000000
FFFFF000000000000000000000000000000000
FFFFF000000000000000000000000000000000
FFFFF000000000000000000000000000000000
FFFFF000000000000000000000000000000000
FFFFF000000000000000000000000000000000
FFFFF000000000000000000000000000000000
FFFFF000000000000000000000000000000000
FFFFF000000000000000000000000000000000
FFFFF000000000000000000000000000000000
FFFFF000000000000000000000000000000000
FFFFF000000000000000000000000000000000
FFFFF000000000000000000000000000000000
FFFFF000000000000000000000000000000000
FFFFF000000000000000000000000000000000
FFFFF000000000000000000000000000000000
FFFFF000000000000000000000000000000000
FFFFF000000000000000000000000000000000
FFFFF000000000000000000000000000000000
FFFFF000000000000000000000000000000000
FFFFF000000000000000000000000000000000
FFFFFFFC000000000000000000000000000000
FFFFFFFC000000000000000000000000000000
FFFFFFFC000000000000000000000000000000
FFFFFFFC000000000000000000000000000000
FFFFFFFC000000000000000000000000000000
FFFFFFFC000000000000000000000000000000
FFFFFFFC000000000000000000000000000000
FFFFFFFC000000000000000000000000000000
FFFFFFFC000000000000000000000000000000
FFFFFFFC000000000000000000000000000000
003FFFFC0000000000000000000000003FF000
003FFFFC0000000000000000000000003FF000
003FFFFC0000000000000000000000003FF000
003FFFFC0000000000000000000000003FF000
003FFFFC0000000000000000000000003FF000
003FFFFC0000000000000000000000003FF000
003FFFFC0000000000000000000000003FF000
003FFFFC0000000000000000000000003FF000
003FFFFC0000000000000000000000003FF000
003FFFFC0000000000000000000000003FF000
003FFFFFFF00000000000000000000FFFFFFFC
003FFFFFFF00000000000000000000FFFFFFFC
003FFFFFFF00000000000000000000FFFFFFFC
003FFFFFFF00000000000000000000FFFFFFFC
003FFFFFFF00000000000000000000FFFFFFFC
003FFFFFFF00000000000000000000FFFFFFFC
003FFFFFFF00000000000000000000FFFFFFFC
003FFFFFFF00000000000000000000FFFFFFFC
003FFFFFFF00000000000000000000FFFFFFFC
003FFFFFFF00000000000000000000FFFFFFFC
00000FFFFFFFC000000000000FFFFFFFFFF000
00000FFFFFFFC000000000000FFFFFFFFFF000
00000FFFFFFFC000000000000FFFFFFFFFF000
00000FFFFFFFC000000000000FFFFFFFFFF000
00000FFFFFFFC000000000000FFFFFFFFFF000
00000FFFFFFFC000000000000FFFFFFFFFF000
00000FFFFFFFC000000000000FFFFFFFFFF000
00000FFFFFFFC000000000000FFFFFFFFFF000
00000FFFFFFFC000000000000FFFFFFFFFF000
00000FFFFFFFC000000000000FFFFFFFFFF000
00000003FFFFFFFFFFFFFFFFFFFFFFFFC00000
00000003FFFFFFFFFFFFFFFFFFFFFFFFC00000
00000003FFFFFFFFFFFFFFFFFFFFFFFFC00000
00000003FFFFFFFFFFFFFFFFFFFFFFFFC00000
00000003FFFFFFFFFFFFFFFFFFFFFFFFC00000
00000003FFFFFFFFFFFFFFFFFFFFFFFFC00000
00000003FFFFFFFFFFFFFFFFFFFFFFFFC00000
00000003FFFFFFFFFFFFFFFFFFFFFFFFC00000
00000003FFFFFFFFFFFFFFFFFFFFFFFFC00000
00000003FFFFFFFFFFFFFFFFFFFFFFFFC00000
0000000000003FFFFFFFFFFFFFFC0000000000
0000000000003FFFFFFFFFFFFFFC0000000000
0000000000003FFFFFFFFFFFFFFC0000000000
0000000000003FFFFFFFFFFFFFFC0000000000
0000000000003FFFFFFFFFFFFFFC0000000000
0000000000003FFFFFFFFFFFFFFC0000000000
0000000000003FFFFFFFFFFFFFFC0000000000
0000000000003FFFFFFFFFFFFFFC0000000000
0000000000003FFFFFFFFFFFFFFC0000000000
0000000000003FFFFFFFFFFFFFFC0000000000
ENDCHAR
STARTCHAR D
ENCODING 68
SWIDTH 708 0
DWIDTH 170 0
BBX 140 170 20 0
BITMAP
FFFFFFFFFFFFFFFFFFFFFFC0000000000000
FFFFFFFFFFFFFFFFFFFFFFC0000000000000
FFFFFFFFFFFFFFFFFFFFFFC0000000000000
FFFFFFFFFFFFFFFFFFFFFFC0000000000000
FFFFFFFFFFFFFFFFFFFFFFC0000000000000
FFFFFFFFFFFFFFFFFFFFFFC0000000000000
FFFFFFFFFFFFFFFFFFFFFFC0000000000000
FFFFFFFFFFFFFFFFFFFFFFC0000000000000
FFFFFFFFFFFFFFFFFFFFFFC0000000000000
FFFFFFFFFFFFFFFFFFFFFFC0000000000000
FFFFFFFFFFFFFFFFFFFFFFFFFFFC00000000
FFFFFFFFFFFFFFFFFFFFFFFFFFFC00000000
FFFFFFFFFFFFFFFFFFFFFFFFFFFC00000000
FFFFFFFFFFFFFFFFFFFFFFFFFFFC00000000
FFFFFFFFFFFFFFFFFFFFFFFFFFFC00000000
FFFFFFFFFFFFFFFFFFFFFFFFFFFC00000000
FFFFFFFFFFFFFFFFFFFFFFFFFFFC00000000
FFFFFFFFFFFFFFFFFFFFFFFFFFFC00000000
FFFFFFFFFFFFFFFFFFFFFFFFFFFC00000000
FFFFFFFFFFFFFFFFFFFFFFFFFFFC00000000
FFFFF000000000000000FFFFFFFFFF000000
FFFFF000000000000000FFFFFFFFFF000000
FFFFF000000000000000FFFFFFFFFF000000
FFFFF000000000000000FFFFFFFFFF000000
FFFFF000000000000000FFFFFFFFFF000000
FFFFF000000000000000FFFFFFFFFF000000
FFFFF000000000000000FFFFFFFFFF000000
FFFFF000000000000000FFFFFFFFFF000000
FFFFF000000000000000FFFFFFFFFF000000
FFFFF000000000000000FFFFFFFFFF000000
FFFFF00000000000000000000FFFFFFFC000
FFFFF00000000000000000000FFFFFFFC000
FFFFF00000000000000000000FFFFFFFC000
FFFFF00000000000000000000FFFFFFFC000
FFFFF00000000000000000000FFFFFFFC000
FFFFF00000000000000000000FFFFFFFC000
FFFFF00000000000000000000FFFFFFFC000
FFFFF00000000000000000000FFFFFFFC000
FFFFF00000000000000000000FFFFFFFC000
FFFFF00000000000000000000FFFFFFFC000
FFFFF00000000000000000000003FFFFC000
FFFFF00000000000000000000003FFFFC000
FFFFF00000000000000000000003FFFFC000
FFFFF00000000000000000000003FFFFC000
FFFFF00000000000000000000003FFFFC000
FFFFF00000000000000000000003FFFFC000
FFFFF00000000000000000000003FFFFC000
FFFFF00000000000000000000003FFFFC000
FFFFF00000000000000000000003FFFFC000
FFFFF00000000000000000000003FFFFC000
FFFFF0000000000000000000000000FFFFF0
FFFFF0000000000000000000000000FFFFF0
FFFFF0000000000000000000000000FFFFF0
FFFFF0000000000000000000000000FFFFF0
FFFFF0000000000000000000000000FFFFF0
FFFFF0000000000000000000000000FFFFF0
FFFFF0000000000000000000000000FFFFF0
FFFFF0000000000000000000000000FFFFF0
FFFFF0000000000000000000000000FFFFF0
FFFFF0000000000000000000000000FFFFF0
FFFFF0000000000000000000000000FFFFF0
FFFFF0000000000000000000000000FFFFF0
FFFFF0000000000000000000000000FFFFF0
FFFFF0000000000000000000000000FFFFF0
FFFFF0000000000000000000000000FFFFF0
FFFFF0000000000000000000000000FFFFF0
FFFFF0000000000000000000000000FFFFF0
FFFFF0000000000000000000000000FFFFF0
FFFFF0000000000000000000000000FFFFF0
FFFFF0000000000000000000000000FFFFF0
FFFFF0000000000000000000000000FFFFF0
FFFFF0000000000000000000000000FFFFF0
FFFFF0000000000000000000000000FFFFF0
FFFFF0000000000000000000000000FFFFF0
FFFFF0000000000000000000000000FFFFF0
FFFFF0000000000000000000000000FFFFF0
FFFFF0000000000000000000000000FFFFF0
FFFFF0000000000000000000000000FFFFF0
FFFFF0000000000000000000000000FFFFF0
FFFFF0000000000000000000000000FFFFF0
FFFFF0000000000000000000000000FFFFF0
FFFFF0000000000000000000000000FFFFF0
FFFFF0000000000000000000000000FFFFF0
FFFFF0000000000000000000000000FFFFF0
FFFFF0000000000000000000000000FFFFF0
FFFFF0000000000000000000000000FFFFF0
FFFFF0000000000000000000000000FFFFF0
FFFFF0000000000000000000000000FFFFF0
FFFFF0000000000000000000000000FFFFF0
FFFFF0000000000000000000000000FFFFF0
FFFFF0000000000000000000000000FFFFF0
FFFFF0000000000000000000000000FFFFF0
FFFFF0000000000000000000000000FFFFF0
FFFFF0000000000000000000000000FFFFF0
FFFFF0000000000000000000000000FFFFF0
FFFFF0000000000000000000000000FFFFF0
FFFFF0000000000000000000000000FFFFF0
FFFFF0000000000000000000000000FFFFF0
FFFFF0000000000000000000000000FFFFF0
FFFFF0000000000000000000000000FFFFF0
FFFFF0000000000000000000000000FFFFF0
FFFFF0000000000000000000000000FFFFF0
FFFFF0000000000000000000000000FFFFF0
FFFFF0000000000000000000000000FFFFF0
FFFFF0000000000000000000000000FFFFF0
FFFFF0000000000000000000000000FFFFF0
FFFFF0000000000000000000000000FFFFF0
FFFFF0000000000000000000000000FFFFF0
FFFFF0000000000000000000000000FFFFF0
FFFFF0000000000000000000000000FFFFF0
FFFFF00000000000000000000003FFFFFFF0
FFFFF00000000000000000000003FFFFFFF0
FFFFF00000000000000000000003FFFFFFF0
FFFFF00000000000000000000003FFFFFFF0
FFFFF00000000000000000000003FFFFFFF0
FFFFF00000000000000000000003FFFFFFF0
FFFFF00000000000000000000003FFFFFFF0
FFFFF00000000000000000000003FFFFFFF0
FFFFF00000000000000000000003FFFFFFF0
FFFFF00000000000000000000003FFFFFFF0
FFFFF00000000000000000000003FFFFC000
FFFFF00000000000000000000003FFFFC000
FFFFF00000000000000000000003FFFFC000
FFFFF00000000000000000000003FFFFC000
FFFFF00000000000000000000003FFFFC000
FFFFF00000000000000000000003FFFFC000
FFFFF00000000000000000000003FFFFC000
FFFFF00000000000000000000003FFFFC000
FFFFF00000000000000000000003FFFFC000
FFFFF00000000000000000000003FFFFC000
FFFFF00000000000000000000FFFFFFFC000
FFFFF00000000000000000000FFFFFFFC000
FFFFF00000000000000000000FFFFFFFC000
FFFFF00000000000000000000FFFFFFFC000
FFFFF00000000000000000000FFFFFFFC000
FFFFF00000000000000000000FFFFFFFC000
FFFFF00000000000000000000FFFFFFFC000
FFFFF00000000000000000000FFFFFFFC000
FFFFF00000000000000000000FFFFFFFC000
FFFFF00000000000000000000FFFFFFFC000
FFFFF000000000000000FFFFFFFFFF000000
FFFFF000000000000000FFFFFFFFFF000000
FFFFF000000000000000FFFFFFFFFF000000
FFFFF000000000000000FFFFFFFFFF000000
FFFFF000000000000000FFFFFFFFFF000000
FFFFF000000000000000FFFFFFFFFF000000
FFFFF000000000000000FFFFFFFFFF000000
FFFFF000000000000000FFFFFFFFFF000000
FFFFF000000000000000FFFFFFFFFF000000
FFFFF000000000000000FFFFFFFFFF000000
FFFFFFFFFFFFFFFFFFFFFFFFFFFC00000000
FFFFFFFFFFFFFFFFFFFFFFFFFFFC00000000
FFFFFFFFFFFFFFFFFFFFFFFFFFFC00000000
FFFFFFFFFFFFFFFFFFFFFFFFFFFC00000000
FFFFFFFFFFFFFFFFFFFFFFFFFFFC00000000
FFFFFFFFFFFFFFFFFFFFFFFFFFFC00000000
FFFFFFFFFFFFFFFFFFFFFFFFFFFC00000000
FFFFFFFFFFFFFFFFFFFFFFFFFFFC00000000
FFFFFFFFFFFFFFFFFFFFFFFFFFFC00000000
FFFFFFFFFFFFFFFFFFFFFFFFFFFC00000000
FFFFFFFFFFFFFFFFFFFFFFC0000000000000
FFFFFFFFFFFFFFFFFFFFFFC0000000000000
FFFFFFFFFFFFFFFFFFFFFFC0000000000000
FFFFFFFFFFFFFFFFFFFFFFC0000000000000
FFFFFFFFFFFFFFFFFFFFFFC0000000000000
FFFFFFFFFFFFFFFFFFFFFFC0000000000000
FFFFFFFFFFFFFFFFFFFFFFC0000000000000
FFFFFFFFFFFFFFFFFFFFFFC0000000000000
FFFFFFFFFFFFFFFFFFFFFFC0000000000000
FFFFFFFFFFFFFFFFFFFFFFC0000000000000
ENDCHAR
STARTCHAR E
ENCODING 69
SWIDTH 625 0
DWIDTH 150 0
BBX 130 170 20 0
BITMAP
FFFFFFFFFFFFFFFFFFFFFFFFFFFFFFFFC0
FFFFFFFFFFFFFFFFFFFFFFFFFFFFFFFFC0
FFFFFFFFFFFFFFFFFFFFFFFFFFFFFFFFC0
FFFFFFFFFFFFFFFFFFFFFFFFFFFFFFFFC0
FFFFFFFFFFFFFFFFFFFFFFFFFFFFFFFFC0
FFFFFFFFFFFFFFFFFFFFFFFFFFFFFFFFC0
FFFFFFFFFFFFFFFFFFFFFFFFFFFFFFFFC0
FFFFFFFFFFFFFFFFFFFFFFFFFFFFFFFFC0
FFFFFFFFFFFFFFFFFFFFFFFFFFFFFFFFC0
FFFFFFFFFFFFFFFFFFFFFFFFFFFFFFFFC0
FFFFFFFFFFFFFFFFFFFFFFFFFFFFFFFFC0
FFFFFFFFFFFFFFFFFFFFFFFFFFFFFFFFC0
FFFFFFFFFFFFFFFFFFFFFFFFFFFFFFFFC0
FFFFFFFFFFFFFFFFFFFFFFFFFFFFFFFFC0
FFFFFFFFFFFFFFFFFFFFFFFFFFFFFFFFC0
FFFFFFFFFFFFFFFFFFFFFFFFFFFFFFFFC0
FFFFFFFFFFFFFFFFFFFFFFFFFFFFFFFFC0
FFFFFFFFFFFFFFFFFFFFFFFFFFFFFFFFC0
FFFFFFFFFFFFFFFFFFFFFFFFFFFFFFFFC0
FFFFFFFFFFFFFFFFFFFFFFFFFFFFFFFFC0
FFFFF00000000000000000000000000000
FFFFF00000000000000000000000000000
FFFFF00000000000000000000000000000
FFFFF00000000000000000000000000000
FFFFF00000000000000000000000000000
FFFFF00000000000000000000000000000
FFFFF00000000000000000000000000000
FFFFF00000000000000000000000000000
FFFFF00000000000000000000000000000
FFFFF00000000000000000000000000000
FFFFF00000000000000000000000000000
FFFFF00000000000000000000000000000
FFFFF00000000000000000000000000000
FFFFF00000000000000000000000000000
FFFFF00000000000000000000000000000
FFFFF00000000000000000000000000000
FFFFF00000000000000000000000000000
FFFFF00000000000000000000000000000
FFFFF00000000000000000000000000000
FFFFF00000000000000000000000000000
FFFFF00000000000000000000000000000
FFFFF00000000000000000000000000000
FFFFF00000000000000000000000000000
FFFFF00000000000000000000000000000
FFFFF00000000000000000000000000000
FFFFF00000000000000000000000000000
FFFFF00000000000000000000000000000
FFFFF00000000000000000000000000000
FFFFF00000000000000000000000000000
FFFFF00000000000000000000000000000
FFFFF00000000000000000000000000000
FFFFF00000000000000000000000000000
FFFFF00000000000000000000000000000
FFFFF00000000000000000000000000000
FFFFF00000000000000000000000000000
FFFFF00000000000000000000000000000
FFFFF00000000000000000000000000000
FFFFF00000000000000000000000000000
FFFFF00000000000000000000000000000
FFFFF00000000000000000000000000000
FFFFF00000000000000000000000000000
FFFFF00000000000000000000000000000
FFFFF00000000000000000000000000000
FFFFF00000000000000000000000000000
FFFFF00000000000000000000000000000
FFFFF00000000000000000000000000000
FFFFF00000000000000000000000000000
FFFFF00000000000000000000000000000
FFFFF00000000000000000000000000000
FFFFF00000000000000000000000000000
FFFFFFFFFFFFFFFFFFFFFFFFFFFFFF0000
FFFFFFFFFFFFFFFFFFFFFFFFFFFFFF0000
FFFFFFFFFFFFFFFFFFFFFFFFFFFFFF0000
FFFFFFFFFFFFFFFFFFFFFFFFFFFFFF0000
FFFFFFFFFFFFFFFFFFFFFFFFFFFFFF0000
FFFFFFFFFFFFFFFFFFFFFFFFFFFFFF0000
FFFFFFFFFFFFFFFFFFFFFFFFFFFFFF0000
FFFFFFFFFFFFFFFFFFFFFFFFFFFFFF0000
FFFFFFFFFFFFFFFFFFFFFFFFFFFFFF0000
FFFFFFFFFFFFFFFFFFFFFFFFFFFFFF0000
FFFFFFFFFFFFFFFFFFFFFFFFFFFFFF0000
FFFFFFFFFFFFFFFFFFFFFFFFFFFFFF0000
FFFFFFFFFFFFFFFFFFFFFFFFFFFFFF0000
FFFFFFFFFFFFFFFFFFFFFFFFFFFFFF0000
FFFFFFFFFFFFFFFFFFFFFFFFFFFFFF0000
FFFFFFFFFFFFFFFFFFFFFFFFFFFFFF0000
FFFFFFFFFFFFFFFFFFFFFFFFFFFFFF0000
FFFFFFFFFFFFFFFFFFFFFFFFFFFFFF0000
FFFFFFFFFFFFFFFFFFFFFFFFFFFFFF0000
FFFFFFFFFFFFFFFFFFFFFFFFFFFFFF0000
FFFFF00000000000000000000000000000
FFFFF00000000000000000000000000000
FFFFF00000000000000000000000000000
FFFFF00000000000000000000000000000
FFFFF00000000000000000000000000000
FFFFF00000000000000000000000000000
FFFFF00000000000000000000000000000
FFFFF00000000000000000000000000000
FFFFF00000000000000000000000000000
FFFFF00000000000000000000000000000
FFFFF00000000000000000000000000000
FFFFF00000000000000000000000000000
FFFFF00000000000000000000000000000
FFFFF00000000000000000000000000000
FFFFF00000000000000000000000000000
FFFFF00000000000000000000000000000
FFFFF00000000000000000000000000000
FFFFF00000000000000000000000000000
FFFFF00000000000000000000000000000
FFFFF00000000000000000000000000000
FFFFF00000000000000000000000000000
FFFFF00000000000000000000000000000
FFFFF00000000000000000000000000000
FFFFF00000000000000000000000000000
FFFFF00000000000000000000000000000
FFFFF00000000000000000000000000000
FFFFF00000000000000000000000000000
FFFFF00000000000000000000000000000
FFFFF00000000000000000000000000000
FFFFF00000000000000000000000000000
FFFFF00000000000000000000000000000
FFFFF00000000000000000000000000000
FFFFF00000000000000000000000000000
FFFFF00000000000000000000000000000
FFFFF00000000000000000000000000000
FFFFF00000000000000000000000000000
FFFFF00000000000000000000000000000
FFFFF00000000000000000000000000000
FFFFF00000000000000000000000000000
FFFFF00000000000000000000000000000
FFFFF00000000000000000000000000000
FFFFF00000000000000000000000000000
FFFFF00000000000000000000000000000
FFFFF00000000000000000000000000000
FFFFF00000000000000000000000000000
FFFFF00000000000000000000000000000
FFFFF00000000000000000000000000000
FFFFF00000000000000000000000000000
FFFFF00000000000000000000000000000
FFFFF00000000000000000000000000000
FFFFF00000000000000000000000000000
FFFFF00000000000000000000000000000
FFFFF00000000000000000000000000000
FFFFF00000000000000000000000000000
FFFFF00000000000000000000000000000
FFFFF00000000000000000000000000000
FFFFF00000000000000000000000000000
FFFFF00000000000000000000000000000
FFFFF00000000000000000000000000000
FFFFF00000000000000000000000000000
FFFFFFFFFFFFFFFFFFFFFFFFFFFFFFFFC0
FFFFFFFFFFFFFFFFFFFFFFFFFFFFFFFFC0
FFFFFFFFFFFFFFFFFFFFFFFFFFFFFFFFC0
FFFFFFFFFFFFFFFFFFFFFFFFFFFFFFFFC0
FFFFFFFFFFFFFFFFFFFFFFFFFFFFFFFFC0
FFFFFFFFFFFFFFFFFFFFFFFFFFFFFFFFC0
FFFFFFFFFFFFFFFFFFFFFFFFFFFFFFFFC0
FFFFFFFFFFFFFFFFFFFFFFFFFFFFFFFFC0
FFFFFFFFFFFFFFFFFFFFFFFFFFFFFFFFC0
FFFFFFFFFFFFFFFFFFFFFFFFFFFFFFFFC0
FFFFFFFFFFFFFFFFFFFFFFFFFFFFFFFFC0
FFFFFFFFFFFFFFFFFFFFFFFFFFFFFFFFC0
FFFFFFFFFFFFFFFFFFFFFFFFFFFFFFFFC0
FFFFFFFFFFFFFFFFFFFFFFFFFFFFFFFFC0
FFFFFFFFFFFFFFFFFFFFFFFFFFFFFFFFC0
FFFFFFFFFFFFFFFFFFFFFFFFFFFFFFFFC0
FFFFFFFFFFFFFFFFFFFFFFFFFFFFFFFFC0
FFFFFFFFFFFFFFFFFFFFFFFFFFFFFFFFC0
FFFFFFFFFFFFFFFFFFFFFFFFFFFFFFFFC0
FFFFFFFFFFFFFFFFFFFFFFFFFFFFFFFFC0
ENDCHAR
STARTCHAR F
ENCODING 70
SWIDTH 583 0
DWIDTH 140 0
BBX 120 170 20 0
BITMAP
FFFFFFFFFFFFFFFFFFFFFFFFFFFFFF
FFFFFFFFFFFFFFFFFFFFFFFFFFFFFF
FFFFFFFFFFFFFFFFFFFFFFFFFFFFFF
FFFFFFFFFFFFFFFFFFFFFFFFFFFFFF
FFFFFFFFFFFFFFFFFFFFFFFFFFFFFF
FFFFFFFFFFFFFFFFFFFFFFFFFFFFFF
FFFFFFFFFFFFFFFFFFFFFFFFFFFFFF
FFFFFFFFFFFFFFFFFFFFFFFFFFFFFF
FFFFFFFFFFFFFFFFFFFFFFFFFFFFFF
FFFFFFFFFFFFFFFFFFFFFFFFFFFFFF
FFFFFFFFFFFFFFFFFFFFFFFFFFFFFF
FFFFFFFFFFFFFFFFFFFFFFFFFFFFFF
FFFFFFFFFFFFFFFFFFFFFFFFFFFFFF
FFFFFFFFFFFFFFFFFFFFFFFFFFFFFF
FFFFFFFFFFFFFFFFFFFFFFFFFFFFFF
FFFFFFFFFFFFFFFFFFFFFFFFFFFFFF
FFFFFFFFFFFFFFFFFFFFFFFFFFFFFF
FFFFFFFFFFFFFFFFFFFFFFFFFFFFFF
FFFFFFFFFFFFFFFFFFFFFFFFFFFFFF
FFFFFFFFFFFFFFFFFFFFFFFFFFFFFF
FFFFF0000000000000000000000000
FFFFF0000000000000000000000000
FFFFF0000000000000000000000000
FFFFF0000000000000000000000000
FFFFF0000000000000000000000000
FFFFF0000000000000000000000000
FFFFF0000000000000000000000000
FFFFF0000000000000000000000000
FFFFF0000000000000000000000000
FFFFF0000000000000000000000000
FFFFF0000000000000000000000000
FFFFF0000000000000000000000000
FFFFF0000000000000000000000000
FFFFF0000000000000000000000000
FFFFF0000000000000000000000000
FFFFF0000000000000000000000000
FFFFF0000000000000000000000000
FFFFF0000000000000000000000000
FFFFF0000000000000000000000000
FFFFF0000000000000000000000000
FFFFF0000000000000000000000000
FFFFF0000000000000000000000000
FFFFF0000000000000000000000000
FFFFF0000000000000000000000000
FFFFF0000000000000000000000000
FFFFF0000000000000000000000000
FFFFF0000000000000000000000000
FFFFF0000000000000000000000000
FFFFF0000000000000000000000000
FFFFF0000000000000000000000000
FFFFF0000000000000000000000000
FFFFF0000000000000000000000000
FFFFF0000000000000000000000000
FFFFF0000000000000000000000000
FFFFF0000000000000000000000000
FFFFF0000000000000000000000000
FFFFF0000000000000000000000000
FFFFF0000000000000000000000000
FFFFF0000000000000000000000000
FFFFF0000000000000000000000000
FFFFF0000000000000000000000000
FFFFF0000000000000000000000000
FFFFF0000000000000000000000000
FFFFF0000000000000000000000000
FFFFF0000000000000000000000000
FFFFF0000000000000000000000000
FFFFF0000000000000000000000000
FFFFF0000000000000000000000000
FFFFF0000000000000000000000000
FFFFF0000000000000000000000000
FFFFFFFFFFFFFFFFFFFFFFFFFFFC00
FFFFFFFFFFFFFFFFFFFFFFFFFFFC00
FFFFFFFFFFFFFFFFFFFFFFFFFFFC00
FFFFFFFFFFFFFFFFFFFFFFFFFFFC00
FFFFFFFFFFFFFFFFFFFFFFFFFFFC00
FFFFFFFFFFFFFFFFFFFFFFFFFFFC00
FFFFFFFFFFFFFFFFFFFFFFFFFFFC00
FFFFFFFFFFFFFFFFFFFFFFFFFFFC00
FFFFFFFFFFFFFFFFFFFFFFFFFFFC00
FFFFFFFFFFFFFFFFFFFFFFFFFFFC00
FFFFFFFFFFFFFFFFFFFFFFFFFFFC00
FFFFFFFFFFFFFFFFFFFFFFFFFFFC00
FFFFFFFFFFFFFFFFFFFFFFFFFFFC00
FFFFFFFFFFFFFFFFFFFFFFFFFFFC00
FFFFFFFFFFFFFFFFFFFFFFFFFFFC00
FFFFFFFFFFFFFFFFFFFFFFFFFFFC00
FFFFFFFFFFFFFFFFFFFFFFFFFFFC00
FFFFFFFFFFFFFFFFFFFFFFFFFFFC00
FFFFFFFFFFFFFFFFFFFFFFFFFFFC00
FFFFFFFFFFFFFFFFFFFFFFFFFFFC00
FFFFF0000000000000000000000000
FFFFF0000000000000000000000000
FFFFF0000000000000000000000000
FFFFF0000000000000000000000000
FFFFF0000000000000000000000000
FFFFF0000000000000000000000000
FFFFF0000000000000000000000000
FFFFF0000000000000000000000000
FFFFF0000000000000000000000000
FFFFF0000000000000000000000000
FFFFF0000000000000000000000000
FFFFF0000000000000000000000000
FFFFF0000000000000000000000000
FFFFF0000000000000000000000000
FFFFF0000000000000000000000000
FFFFF0000000000000000000000000
FFFFF0000000000000000000000000
FFFFF0000000000000000000000000
FFFFF0000000000000000000000000
FFFFF0000000000000000000000000
FFFFF0000000000000000000000000
FFFFF0000000000000000000000000
FFFFF0000000000000000000000000
FFFFF0000000000000000000000000
FFFFF0000000000000000000000000
FFFFF0000000000000000000000000
FFFFF0000000000000000000000000
FFFFF0000000000000000000000000
FFFFF0000000000000000000000000
FFFFF0000000000000000000000000
FFFFF0000000000000000000000000
FFFFF0000000000000000000000000
FFFFF0000000000000000000000000
FFFFF0000000000000000000000000
FFFFF0000000000000000000000000
FFFFF0000000000000000000000000
FFFFF0000000000000000000000000
FFFFF0000000000000000000000000
FFFFF0000000000000000000000000
FFFFF0000000000000000000000000
FFFFF0000000000000000000000000
FFFFF0000000000000000000000000
FFFFF0000000000000000000000000
FFFFF0000000000000000000000000
FFFFF0000000000000000000000000
FFFFF0000000000000000000000000
FFFFF0000000000000000000000000
FFFFF0000000000000000000000000
FFFFF0000000000000000000000000
FFFFF0000000000000000000000000
FFFFF0000000000000000000000000
FFFFF0000000000000000000000000
FFFFF0000000000000000000000000
FFFFF0000000000000000000000000
FFFFF0000000000000000000000000
FFFFF0000000000000000000000000
FFFFF0000000000000000000000000
FFFFF0000000000000000000000000
FFFFF0000000000000000000000000
FFFFF0000000000000000000000000
FFFFF0000000000000000000000000
FFFFF0000000000000000000000000
FFFFF0000000000000000000000000
FFFFF0000000000000000000000000
FFFFF0000000000000000000000000
FFFFF0000000000000000000000000
FFFFF0000000000000000000000000
FFFFF0000000000000000000000000
FFFFF0000000000000000000000000
FFFFF0000000000000000000000000
FFFFF0000000000000000000000000
FFFFF0000000000000000000000000
FFFFF0000000000000000000000000
FFFFF0000000000000000000000000
FFFFF0000000000000000000000000
FFFFF0000000000000000000000000
FFFFF0000000000000000000000000
FFFFF0000000000000000000000000
FFFFF0000000000000000000000000
FFFFF0000000000000000000000000
ENDCHAR
STARTCHAR G
ENCODING 71
SWIDTH 750 0
DWIDTH 180 0
BBX 160 170 10 0
BITMAP
0000000000003FFFFFFFFFFFFFFFFF0000000000
0000000000003FFFFFFFFFFFFFFFFF0000000000
0000000000003FFFFFFFFFFFFFFFFF0000000000
0000000000003FFFFFFFFFFFFFFFFF0000000000
0000000000003FFFFFFFFFFFFFFFFF0000000000
0000000000003FFFFFFFFFFFFFFFFF0000000000
0000000000003FFFFFFFFFFFFFFFFF0000000000
0000000000003FFFFFFFFFFFFFFFFF0000000000
0000000000003FFFFFFFFFFFFFFFFF0000000000
0000000000003FFFFFFFFFFFFFFFFF0000000000
00000003FFFFFFFFFFFFFFFFFFFFFFFFFFF00000
00000003FFFFFFFFFFFFFFFFFFFFFFFFFFF00000
00000003FFFFFFFFFFFFFFFFFFFFFFFFFFF00000
00000003FFFFFFFFFFFFFFFFFFFFFFFFFFF00000
00000003FFFFFFFFFFFFFFFFFFFFFFFFFFF00000
00000003FFFFFFFFFFFFFFFFFFFFFFFFFFF00000
00000003FFFFFFFFFFFFFFFFFFFFFFFFFFF00000
00000003FFFFFFFFFFFFFFFFFFFFFFFFFFF00000
00000003FFFFFFFFFFFFFFFFFFFFFFFFFFF00000
00000003FFFFFFFFFFFFFFFFFFFFFFFFFFF00000
00000FFFFFFFC000000000000003FFFFFFFFFC00
00000FFFFFFFC000000000000003FFFFFFFFFC00
00000FFFFFFFC000000000000003FFFFFFFFFC00
00000FFFFFFFC000000000000003FFFFFFFFFC00
00000FFFFFFFC000000000000003FFFFFFFFFC00
00000FFFFFFFC000000000000003FFFFFFFFFC00
00000FFFFFFFC000000000000003FFFFFFFFFC00
00000FFFFFFFC000000000000003FFFFFFFFFC00
00000FFFFFFFC000000000000003FFFFFFFFFC00
00000FFFFFFFC000000000000003FFFFFFFFFC00
003FFFFFFF00000000000000000000003FFFFFFF
003FFFFFFF00000000000000000000003FFFFFFF
003FFFFFFF00000000000000000000003FFFFFFF
003FFFFFFF00000000000000000000003FFFFFFF
003FFFFFFF00000000000000000000003FFFFFFF
003FFFFFFF00000000000000000000003FFFFFFF
003FFFFFFF00000000000000000000003FFFFFFF
003FFFFFFF00000000000000000000003FFFFFFF
003FFFFFFF00000000000000000000003FFFFFFF
003FFFFFFF00000000000000000000003FFFFFFF
003FFFFC0000000000000000000000003FFFFC00
003FFFFC0000000000000000000000003FFFFC00
003FFFFC0000000000000000000000003FFFFC00
003FFFFC0000000000000000000000003FFFFC00
003FFFFC0000000000000000000000003FFFFC00
003FFFFC0000000000000000000000003FFFFC00
003FFFFC0000000000000000000000003FFFFC00
003FFFFC0000000000000000000000003FFFFC00
003FFFFC0000000000000000000000003FFFFC00
003FFFFC0000000000000000000000003FFFFC00
FFFFF00000000000000000000000000000000000
FFFFF00000000000000000000000000000000000
FFFFF00000000000000000000000000000000000
FFFFF00000000000000000000000000000000000
FFFFF00000000000000000000000000000000000
FFFFF00000000000000000000000000000000000
FFFFF00000000000000000000000000000000000
FFFFF00000000000000000000000000000000000
FFFFF00000000000000000000000000000000000
FFFFF00000000000000000000000000000000000
FFFFF00000000000000000000000000000000000
FFFFF00000000000000000000000000000000000
FFFFF00000000000000000000000000000000000
FFFFF00000000000000000000000000000000000
FFFFF00000000000000000000000000000000000
FFFFF00000000000000000000000000000000000
FFFFF00000000000000000000000000000000000
FFFFF00000000000000000000000000000000000
FFFFF00000000000000000000000000000000000
FFFFF00000000000000000000000000000000000
FFFFF00000000000000000000000000000000000
FFFFF00000000000000000000000000000000000
FFFFF00000000000000000000000000000000000
FFFFF00000000000000000000000000000000000
FFFFF00000000000000000000000000000000000
FFFFF00000000000000000000000000000000000
FFFFF00000000000000000000000000000000000
FFFFF00000000000000000000000000000000000
FFFFF00000000000000000000000000000000000
FFFFF00000000000000000000000000000000000
FFFFF00000000000000000000000000000000000
FFFFF00000000000000000000000000000000000
FFFFF00000000000000000000000000000000000
FFFFF00000000000000000000000000000000000
FFFFF00000000000000000000000000000000000
FFFFF00000000000000000000000000000000000
FFFFF00000000000000000000000000000000000
FFFFF00000000000000000000000000000000000
FFFFF00000000000000000000000000000000000
FFFFF00000000000000000000000000000000000
FFFFF000000000000000003FFFFFFFFFFFFFFFFF
FFFFF000000000000000003FFFFFFFFFFFFFFFFF
FFFFF000000000000000003FFFFFFFFFFFFFFFFF
FFFFF000000000000000003FFFFFFFFFFFFFFFFF
FFFFF000000000000000003FFFFFFFFFFFFFFFFF
FFFFF000000000000000003FFFFFFFFFFFFFFFFF
FFFFF000000000000000003FFFFFFFFFFFFFFFFF
FFFFF000000000000000003FFFFFFFFFFFFFFFFF
FFFFF000000000000000003FFFFFFFFFFFFFFFFF
FFFFF000000000000000003FFFFFFFFFFFFFFFFF
FFFFF000000000000000003FFFFFFFFFFFFFFFFF
FFFFF000000000000000003FFFFFFFFFFFFFFFFF
FFFFF000000000000000003FFFFFFFFFFFFFFFFF
FFFFF000000000000000003FFFFFFFFFFFFFFFFF
FFFFF000000000000000003FFFFFFFFFFFFFFFFF
FFFFF000000000000000003FFFFFFFFFFFFFFFFF
FFFFF000000000000000003FFFFFFFFFFFFFFFFF
FFFFF000000000000000003FFFFFFFFFFFFFFFFF
FFFFF000000000000000003FFFFFFFFFFFFFFFFF
FFFFF000000000000000003FFFFFFFFFFFFFFFFF
FFFFFFFC000000000000000000000000000FFFFF
FFFFFFFC000000000000000000000000000FFFFF
FFFFFFFC000000000000000000000000000FFFFF
FFFFFFFC000000000000000000000000000FFFFF
FFFFFFFC000000000000000000000000000FFFFF
FFFFFFFC000000000000000000000000000FFFFF
FFFFFFFC000000000000000000000000000FFFFF
FFFFFFFC000000000000000000000000000FFFFF
FFFFFFFC000000000000000000000000000FFFFF
FFFFFFFC000000000000000000000000000FFFFF
003FFFFC000000000000000000000000000FFFFF
003FFFFC000000000000000000000000000FFFFF
003FFFFC000000000000000000000000000FFFFF
003FFFFC000000000000000000000000000FFFFF
003FFFFC000000000000000000000000000FFFFF
003FFFFC000000000000000000000000000FFFFF
003FFFFC000000000000000000000000000FFFFF
003FFFFC000000000000000000000000000FFFFF
003FFFFC000000000000000000000000000FFFFF
003FFFFC000000000000000000000000000FFFFF
003FFFFFFF0000000000000000000000000FFFFF
003FFFFFFF0000000000000000000000000FFFFF
003FFFFFFF0000000000000000000000000FFFFF
003FFFFFFF0000000000000000000000000FFFFF
003FFFFFFF0000000000000000000000000FFFFF
003FFFFFFF0000000000000000000000000FFFFF
003FFFFFFF0000000000000000000000000FFFFF
003FFFFFFF0000000000000000000000000FFFFF
003FFFFFFF0000000000000000000000000FFFFF
003FFFFFFF0000000000000000000000000FFFFF
00000FFFFFFFFFF000000000000000FFFFFFFFFF
00000FFFFFFFFFF000000000000000FFFFFFFFFF
00000FFFFFFFFFF000000000000000FFFFFFFFFF
00000FFFFFFFFFF000000000000000FFFFFFFFFF
00000FFFFFFFFFF000000000000000FFFFFFFFFF
00000FFFFFFFFFF000000000000000FFFFFFFFFF
00000FFFFFFFFFF000000000000000FFFFFFFFFF
00000FFFFFFFFFF000000000000000FFFFFFFFFF
00000FFFFFFFFFF000000000000000FFFFFFFFFF
00000FFFFFFFFFF000000000000000FFFFFFFFFF
00000003FFFFFFFFFFFFFFFFFFFFFFFFFFFFFC00
00000003FFFFFFFFFFFFFFFFFFFFFFFFFFFFFC00
00000003FFFFFFFFFFFFFFFFFFFFFFFFFFFFFC00
00000003FFFFFFFFFFFFFFFFFFFFFFFFFFFFFC00
00000003FFFFFFFFFFFFFFFFFFFFFFFFFFFFFC00
00000003FFFFFFFFFFFFFFFFFFFFFFFFFFFFFC00
00000003FFFFFFFFFFFFFFFFFFFFFFFFFFFFFC00
00000003FFFFFFFFFFFFFFFFFFFFFFFFFFFFFC00
00000003FFFFFFFFFFFFFFFFFFFFFFFFFFFFFC00
00000003FFFFFFFFFFFFFFFFFFFFFFFFFFFFFC00
0000000000003FFFFFFFFFFFFFFFFF0000000000
0000000000003FFFFFFFFFFFFFFFFF0000000000
0000000000003FFFFFFFFFFFFFFFFF0000000000
0000000000003FFFFFFFFFFFFFFFFF0000000000
0000000000003FFFFFFFFFFFFFFFFF0000000000
0000000000003FFFFFFFFFFFFFFFFF0000000000
0000000000003FFFFFFFFFFFFFFFFF0000000000
0000000000003FFFFFFFFFFFFFFFFF0000000000
0000000000003FFFFFFFFFFFFFFFFF0000000000
0000000000003FFFFFFFFFFFFFFFFF0000000000
ENDCHAR
STARTCHAR H
ENCODING 72
SWIDTH 708 0
DWIDTH 170 0
BBX 130 170 20 0
BITMAP
FFFFF00000000000000000000003FFFFC0
FFFFF00000000000000000000003FFFFC0
FFFFF00000000000000000000003FFFFC0
FFFFF00000000000000000000003FFFFC0
FFFFF00000000000000000000003FFFFC0
FFFFF00000000000000000000003FFFFC0
FFFFF00000000000000000000003FFFFC0
FFFFF00000000000000000000003FFFFC0
FFFFF00000000000000000000003FFFFC0
FFFFF00000000000000000000003FFFFC0
FFFFF00000000000000000000003FFFFC0
FFFFF00000000000000000000003FFFFC0
FFFFF00000000000000000000003FFFFC0
FFFFF00000000000000000000003FFFFC0
FFFFF00000000000000000000003FFFFC0
FFFFF00000000000000000000003FFFFC0
FFFFF00000000000000000000003FFFFC0
FFFFF00000000000000000000003FFFFC0
FFFFF00000000000000000000003FFFFC0
FFFFF00000000000000000000003FFFFC0
FFFFF00000000000000000000003FFFFC0
FFFFF00000000000000000000003FFFFC0
FFFFF00000000000000000000003FFFFC0
FFFFF00000000000000000000003FFFFC0
FFFFF00000000000000000000003FFFFC0
FFFFF00000000000000000000003FFFFC0
FFFFF00000000000000000000003FFFFC0
FFFFF00000000000000000000003FFFFC0
FFFFF00000000000000000000003FFFFC0
FFFFF00000000000000000000003FFFFC0
FFFFF00000000000000000000003FFFFC0
FFFFF00000000000000000000003FFFFC0
FFFFF00000000000000000000003FFFFC0
FFFFF00000000000000000000003FFFFC0
FFFFF00000000000000000000003FFFFC0
FFFFF00000000000000000000003FFFFC0
FFFFF00000000000000000000003FFFFC0
FFFFF00000000000000000000003FFFFC0
FFFFF00000000000000000000003FFFFC0
FFFFF00000000000000000000003FFFFC0
FFFFF00000000000000000000003FFFFC0
FFFFF00000000000000000000003FFFFC0
FFFFF00000000000000000000003FFFFC0
FFFFF00000000000000000000003FFFFC0
FFFFF00000000000000000000003FFFFC0
FFFFF00000000000000000000003FFFFC0
FFFFF00000000000000000000003FFFFC0
FFFFF00000000000000000000003FFFFC0
FFFFF00000000000000000000003FFFFC0
FFFFF00000000000000000000003FFFFC0
FFFFF00000000000000000000003FFFFC0
FFFFF00000000000000000000003FFFFC0
FFFFF00000000000000000000003FFFFC0
FFFFF00000000000000000000003FFFFC0
FFFFF00000000000000000000003FFFFC0
FFFFF00000000000000000000003FFFFC0
FFFFF00000000000000000000003FFFFC0
FFFFF00000000000000000000003FFFFC0
FFFFF00000000000000000000003FFFFC0
FFFFF00000000000000000000003FFFFC0
FFFFF00000000000000000000003FFFFC0
FFFFF00000000000000000000003FFFFC0
FFFFF00000000000000000000003FFFFC0
FFFFF00000000000000000000003FFFFC0
FFFFF00000000000000000000003FFFFC0
FFFFF00000000000000000000003FFFFC0
FFFFF00000000000000000000003FFFFC0
FFFFF00000000000000000000003FFFFC0
FFFFF00000000000000000000003FFFFC0
FFFFF00000000000000000000003FFFFC0
FFFFFFFFFFFFFFFFFFFFFFFFFFFFFFFFC0
FFFFFFFFFFFFFFFFFFFFFFFFFFFFFFFFC0
FFFFFFFFFFFFFFFFFFFFFFFFFFFFFFFFC0
FFFFFFFFFFFFFFFFFFFFFFFFFFFFFFFFC0
FFFFFFFFFFFFFFFFFFFFFFFFFFFFFFFFC0
FFFFFFFFFFFFFFFFFFFFFFFFFFFFFFFFC0
FFFFFFFFFFFFFFFFFFFFFFFFFFFFFFFFC0
FFFFFFFFFFFFFFFFFFFFFFFFFFFFFFFFC0
FFFFFFFFFFFFFFFFFFFFFFFFFFFFFFFFC0
FFFFFFFFFFFFFFFFFFFFFFFFFFFFFFFFC0
FFFFFFFFFFFFFFFFFFFFFFFFFFFFFFFFC0
FFFFFFFFFFFFFFFFFFFFFFFFFFFFFFFFC0
FFFFFFFFFFFFFFFFFFFFFFFFFFFFFFFFC0
FFFFFFFFFFFFFFFFFFFFFFFFFFFFFFFFC0
FFFFFFFFFFFFFFFFFFFFFFFFFFFFFFFFC0
FFFFFFFFFFFFFFFFFFFFFFFFFFFFFFFFC0
FFFFFFFFFFFFFFFFFFFFFFFFFFFFFFFFC0
FFFFFFFFFFFFFFFFFFFFFFFFFFFFFFFFC0
FFFFFFFFFFFFFFFFFFFFFFFFFFFFFFFFC0
FFFFFFFFFFFFFFFFFFFFFFFFFFFFFFFFC0
FFFFF00000000000000000000003FFFFC0
FFFFF00000000000000000000003FFFFC0
FFFFF00000000000000000000003FFFFC0
FFFFF00000000000000000000003FFFFC0
FFFFF00000000000000000000003FFFFC0
FFFFF00000000000000000000003FFFFC0
FFFFF00000000000000000000003FFFFC0
FFFFF00000000000000000000003FFFFC0
FFFFF00000000000000000000003FFFFC0
FFFFF00000000000000000000003FFFFC0
FFFFF00000000000000000000003FFFFC0
FFFFF00000000000000000000003FFFFC0
FFFFF00000000000000000000003FFFFC0
FFFFF00000000000000000000003FFFFC0
FFFFF00000000000000000000003FFFFC0
FFFFF00000000000000000000003FFFFC0
FFFFF00000000000000000000003FFFFC0
FFFFF00000000000000000000003FFFFC0
FFFFF00000000000000000000003FFFFC0
FFFFF00000000000000000000003FFFFC0
FFFFF00000000000000000000003FFFFC0
FFFFF00000000000000000000003FFFFC0
FFFFF00000000000000000000003FFFFC0
FFFFF00000000000000000000003FFFFC0
FFFFF00000000000000000000003FFFFC0
FFFFF00000000000000000000003FFFFC0
FFFFF00000000000000000000003FFFFC0
FFFFF00000000000000000000003FFFFC0
FFFFF00000000000000000000003FFFFC0
FFFFF00000000000000000000003FFFFC0
FFFFF00000000000000000000003FFFFC0
FFFFF00000000000000000000003FFFFC0
FFFFF00000000000000000000003FFFFC0
FFFFF00000000000000000000003FFFFC0
FFFFF00000000000000000000003FFFFC0
FFFFF00000000000000000000003FFFFC0
FFFFF00000000000000000000003FFFFC0
FFFFF00000000000000000000003FFFFC0
FFFFF00000000000000000000003FFFFC0
FFFFF00000000000000000000003FFFFC0
FFFFF00000000000000000000003FFFFC0
FFFFF00000000000000000000003FFFFC0
FFFFF00000000000000000000003FFFFC0
FFFFF00000000000000000000003FFFFC0
FFFFF00000000000000000000003FFFFC0
FFFFF00000000000000000000003FFFFC0
FFFFF00000000000000000000003FFFFC0
FFFFF00000000000000000000003FFFFC0
FFFFF00000000000000000000003FFFFC0
FFFFF00000000000000000000003FFFFC0
FFFFF00000000000000000000003FFFFC0
FFFFF00000000000000000000003FFFFC0
FFFFF00000000000000000000003FFFFC0
FFFFF00000000000000000000003FFFFC0
FFFFF00000000000000000000003FFFFC0
FFFFF00000000000000000000003FFFFC0
FFFFF00000000000000000000003FFFFC0
FFFFF00000000000000000000003FFFFC0
FFFFF00000000000000000000003FFFFC0
FFFFF00000000000000000000003FFFFC0
FFFFF00000000000000000000003FFFFC0
FFFFF00000000000000000000003FFFFC0
FFFFF00000000000000000000003FFFFC0
FFFFF00000000000000000000003FFFFC0
FFFFF00000000000000000000003FFFFC0
FFFFF00000000000000000000003FFFFC0
FFFFF00000000000000000000003FFFFC0
FFFFF00000000000000000000003FFFFC0
FFFFF00000000000000000000003FFFFC0
FFFFF00000000000000000000003FFFFC0
FFFFF00000000000000000000003FFFFC0
FFFFF00000000000000000000003FFFFC0
FFFFF00000000000000000000003FFFFC0
FFFFF00000000000000000000003FFFFC0
FFFFF00000000000000000000003FFFFC0
FFFFF00000000000000000000003FFFFC0
FFFFF00000000000000000000003FFFFC0
FFFFF00000000000000000000003FFFFC0
FFFFF00000000000000000000003FFFFC0
FFFFF00000000000000000000003FFFFC0
ENDCHAR
STARTCHAR I
ENCODING 73
SWIDTH 250 0
DWIDTH 60 0
BBX 20 170 20 0
BITMAP
FFFFF0
FFFFF0
FFFFF0
FFFFF0
FFFFF0
FFFFF0
FFFFF0
FFFFF0
FFFFF0
FFFFF0
FFFFF0
FFFFF0
FFFFF0
FFFFF0
FFFFF0
FFFFF0
FFFFF0
FFFFF0
FFFFF0
FFFFF0
FFFFF0
FFFFF0
FFFFF0
FFFFF0
FFFFF0
FFFFF0
FFFFF0
FFFFF0
FFFFF0
FFFFF0
FFFFF0
FFFFF0
FFFFF0
FFFFF0
FFFFF0
FFFFF0
FFFFF0
FFFFF0
FFFFF0
FFFFF0
FFFFF0
FFFFF0
FFFFF0
FFFFF0
FFFFF0
FFFFF0
FFFFF0
FFFFF0
FFFFF0
FFFFF0
FFFFF0
FFFFF0
FFFFF0
FFFFF0
FFFFF0
FFFFF0
FFFFF0
FFFFF0
FFFFF0
FFFFF0
FFFFF0
FFFFF0
FFFFF0
FFFFF0
FFFFF0
FFFFF0
FFFFF0
FFFFF0
FFFFF0
FFFFF0
FFFFF0
FFFFF0
FFFFF0
FFFFF0
FFFFF0
FFFFF0
FFFFF0
FFFFF0
FFFFF0
FFFFF0
FFFFF0
FFFFF0
FFFFF0
FFFFF0
FFFFF0
FFFFF0
FFFFF0
FFFFF0
FFFFF0
FFFFF0
FFFFF0
FFFFF0
FFFFF0
FFFFF0
FFFFF0
FFFFF0
FFFFF0
FFFFF0
FFFFF0
FFFFF0
FFFFF0
FFFFF0
FFFFF0
FFFFF0
FFFFF0
FFFFF0
FFFFF0
FFFFF0
FFFFF0
FFFFF0
FFFFF0
FFFFF0
FFFFF0
FFFFF0
FFFFF0
FFFFF0
FFFFF0
FFFFF0
FFFFF0
FFFFF0
FFFFF0
FFFFF0
FFFFF0
FFFFF0
FFFFF0
FFFFF0
FFFFF0
FFFFF0
FFFFF0
FFFFF0
FFFFF0
FFFFF0
FFFFF0
FFFFF0
FFFFF0
FFFFF0
FFFFF0
FFFFF0
FFFFF0
FFFFF0
FFFFF0
FFFFF0
FFFFF0
FFFFF0
FFFFF0
FFFFF0
FFFFF0
FFFFF0
FFFFF0
FFFFF0
FFFFF0
FFFFF0
FFFFF0
FFFFF0
FFFFF0
FFFFF0
FFFFF0
FFFFF0
FFFFF0
FFFFF0
FFFFF0
FFFFF0
FFFFF0
FFFFF0
FFFFF0
FFFFF0
FFFFF0
FFFFF0
FFFFF0
FFFFF0
ENDCHAR
STARTCHAR J
ENCODING 74
SWIDTH 500 0
DWIDTH 120 0
BBX 100 170 0 0
BITMAP
0000000000FFFFFFFFFFFFFFF0
0000000000FFFFFFFFFFFFFFF0
0000000000FFFFFFFFFFFFFFF0
0000000000FFFFFFFFFFFFFFF0
0000000000FFFFFFFFFFFFFFF0
0000000000FFFFFFFFFFFFFFF0
0000000000FFFFFFFFFFFFFFF0
0000000000FFFFFFFFFFFFFFF0
0000000000FFFFFFFFFFFFFFF0
0000000000FFFFFFFFFFFFFFF0
0000000000FFFFFFFFFFFFFFF0
0000000000FFFFFFFFFFFFFFF0
0000000000FFFFFFFFFFFFFFF0
0000000000FFFFFFFFFFFFFFF0
0000000000FFFFFFFFFFFFFFF0
0000000000FFFFFFFFFFFFFFF0
0000000000FFFFFFFFFFFFFFF0
0000000000FFFFFFFFFFFFFFF0
0000000000FFFFFFFFFFFFFFF0
0000000000FFFFFFFFFFFFFFF0
00000000000000000000FFFFF0
00000000000000000000FFFFF0
00000000000000000000FFFFF0
00000000000000000000FFFFF0
00000000000000000000FFFFF0
00000000000000000000FFFFF0
00000000000000000000FFFFF0
00000000000000000000FFFFF0
00000000000000000000FFFFF0
00000000000000000000FFFFF0
00000000000000000000FFFFF0
00000000000000000000FFFFF0
00000000000000000000FFFFF0
00000000000000000000FFFFF0
00000000000000000000FFFFF0
00000000000000000000FFFFF0
00000000000000000000FFFFF0
00000000000000000000FFFFF0
00000000000000000000FFFFF0
00000000000000000000FFFFF0
00000000000000000000FFFFF0
00000000000000000000FFFFF0
00000000000000000000FFFFF0
00000000000000000000FFFFF0
00000000000000000000FFFFF0
00000000000000000000FFFFF0
00000000000000000000FFFFF0
00000000000000000000FFFFF0
00000000000000000000FFFFF0
00000000000000000000FFFFF0
00000000000000000000FFFFF0
00000000000000000000FFFFF0
00000000000000000000FFFFF0
00000000000000000000FFFFF0
00000000000000000000FFFFF0
00000000000000000000FFFFF0
00000000000000000000FFFFF0
00000000000000000000FFFFF0
00000000000000000000FFFFF0
00000000000000000000FFFFF0
00000000000000000000FFFFF0
00000000000000000000FFFFF0
00000000000000000000FFFFF0
00000000000000000000FFFFF0
00000000000000000000FFFFF0
00000000000000000000FFFFF0
00000000000000000000FFFFF0
00000000000000000000FFFFF0
00000000000000000000FFFFF0
00000000000000000000FFFFF0
00000000000000000000FFFFF0
00000000000000000000FFFFF0
00000000000000000000FFFFF0
00000000000000000000FFFFF0
00000000000000000000FFFFF0
00000000000000000000FFFFF0
00000000000000000000FFFFF0
00000000000000000000FFFFF0
00000000000000000000FFFFF0
00000000000000000000FFFFF0
00000000000000000000FFFFF0
00000000000000000000FFFFF0
00000000000000000000FFFFF0
00000000000000000000FFFFF0
00000000000000000000FFFFF0
00000000000000000000FFFFF0
00000000000000000000FFFFF0
00000000000000000000FFFFF0
00000000000000000000FFFFF0
00000000000000000000FFFFF0
00000000000000000000FFFFF0
00000000000000000000FFFFF0
00000000000000000000FFFFF0
00000000000000000000FFFFF0
00000000000000000000FFFFF0
00000000000000000000FFFFF0
00000000000000000000FFFFF0
00000000000000000000FFFFF0
00000000000000000000FFFFF0
00000000000000000000FFFFF0
00000000000000000000FFFFF0
00000000000000000000FFFFF0
00000000000000000000FFFFF0
00000000000000000000FFFFF0
00000000000000000000FFFFF0
00000000000000000000FFFFF0
00000000000000000000FFFFF0
00000000000000000000FFFFF0
00000000000000000000FFFFF0
00000000000000000000FFFFF0
00000000000000000000FFFFF0
00000000000000000000FFFFF0
00000000000000000000FFFFF0
00000000000000000000FFFFF0
00000000000000000000FFFFF0
00000000000000000000FFFFF0
00000000000000000000FFFFF0
00000000000000000000FFFFF0
00000000000000000000FFFFF0
00000000000000000000FFFFF0
FFFFF000000000000000FFFFF0
FFFFF000000000000000FFFFF0
FFFFF000000000000000FFFFF0
FFFFF000000000000000FFFFF0
FFFFF000000000000000FFFFF0
FFFFF000000000000000FFFFF0
FFFFF000000000000000FFFFF0
FFFFF000000000000000FFFFF0
FFFFF000000000000000FFFFF0
FFFFF000000000000000FFFFF0
FFFFFFFC000000000000FFFFF0
FFFFFFFC000000000000FFFFF0
FFFFFFFC000000000000FFFFF0
FFFFFFFC000000000000FFFFF0
FFFFFFFC000000000000FFFFF0
FFFFFFFC000000000000FFFFF0
FFFFFFFC000000000000FFFFF0
FFFFFFFC000000000000FFFFF0
FFFFFFFC000000000000FFFFF0
FFFFFFFC000000000000FFFFF0
003FFFFFFF00000003FFFFC000
003FFFFFFF00000003FFFFC000
003FFFFFFF00000003FFFFC000
003FFFFFFF00000003FFFFC000
003FFFFFFF00000003FFFFC000
003FFFFFFF00000003FFFFC000
003FFFFFFF00000003FFFFC000
003FFFFFFF00000003FFFFC000
003FFFFFFF00000003FFFFC000
003FFFFFFF00000003FFFFC000
003FFFFFFFFFFFFFFFFFFFC000
003FFFFFFFFFFFFFFFFFFFC000
003FFFFFFFFFFFFFFFFFFFC000
003FFFFFFFFFFFFFFFFFFFC000
003FFFFFFFFFFFFFFFFFFFC000
003FFFFFFFFFFFFFFFFFFFC000
003FFFFFFFFFFFFFFFFFFFC000
003FFFFFFFFFFFFFFFFFFFC000
003FFFFFFFFFFFFFFFFFFFC000
003FFFFFFFFFFFFFFFFFFFC000
00000003FFFFFFFFFC00000000
00000003FFFFFFFFFC00000000
00000003FFFFFFFFFC00000000
00000003FFFFFFFFFC00000000
00000003FFFFFFFFFC00000000
00000003FFFFFFFFFC00000000
00000003FFFFFFFFFC00000000
00000003FFFFFFFFFC00000000
00000003FFFFFFFFFC00000000
00000003FFFFFFFFFC00000000
ENDCHAR
STARTCHAR K
ENCODING 75
SWIDTH 625 0
DWIDTH 150 0
BBX 140 170 20 0
BITMAP
FFFFF00000000000000000000FFFFFFFC000
FFFFF00000000000000000000FFFFFFFC000
FFFFF00000000000000000000FFFFFFFC000
FFFFF00000000000000000000FFFFFFFC000
FFFFF00000000000000000000FFFFFFFC000
FFFFF00000000000000000000FFFFFFFC000
FFFFF00000000000000000000FFFFFFFC000
FFFFF00000000000000000000FFFFFFFC000
FFFFF00000000000000000000FFFFFFFC000
FFFFF00000000000000000000FFFFFFFC000
FFFFF000000000000000003FFFFFFF000000
FFFFF000000000000000003FFFFFFF000000
FFFFF000000000000000003FFFFFFF000000
FFFFF000000000000000003FFFFFFF000000
FFFFF000000000000000003FFFFFFF000000
FFFFF000000000000000003FFFFFFF000000
FFFFF000000000000000003FFFFFFF000000
FFFFF000000000000000003FFFFFFF000000
FFFFF000000000000000003FFFFFFF000000
FFFFF000000000000000003FFFFFFF000000
FFFFF000000000000000FFFFFFFC00000000
FFFFF000000000000000FFFFFFFC00000000
FFFFF000000000000000FFFFFFFC00000000
FFFFF000000000000000FFFFFFFC00000000
FFFFF000000000000000FFFFFFFC00000000
FFFFF000000000000000FFFFFFFC00000000
FFFFF000000000000000FFFFFFFC00000000
FFFFF000000000000000FFFFFFFC00000000
FFFFF000000000000000FFFFFFFC00000000
FFFFF000000000000000FFFFFFFC00000000
FFFFF0000000000003FFFFFFF00000000000
FFFFF0000000000003FFFFFFF00000000000
FFFFF0000000000003FFFFFFF00000000000
FFFFF0000000000003FFFFFFF00000000000
FFFFF0000000000003FFFFFFF00000000000
FFFFF0000000000003FFFFFFF00000000000
FFFFF0000000000003FFFFFFF00000000000
FFFFF0000000000003FFFFFFF00000000000
FFFFF0000000000003FFFFFFF00000000000
FFFFF0000000000003FFFFFFF00000000000
FFFFF0000000000FFFFFFFC0000000000000
FFFFF0000000000FFFFFFFC0000000000000
FFFFF0000000000FFFFFFFC0000000000000
FFFFF0000000000FFFFFFFC0000000000000
FFFFF0000000000FFFFFFFC0000000000000
FFFFF0000000000FFFFFFFC0000000000000
FFFFF0000000000FFFFFFFC0000000000000
FFFFF0000000000FFFFFFFC0000000000000
FFFFF0000000000FFFFFFFC0000000000000
FFFFF0000000000FFFFFFFC0000000000000
FFFFF00000003FFFFFFF0000000000000000
FFFFF00000003FFFFFFF0000000000000000
FFFFF00000003FFFFFFF0000000000000000
FFFFF00000003FFFFFFF0000000000000000
FFFFF00000003FFFFFFF0000000000000000
FFFFF00000003FFFFFFF0000000000000000
FFFFF00000003FFFFFFF0000000000000000
FFFFF00000003FFFFFFF0000000000000000
FFFFF00000003FFFFFFF0000000000000000
FFFFF00000003FFFFFFF0000000000000000
FFFFF00000FFFFFFFC000000000000000000
FFFFF00000FFFFFFFC000000000000000000
FFFFF00000FFFFFFFC000000000000000000
FFFFF00000FFFFFFFC000000000000000000
FFFFF00000FFFFFFFC000000000000000000
FFFFF00000FFFFFFFC000000000000000000
FFFFF00000FFFFFFFC000000000000000000
FFFFF00000FFFFFFFC000000000000000000
FFFFF00000FFFFFFFC000000000000000000
FFFFF00000FFFFFFFC000000000000000000
FFFFF003FFFFFFF000000000000000000000
FFFFF003FFFFFFF000000000000000000000
FFFFF003FFFFFFF000000000000000000000
FFFFF003FFFFFFF000000000000000000000
FFFFF003FFFFFFF000000000000000000000
FFFFF003FFFFFFF000000000000000000000
FFFFF003FFFFFFF000000000000000000000
FFFFF003FFFFFFF000000000000000000000
FFFFF003FFFFFFF000000000000000000000
FFFFF003FFFFFFF000000000000000000000
FFFFFFFFFFFFFFFFFC000000000000000000
FFFFFFFFFFFFFFFFFC000000000000000000
FFFFFFFFFFFFFFFFFC000000000000000000
FFFFFFFFFFFFFFFFFC000000000000000000
FFFFFFFFFFFFFFFFFC000000000000000000
FFFFFFFFFFFFFFFFFC000000000000000000
FFFFFFFFFFFFFFFFFC000000000000000000
FFFFFFFFFFFFFFFFFC000000000000000000
FFFFFFFFFFFFFFFFFC000000000000000000
FFFFFFFFFFFFFFFFFC000000000000000000
FFFFFFFC00003FFFFFFF0000000000000000
FFFFFFFC00003FFFFFFF0000000000000000
FFFFFFFC00003FFFFFFF0000000000000000
FFFFFFFC00003FFFFFFF0000000000000000
FFFFFFFC00003FFFFFFF0000000000000000
FFFFFFFC00003FFFFFFF0000000000000000
FFFFFFFC00003FFFFFFF0000000000000000
FFFFFFFC00003FFFFFFF0000000000000000
FFFFFFFC00003FFFFFFF0000000000000000
FFFFFFFC00003FFFFFFF0000000000000000
FFFFF0000000000FFFFF0000000000000000
FFFFF0000000000FFFFF0000000000000000
FFFFF0000000000FFFFF0000000000000000
FFFFF0000000000FFFFF0000000000000000
FFFFF0000000000FFFFF0000000000000000
FFFFF0000000000FFFFF0000000000000000
FFFFF0000000000FFFFF0000000000000000
FFFFF0000000000FFFFF0000000000000000
FFFFF0000000000FFFFF0000000000000000
FFFFF0000000000FFFFF0000000000000000
FFFFF0000000000003FFFFC0000000000000
FFFFF0000000000003FFFFC0000000000000
FFFFF0000000000003FFFFC0000000000000
FFFFF0000000000003FFFFC0000000000000
FFFFF0000000000003FFFFC0000000000000
FFFFF0000000000003FFFFC0000000000000
FFFFF0000000000003FFFFC0000000000000
FFFFF0000000000003FFFFC0000000000000
FFFFF0000000000003FFFFC0000000000000
FFFFF0000000000003FFFFC0000000000000
FFFFF000000000000000FFFFF00000000000
FFFFF000000000000000FFFFF00000000000
FFFFF000000000000000FFFFF00000000000
FFFFF000000000000000FFFFF00000000000
FFFFF000000000000000FFFFF00000000000
FFFFF000000000000000FFFFF00000000000
FFFFF000000000000000FFFFF00000000000
FFFFF000000000000000FFFFF00000000000
FFFFF000000000000000FFFFF00000000000
FFFFF000000000000000FFFFF00000000000
FFFFF000000000000000FFFFFFFC00000000
FFFFF000000000000000FFFFFFFC00000000
FFFFF000000000000000FFFFFFFC00000000
FFFFF000000000000000FFFFFFFC00000000
FFFFF000000000000000FFFFFFFC00000000
FFFFF000000000000000FFFFFFFC00000000
FFFFF000000000000000FFFFFFFC00000000
FFFFF000000000000000FFFFFFFC00000000
FFFFF000000000000000FFFFFFFC00000000
FFFFF000000000000000FFFFFFFC00000000
FFFFF000000000000000003FFFFFFF000000
FFFFF000000000000000003FFFFFFF000000
FFFFF000000000000000003FFFFFFF000000
FFFFF000000000000000003FFFFFFF000000
FFFFF000000000000000003FFFFFFF000000
FFFFF000000000000000003FFFFFFF000000
FFFFF000000000000000003FFFFFFF000000
FFFFF000000000000000003FFFFFFF000000
FFFFF000000000000000003FFFFFFF000000
FFFFF000000000000000003FFFFFFF000000
FFFFF00000000000000000000FFFFFFFC000
FFFFF00000000000000000000FFFFFFFC000
FFFFF00000000000000000000FFFFFFFC000
FFFFF00000000000000000000FFFFFFFC000
FFFFF00000000000000000000FFFFFFFC000
FFFFF00000000000000000000FFFFFFFC000
FFFFF00000000000000000000FFFFFFFC000
FFFFF00000000000000000000FFFFFFFC000
FFFFF00000000000000000000FFFFFFFC000
FFFFF00000000000000000000FFFFFFFC000
FFFFF00000000000000000000003FFFFFFF0
FFFFF00000000000000000000003FFFFFFF0
FFFFF00000000000000000000003FFFFFFF0
FFFFF00000000000000000000003FFFFFFF0
FFFFF00000000000000000000003FFFFFFF0
FFFFF00000000000000000000003FFFFFFF0
FFFFF00000000000000000000003FFFFFFF0
FFFFF00000000000000000000003FFFFFFF0
FFFFF00000000000000000000003FFFFFFF0
FFFFF00000000000000000000003FFFFFFF0
ENDCHAR
STARTCHAR L
ENCODING 76
SWIDTH 541 0
DWIDTH 130 0
BBX 100 170 20 0
BITMAP
FFFFF000000000000000000000
FFFFF000000000000000000000
FFFFF000000000000000000000
FFFFF000000000000000000000
FFFFF000000000000000000000
FFFFF000000000000000000000
FFFFF000000000000000000000
FFFFF000000000000000000000
FFFFF000000000000000000000
FFFFF000000000000000000000
FFFFF000000000000000000000
FFFFF000000000000000000000
FFFFF000000000000000000000
FFFFF000000000000000000000
FFFFF000000000000000000000
FFFFF000000000000000000000
FFFFF000000000000000000000
FFFFF000000000000000000000
FFFFF000000000000000000000
FFFFF000000000000000000000
FFFFF000000000000000000000
FFFFF000000000000000000000
FFFFF000000000000000000000
FFFFF000000000000000000000
FFFFF000000000000000000000
FFFFF000000000000000000000
FFFFF000000000000000000000
FFFFF000000000000000000000
FFFFF000000000000000000000
FFFFF000000000000000000000
FFFFF000000000000000000000
FFFFF000000000000000000000
FFFFF000000000000000000000
FFFFF000000000000000000000
FFFFF000000000000000000000
FFFFF000000000000000000000
FFFFF000000000000000000000
FFFFF000000000000000000000
FFFFF000000000000000000000
FFFFF000000000000000000000
FFFFF000000000000000000000
FFFFF000000000000000000000
FFFFF000000000000000000000
FFFFF000000000000000000000
FFFFF000000000000000000000
FFFFF000000000000000000000
FFFFF000000000000000000000
FFFFF000000000000000000000
FFFFF000000000000000000000
FFFFF000000000000000000000
FFFFF000000000000000000000
FFFFF000000000000000000000
FFFFF000000000000000000000
FFFFF000000000000000000000
FFFFF000000000000000000000
FFFFF000000000000000000000
FFFFF000000000000000000000
FFFFF000000000000000000000
FFFFF000000000000000000000
FFFFF000000000000000000000
FFFFF000000000000000000000
FFFFF000000000000000000000
FFFFF000000000000000000000
FFFFF000000000000000000000
FFFFF000000000000000000000
FFFFF000000000000000000000
FFFFF000000000000000000000
FFFFF000000000000000000000
FFFFF000000000000000000000
FFFFF000000000000000000000
FFFFF000000000000000000000
FFFFF000000000000000000000
FFFFF000000000000000000000
FFFFF000000000000000000000
FFFFF000000000000000000000
FFFFF000000000000000000000
FFFFF000000000000000000000
FFFFF000000000000000000000
FFFFF000000000000000000000
FFFFF000000000000000000000
FFFFF000000000000000000000
FFFFF000000000000000000000
FFFFF000000000000000000000
FFFFF000000000000000000000
FFFFF000000000000000000000
FFFFF000000000000000000000
FFFFF000000000000000000000
FFFFF000000000000000000000
FFFFF000000000000000000000
FFFFF000000000000000000000
FFFFF000000000000000000000
FFFFF000000000000000000000
FFFFF000000000000000000000
FFFFF000000000000000000000
FFFFF000000000000000000000
FFFFF000000000000000000000
FFFFF000000000000000000000
FFFFF000000000000000000000
FFFFF000000000000000000000
FFFFF000000000000000000000
FFFFF000000000000000000000
FFFFF000000000000000000000
FFFFF000000000000000000000
FFFFF000000000000000000000
FFFFF000000000000000000000
FFFFF000000000000000000000
FFFFF000000000000000000000
FFFFF000000000000000000000
FFFFF000000000000000000000
FFFFF000000000000000000000
FFFFF000000000000000000000
FFFFF000000000000000000000
FFFFF000000000000000000000
FFFFF000000000000000000000
FFFFF000000000000000000000
FFFFF000000000000000000000
FFFFF000000000000000000000
FFFFF000000000000000000000
FFFFF000000000000000000000
FFFFF000000000000000000000
FFFFF000000000000000000000
FFFFF000000000000000000000
FFFFF000000000000000000000
FFFFF000000000000000000000
FFFFF000000000000000000000
FFFFF000000000000000000000
FFFFF000000000000000000000
FFFFF000000000000000000000
FFFFF000000000000000000000
FFFFF000000000000000000000
FFFFF000000000000000000000
FFFFF000000000000000000000
FFFFF000000000000000000000
FFFFF000000000000000000000
FFFFF000000000000000000000
FFFFF000000000000000000000
FFFFF000000000000000000000
FFFFF000000000000000000000
FFFFF000000000000000000000
FFFFF000000000000000000000
FFFFF000000000000000000000
FFFFF000000000000000000000
FFFFF000000000000000000000
FFFFF000000000000000000000
FFFFF000000000000000000000
FFFFF000000000000000000000
FFFFF000000000000000000000
FFFFF000000000000000000000
FFFFF000000000000000000000
FFFFF000000000000000000000
FFFFFFFFFFFFFFFFFFFFFFFFF0
FFFFFFFFFFFFFFFFFFFFFFFFF0
FFFFFFFFFFFFFFFFFFFFFFFFF0
FFFFFFFFFFFFFFFFFFFFFFFFF0
FFFFFFFFFFFFFFFFFFFFFFFFF0
FFFFFFFFFFFFFFFFFFFFFFFFF0
FFFFFFFFFFFFFFFFFFFFFFFFF0
FFFFFFFFFFFFFFFFFFFFFFFFF0
FFFFFFFFFFFFFFFFFFFFFFFFF0
FFFFFFFFFFFFFFFFFFFFFFFFF0
FFFFFFFFFFFFFFFFFFFFFFFFF0
FFFFFFFFFFFFFFFFFFFFFFFFF0
FFFFFFFFFFFFFFFFFFFFFFFFF0
FFFFFFFFFFFFFFFFFFFFFFFFF0
FFFFFFFFFFFFFFFFFFFFFFFFF0
FFFFFFFFFFFFFFFFFFFFFFFFF0
FFFFFFFFFFFFFFFFFFFFFFFFF0
FFFFFFFFFFFFFFFFFFFFFFFFF0
FFFFFFFFFFFFFFFFFFFFFFFFF0
FFFFFFFFFFFFFFFFFFFFFFFFF0
ENDCHAR
ENDFONT
